<?xml version="1.0" encoding="UTF-8" standalone="no"?>
<!-- Created with Inkscape (http://www.inkscape.org/) -->

<svg
   xmlns:dc="http://purl.org/dc/elements/1.1/"
   xmlns:cc="http://creativecommons.org/ns#"
   xmlns:rdf="http://www.w3.org/1999/02/22-rdf-syntax-ns#"
   xmlns:svg="http://www.w3.org/2000/svg"
   xmlns="http://www.w3.org/2000/svg"
   xmlns:sodipodi="http://sodipodi.sourceforge.net/DTD/sodipodi-0.dtd"
   xmlns:inkscape="http://www.inkscape.org/namespaces/inkscape"
   width="210mm"
   height="297mm"
   viewBox="0 0 210 297"
   version="1.1"
   id="svg8"
   inkscape:version="0.92.2 5c3e80d, 2017-08-06"
   sodipodi:docname="ape-specs.svg">
  <defs
     id="defs2" />
  <sodipodi:namedview
     id="base"
     pagecolor="#ffffff"
     bordercolor="#666666"
     borderopacity="1.0"
     inkscape:pageopacity="0.0"
     inkscape:pageshadow="2"
     inkscape:zoom="0.98994949"
     inkscape:cx="-125.71429"
     inkscape:cy="296.22191"
     inkscape:document-units="mm"
     inkscape:current-layer="layer1"
     showgrid="false"
     inkscape:window-width="3440"
     inkscape:window-height="1418"
     inkscape:window-x="0"
     inkscape:window-y="500"
     inkscape:window-maximized="1" />
  <metadata
     id="metadata5">
    <rdf:RDF>
      <cc:Work
         rdf:about="">
        <dc:format>image/svg+xml</dc:format>
        <dc:type
           rdf:resource="http://purl.org/dc/dcmitype/StillImage" />
        <dc:title></dc:title>
      </cc:Work>
    </rdf:RDF>
  </metadata>
  <g
     inkscape:label="Layer 1"
     inkscape:groupmode="layer"
     id="layer1">
    <g
       id="g851">
      <ellipse
         ry="20.446119"
         rx="19.644312"
         cy="174.18965"
         cx="172.78975"
         id="path845"
         style="fill:#c87137;fill-opacity:1;stroke:none;stroke-width:13.22916603;stroke-linecap:round;stroke-linejoin:round;stroke-miterlimit:4;stroke-dasharray:none;stroke-dashoffset:0;stroke-opacity:1" />
      <ellipse
         style="fill:#e9c6af;fill-opacity:1;stroke:none;stroke-width:10.46228123;stroke-linecap:round;stroke-linejoin:round;stroke-miterlimit:4;stroke-dasharray:none;stroke-dashoffset:0;stroke-opacity:1"
         id="ellipse847"
         cx="172.78975"
         cy="174.18965"
         rx="15.535698"
         ry="16.169807" />
    </g>
    <g
       id="g857"
       transform="translate(-124.01306)">
      <ellipse
         style="fill:#c87137;fill-opacity:1;stroke:none;stroke-width:13.22916603;stroke-linecap:round;stroke-linejoin:round;stroke-miterlimit:4;stroke-dasharray:none;stroke-dashoffset:0;stroke-opacity:1"
         id="ellipse853"
         cx="172.78975"
         cy="174.18965"
         rx="19.644312"
         ry="20.446119" />
      <ellipse
         ry="16.169807"
         rx="15.535698"
         cy="174.18965"
         cx="172.78975"
         id="ellipse855"
         style="fill:#e9c6af;fill-opacity:1;stroke:none;stroke-width:10.46228123;stroke-linecap:round;stroke-linejoin:round;stroke-miterlimit:4;stroke-dasharray:none;stroke-dashoffset:0;stroke-opacity:1" />
    </g>
    <path
       style="fill:#c87137;fill-opacity:0.97260275;stroke:none;stroke-width:15.17995167;stroke-linecap:round;stroke-linejoin:round;stroke-miterlimit:4;stroke-dasharray:none;stroke-dashoffset:0;stroke-opacity:1"
       d="m 172.35714,162.0625 c 0,38.20134 -59.72024,69.16964 -59.72024,69.16964 0,0 -62.744046,-34.74807 -62.744046,-72.9494 0,-38.20134 29.76147,-65.389879 62.744046,-65.38988 32.98258,-10e-7 59.72024,30.9683 59.72024,69.16964 z"
       id="path817"
       inkscape:connector-curvature="0"
       sodipodi:nodetypes="scsss" />
    <ellipse
       style="fill:#e2b495;fill-opacity:1;stroke:none;stroke-width:13.22916603;stroke-linecap:round;stroke-linejoin:round;stroke-miterlimit:4;stroke-dasharray:none;stroke-dashoffset:0;stroke-opacity:1"
       id="path815"
       cx="111.125"
       cy="216.86905"
       rx="60.854164"
       ry="53.672619" />
    <path
       style="fill:#e2b495;fill-opacity:1;stroke:#000000;stroke-width:4.39947891;stroke-linecap:round;stroke-linejoin:round;stroke-miterlimit:4;stroke-dasharray:none;stroke-dashoffset:0;stroke-opacity:1"
       d="m 68.567422,235.45858 c 3.395881,7.56076 21.496279,13.10992 42.701278,13.0912 21.09621,-0.0321 39.03553,-5.56917 42.41388,-13.0912"
       id="path828"
       inkscape:connector-curvature="0"
       sodipodi:nodetypes="ccc" />
    <circle
       style="fill:#000000;fill-opacity:1;stroke:none;stroke-width:97.06785583;stroke-linecap:round;stroke-linejoin:round;stroke-miterlimit:4;stroke-dasharray:none;stroke-dashoffset:0;stroke-opacity:1"
       id="path837"
       cx="123.50332"
       cy="214.33284"
       r="2.6458333" />
    <circle
       r="2.6458333"
       cy="214.73375"
       cx="99.716324"
       id="circle839"
       style="fill:#000000;fill-opacity:1;stroke:none;stroke-width:97.06785583;stroke-linecap:round;stroke-linejoin:round;stroke-miterlimit:4;stroke-dasharray:none;stroke-dashoffset:0;stroke-opacity:1" />
    <circle
       r="4.3830853"
       cy="145.7782"
       cx="83.279251"
       id="circle841"
       style="fill:#000000;fill-opacity:1;stroke:none;stroke-width:160.80253601;stroke-linecap:round;stroke-linejoin:round;stroke-miterlimit:4;stroke-dasharray:none;stroke-dashoffset:0;stroke-opacity:1" />
    <circle
       style="fill:#000000;fill-opacity:1;stroke:none;stroke-width:160.80253601;stroke-linecap:round;stroke-linejoin:round;stroke-miterlimit:4;stroke-dasharray:none;stroke-dashoffset:0;stroke-opacity:1"
       id="circle843"
       cx="139.67313"
       cy="145.7782"
       r="4.3830853" />
    <circle
       style="fill:#aaeeff;fill-opacity:0.41095892;stroke:#000000;stroke-width:2.64583325;stroke-linecap:round;stroke-linejoin:round;stroke-miterlimit:4;stroke-dasharray:none;stroke-dashoffset:0;stroke-opacity:1"
       id="path859"
       cx="78.309975"
       cy="146.25998"
       r="30.201456" />
    <circle
       r="30.201456"
       cy="146.25998"
       cx="142.18739"
       id="circle861"
       style="fill:#aaeeff;fill-opacity:0.41095892;stroke:#000000;stroke-width:2.64583325;stroke-linecap:round;stroke-linejoin:round;stroke-miterlimit:4;stroke-dasharray:none;stroke-dashoffset:0;stroke-opacity:1" />
    <rect
       style="fill:#000000;fill-opacity:1;stroke:none;stroke-width:2.64583325;stroke-linecap:round;stroke-linejoin:round;stroke-miterlimit:4;stroke-dasharray:none;stroke-dashoffset:0;stroke-opacity:1"
       id="rect863"
       width="8.2853556"
       height="4.543582"
       x="106.106"
       y="143.5873"
       ry="2.271791" />
    <rect
       style="fill:#ff00ff;fill-opacity:0.41095892;stroke:none;stroke-width:2.64583325;stroke-linecap:round;stroke-linejoin:round;stroke-miterlimit:4;stroke-dasharray:none;stroke-dashoffset:0;stroke-opacity:1"
       id="rect865"
       width="36.081387"
       height="8.0180855"
       x="55.59206"
       y="132.62924"
       ry="2.2717919" />
    <rect
       style="fill:#ff00ff;fill-opacity:0.41095892;stroke:none;stroke-width:2.64583325;stroke-linecap:round;stroke-linejoin:round;stroke-miterlimit:4;stroke-dasharray:none;stroke-dashoffset:0;stroke-opacity:1"
       id="rect867"
       width="32.874149"
       height="8.8198938"
       x="120.80582"
       y="134.50012"
       ry="2.2717919" />
    <rect
       style="fill:#00ff00;fill-opacity:0.41095892;stroke:none;stroke-width:2.64583325;stroke-linecap:round;stroke-linejoin:round;stroke-miterlimit:4;stroke-dasharray:none;stroke-dashoffset:0;stroke-opacity:1"
       id="rect869"
       width="32.874149"
       height="8.2853556"
       x="58.264755"
       y="145.45818"
       ry="2.2717919" />
    <rect
       style="fill:#00ffff;fill-opacity:0.41095892;stroke:none;stroke-width:2.64583325;stroke-linecap:round;stroke-linejoin:round;stroke-miterlimit:4;stroke-dasharray:none;stroke-dashoffset:0;stroke-opacity:1"
       id="rect871"
       width="17.372519"
       height="5.0781207"
       x="72.162773"
       y="159.08891"
       ry="2.2717919" />
    <rect
       style="fill:#00ff00;fill-opacity:0.41095892;stroke:none;stroke-width:2.64583325;stroke-linecap:round;stroke-linejoin:round;stroke-miterlimit:4;stroke-dasharray:none;stroke-dashoffset:0;stroke-opacity:1"
       id="rect873"
       width="20.312483"
       height="7.2162771"
       x="133.90204"
       y="149.19995"
       ry="2.2717919" />
    <rect
       style="fill:#00ffff;fill-opacity:0.41095892;stroke:none;stroke-width:2.64583325;stroke-linecap:round;stroke-linejoin:round;stroke-miterlimit:4;stroke-dasharray:none;stroke-dashoffset:0;stroke-opacity:1"
       id="rect875"
       width="10.690781"
       height="5.0781207"
       x="140.85104"
       y="162.83069"
       ry="2.2717919" />
    <path
       style="fill:#c87137;stroke:none;stroke-width:0.26458332px;stroke-linecap:butt;stroke-linejoin:miter;stroke-opacity:1"
       d="m 90.604368,102.16051 c 1.276363,-0.11614 1.405636,-0.86977 2.405428,-1.33634 1.049512,-0.48978 2.171337,-0.8184 3.207234,-1.336353 0.39842,-0.19921 0.706599,-0.542896 1.069078,-0.801807 0.983451,-0.702466 2.009463,-1.362742 2.939962,-2.138156 0.19358,-0.161316 0.34621,-0.36713 0.53454,-0.53454 0.6139,-0.545687 1.29009,-1.022821 1.87089,-1.603616 0.063,-0.063 -0.0399,-0.187587 0,-0.267271 0.0563,-0.112689 0.21092,-0.154578 0.26727,-0.267269 0.12599,-0.251984 0.0681,-0.602597 0.26727,-0.80181 0.0891,-0.08909 0.14127,0.267272 0.26727,0.267272 0.12599,0 0.17818,-0.178181 0.26727,-0.267272 0.0891,-0.08909 0.17817,-0.178178 0.26726,-0.267268 0.17819,-0.267269 0.30741,-0.574673 0.53455,-0.80181 0.14086,-0.140861 0.36878,-0.156765 0.53453,-0.267268 0.10483,-0.06989 0.16889,-0.188564 0.26727,-0.267269 0.34784,-0.278271 0.69844,-0.554718 1.06908,-0.801809 0.43223,-0.288156 0.9263,-0.482881 1.33635,-0.80181 0.39781,-0.309406 0.67554,-0.75425 1.06908,-1.069078 0.0696,-0.05565 0.20427,0.063 0.26727,0 0.22713,-0.227134 0.3074,-0.574672 0.53453,-0.801809 0.063,-0.063 0.18276,0.02817 0.26728,0 0.18898,-0.063 0.39367,-0.126405 0.53453,-0.267269 0.063,-0.06299 -0.0398,-0.187584 0,-0.267269 0.0563,-0.112691 0.21093,-0.15458 0.26727,-0.267268 0.0399,-0.07968 -0.063,-0.204275 0,-0.267272 0.063,-0.063 0.20428,0.063 0.26727,0 0.063,-0.063 -0.0398,-0.187584 0,-0.267269 0.20467,-0.409345 0.47628,-0.209007 0.80181,-0.534538 0.063,-0.063 -0.0398,-0.187586 0,-0.267271 0.0563,-0.112689 0.17818,-0.178178 0.26727,-0.267269 0.0891,-0.08909 0.16244,-0.197382 0.26727,-0.267269 0.16575,-0.110503 0.39368,-0.126407 0.53454,-0.267269 0.063,-0.063 -0.063,-0.204274 0,-0.267271 0.25058,-0.250576 0.832,-0.446193 1.06908,-0.801807 0.1105,-0.165753 0.15676,-0.368786 0.26727,-0.53454 0.0699,-0.104831 0.26727,-0.141277 0.26727,-0.267269 0,-0.08909 -0.31669,0.07413 -0.26727,0 -0.5364,-2.201153 0.75409,-0.486828 1.06908,-0.801809 0.063,-0.063 -0.0399,-0.187584 0,-0.267269 0.0563,-0.112691 0.17817,-0.178181 0.26726,-0.267269 0.0891,-0.08909 0.15458,-0.210926 0.26727,-0.267271 0.0797,-0.03984 0.20428,0.063 0.26727,0 0.063,-0.063 -0.0398,-0.187585 0,-0.267269 0.44321,-0.88642 0.18741,0 0.26727,0 0.126,0 0.26727,-0.141277 0.26727,-0.267269 0,-0.08909 -0.26727,0.08909 -0.26727,0 0,-0.178181 0.40855,0.125992 0.53454,0 0.063,-0.063 -0.063,-0.204274 0,-0.267269 0.063,-0.063 0.26727,-0.08909 0.26727,0 0,0.185365 -0.40461,0.527119 -0.26727,0.801807 0.0563,0.112691 0.21093,0.15458 0.26727,0.267271 0.29544,0.590884 0.26727,0.613508 0.26727,1.069078 0,2.13836 -0.0874,0.544918 0.26727,2.672694 0.0147,0.08788 0,0.178181 0,0.267269 0.0891,0.53454 0.13584,1.077886 0.26727,1.603618 0.0483,0.193263 0.19329,0.349576 0.26727,0.534538 0.10463,0.261578 0.19894,0.528495 0.26727,0.801809 0.11018,0.440709 0.20303,0.886643 0.26727,1.336347 0.0252,0.17639 -0.0432,0.36168 0,0.534541 0.0483,0.193262 0.20427,0.345551 0.26727,0.53454 0.0491,0.147352 -0.0571,1.011936 0,1.069078 0.063,0.063 0.22743,-0.07968 0.26727,0 0.0797,0.159366 0,0.356359 0,0.534538 0,0.08909 -0.063,0.204274 0,0.267268 0.063,0.063 0.26727,-0.08909 0.26727,0 0,0.08909 -0.35636,0 -0.26727,0 0.17818,0 0.35636,0 0.53454,0 0.0891,0 0.18275,0.02817 0.26727,0 0.18898,-0.06299 0.35143,-0.188796 0.53454,-0.267268 0.14955,-0.06409 1.73171,-0.720522 2.13815,-0.80181 0.16554,-0.03311 1.0193,0.03734 1.06908,0 0.25697,-0.19273 0.2591,-0.636542 0.53454,-0.801806 0.22918,-0.137509 0.54581,0.0768 0.80181,0 0.19207,-0.05762 2.37853,-0.962062 2.93996,-1.33635 0.2433,-0.1622 0.56492,-0.683363 0.80181,-0.801809 0.0797,-0.03984 0.18939,0.04327 0.26727,0 0.73471,-0.408167 1.43884,-0.870135 2.13816,-1.336347 0.10483,-0.06989 0.15457,-0.210923 0.26727,-0.267269 0.20875,-0.104375 1.10281,-0.301005 1.33634,-0.53454 0.22714,-0.227134 0.2363,-0.682511 0.53454,-0.801807 0.26158,-0.104632 0.52392,0.313585 0.80181,0.267269 0.31685,-0.05281 0.5145,-0.390887 0.80181,-0.53454 0.15937,-0.07968 0.45485,0.159369 0.53454,0 0.0797,-0.159366 -0.12599,-0.408546 0,-0.534538 0.0891,-0.08909 0.22743,0.147744 0.26727,0.267269 0.37863,1.135896 -0.0111,0.278405 -0.26727,0.53454 -0.063,0.063 0.0216,0.180841 0,0.267269 -0.0683,0.273315 -0.19894,0.528492 -0.26727,0.80181 -0.30501,1.22003 1.82432,-2.335581 -0.80181,1.603615 -0.0629,0.09437 -0.5275,0.492329 -0.53454,0.534541 -0.0732,0.439388 0,0.890897 0,1.336347 0,0.08909 0.063,0.204274 0,0.267268 -0.75446,0.754465 -0.60758,-0.146084 -0.26727,0.534541 0.0399,0.07968 -0.063,0.204271 0,0.267269 0.063,0.063 0.17818,0 0.26727,0 0.9186,0 0.2037,0.05634 1.33635,-0.267269 0.35319,-0.100912 0.7206,-0.151112 1.06908,-0.267269 0.45514,-0.151715 0.87091,-0.418182 1.33634,-0.53454 0.25929,-0.06482 0.54826,0.08452 0.80181,0 1.30934,-0.436447 0.2593,-0.80181 1.87089,-0.80181 0.12599,0 -0.39326,0.267269 -0.26727,0.267269 0.28173,0 0.6026,-0.466479 0.80181,-0.267269 0.063,0.063 0,0.178181 0,0.267269 0,0.267272 0,0.534541 0,0.801809 0,0.178181 -0.0797,0.375172 0,0.534541 0.0398,0.07968 0.26727,-0.08909 0.26727,0 0,0.125992 -0.21093,0.154577 -0.26727,0.267269 -0.0398,0.07968 -0.0891,0.267268 0,0.267268 0.12599,0 0.14128,-0.267268 0.26727,-0.267268 0.12599,0 0.26727,0.141276 0.26727,0.267268 0,0.08909 -0.35636,0 -0.26727,0 1.87089,0 -1.51453,0 1.06908,0 0.26727,0 0.53817,0.04394 0.80181,0 0.27789,-0.04632 0.52555,-0.212018 0.8018,-0.267268 0.17472,-0.03494 0.35815,0.02519 0.53454,0 0.44971,-0.06424 0.88433,-0.222068 1.33635,-0.267269 0.44324,-0.04433 0.89696,0.07323 1.33635,0 0.12428,-0.02072 0.14504,-0.236712 0.26727,-0.267269 0.22861,-0.05716 1.5297,0 1.87088,0 0.0891,0 0.17819,0 0.26727,0 0.0891,0 0.22743,-0.07969 0.26727,0 0.0797,0.159366 -0.12599,0.408546 0,0.534538 0.0891,0.08909 0.17818,-0.35636 0.26727,-0.267269 0.0891,0.08909 -0.22742,0.147743 -0.26727,0.267269 -0.0563,0.169037 -0.0988,0.386283 0,0.53454 0.11051,0.165753 0.33533,0.267269 0.53454,0.267269 0.12599,0 -0.26727,-0.393264 -0.26727,-0.267269 0,0.281726 0.19894,0.528492 0.26727,0.801806 0.0216,0.08643 0,0.178181 0,0.267272 0,0.779772 0.0551,1.38326 0,1.603616 -0.0483,0.193262 -0.20427,0.345551 -0.26727,0.53454 -0.0789,0.236633 0.0924,0.57077 0,0.801807 -0.14797,0.369927 -0.32955,0.727434 -0.53454,1.069078 -0.0648,0.108037 -0.26727,0.141279 -0.26727,0.267271 0,0.516086 0.82343,-0.03243 0.26727,0.801807 -0.1105,0.165753 -0.44544,0.08909 -0.53453,0.267271 -0.0564,0.112689 0.26726,0.141277 0.26726,0.267269 0,0.19921 -0.20427,0.345551 -0.26726,0.534538 -0.0282,0.08452 0.0398,0.187587 0,0.267271 -0.0564,0.112689 -0.21093,0.154578 -0.26727,0.267272 -0.0399,0.0797 0.063,0.20427 0,0.26727 -0.063,0.063 -0.20428,-0.063 -0.26727,0 -0.063,0.063 0.0398,0.18758 0,0.26726 -0.0563,0.1127 -0.26727,0.14128 -0.26727,0.26728 0,0.12599 0.14127,0.26727 0.26727,0.26727 0.0891,0 0,-0.35636 0,-0.26727 0,0.17817 0.0432,0.36167 0,0.53453 -0.0465,0.18602 -0.30167,0.68538 -0.53454,0.80181 -0.0797,0.0398 -0.26727,-0.0891 -0.26727,0 0,0.19921 0.26727,0.33533 0.26727,0.53454 0,0.35636 -0.53454,0.35636 -0.53454,0 0,-0.0891 0.22743,-0.0797 0.26727,0 0.0797,0.15937 0.0988,0.38629 0,0.53454 -1.29255,0.64627 -0.26727,-0.0777 -0.26727,0.53454 0,0.17818 -0.53454,-0.17818 -0.53454,0 0,0.19921 0.20427,0.34555 0.26727,0.53454 0.0532,0.15973 -0.0123,0.53454 -0.26727,0.53454 -0.12599,0 -0.35636,-0.17818 -0.26727,-0.26727 0.0891,-0.0891 0.21092,0.15458 0.26727,0.26727 0.0398,0.0797 0.0891,0.26727 0,0.26727 -0.0891,0 0,-0.35636 0,-0.26727 0,0.17818 0,0.35636 0,0.53454 0,0.0891 0.063,-0.33027 0,-0.26727 -0.14086,0.14086 -0.0891,0.44545 -0.26727,0.53454 -0.11269,0.0563 -0.26727,-0.39326 -0.26727,-0.26727 0,0.19921 0.12641,0.39367 0.26727,0.53454 0.063,0.063 -0.0891,-0.26727 0,-0.26727 0.0891,0 0,0.17818 0,0.26727 0,0.0891 0.0891,0.26727 0,0.26727 -0.0891,0 0.0891,-0.26727 0,-0.26727 -0.12599,0 -0.21093,0.15458 -0.26727,0.26727 -0.0398,0.0797 0.0891,0.26727 0,0.26727 -0.12599,0 -0.26727,-0.39327 -0.26727,-0.26727 0,0.19921 0.12641,0.39367 0.26727,0.53453 0.063,0.063 0.063,-0.20427 0,-0.26726 -0.063,-0.063 -0.17818,0 -0.26727,0 -0.0891,0 -0.26727,-0.0891 -0.26727,0 0,0.19921 0.12641,0.39367 0.26727,0.53454 0.063,0.063 0,-0.35636 0,-0.26728 0,0.17819 0,0.35636 0,0.53454 0,0.0891 0.063,-0.20427 0,-0.26726 -0.063,-0.063 -0.20427,-0.063 -0.26727,0 -1.31881,1.31881 0.70812,-0.0579 -0.26727,0.26726 -1.81014,0.60338 1.00833,-0.0688 -0.80181,0.53454 -0.16903,0.0564 -0.40855,-0.12599 -0.53454,0 -0.063,0.063 0.0845,0.2391 0,0.26727 -0.25355,0.0845 -0.54251,-0.0648 -0.80181,0 -0.12223,0.0306 -0.14127,0.26727 -0.26726,0.26727 -0.19922,0 -0.33533,-0.26727 -0.53454,-0.26727 -0.12599,0 -0.14775,0.22743 -0.26727,0.26727 -0.80181,0.26727 -0.26727,-0.13363 -0.80181,0 -0.27332,0.0683 -0.52392,0.22096 -0.80181,0.26727 -0.26363,0.0439 -0.53454,0 -0.80181,0 -0.44545,0 -0.8909,0 -1.33635,0 -1.78179,0 -3.56359,0 -5.34539,0 -4.63267,0 -9.26534,0 -13.89801,0 -0.53454,0 -1.06908,0 -1.60362,0 -0.26727,0 -0.53454,0 -0.80181,0 -0.17818,0 -0.35878,0.0293 -0.53454,0 -0.36233,-0.0604 -0.7206,-0.15111 -1.06907,-0.26727 -0.0845,-0.0282 0.35636,0 0.26726,0 -0.44545,0 -0.8909,0 -1.33634,0 -0.0891,0 -0.26727,0.0891 -0.26727,0 0,-0.12599 0.33715,-0.16244 0.26727,-0.26727 -0.17818,-0.26727 -0.49019,-0.45663 -0.80181,-0.53454 -0.12223,-0.0305 -0.26727,0.14128 -0.26727,0.26727 0,0.0891 0.30711,0.0797 0.26727,0 -0.11269,-0.22538 -0.29549,-0.45485 -0.53454,-0.53454 -0.11953,-0.0398 -0.15029,0.31407 -0.26727,0.26727 -0.41359,-0.16543 -0.64649,-0.66094 -1.06908,-0.80181 -0.55609,-0.18536 -0.36132,0.48752 -0.80181,0.26728 -0.64243,-0.32122 -1.18948,-0.84195 -1.87088,-1.06908 -0.18899,-0.063 -0.34128,0.21895 -0.53454,0.26727 -0.17286,0.0432 -0.36322,0.0489 -0.53454,0 -0.44545,-0.17818 -0.8909,-0.35636 -1.33635,-0.53454 0.0891,0 0.33027,0.063 0.26727,0 -0.14086,-0.14087 -0.33533,-0.26727 -0.53454,-0.26727 -0.51609,0 0.0324,0.82342 -0.80181,0.26727 -0.16575,-0.1105 -0.1264,-0.39368 -0.26727,-0.53454 -0.063,-0.063 0.0845,0.23909 0,0.26727 -0.25355,0.0845 -0.56275,0.11952 -0.80181,0 -0.17817,-0.0891 -0.1264,-0.39368 -0.26727,-0.53454 -0.0415,-0.0415 -0.6978,0.0347 -0.8018,0 -0.18899,-0.063 -0.34556,-0.20427 -0.53454,-0.26727 -0.20912,-0.0697 -0.53454,0.11187 -0.53454,0 0,-0.0891 0.35636,0 0.26727,0 -0.17818,0 -0.35636,0 -0.53454,0 -0.0891,0 0.33026,0.063 0.26727,0 -0.14086,-0.14086 -0.35636,-0.17818 -0.53454,-0.26727 -0.17818,-0.0891 -0.33533,-0.26727 -0.53454,-0.26727 -0.43464,0 -0.0675,0.5008 -0.53454,0.26727 -0.40692,-0.20346 -0.15649,-0.53454 -0.801807,-0.53454 -0.08909,0 0,0.17818 0,0.26727 -0.178181,0 -0.365504,0.0563 -0.534541,0 -0.239051,-0.0797 -0.282553,-0.53454 -0.534537,-0.53454 -3.004823,0 0.204462,0.60269 -1.603619,0 -0.157721,-0.0526 -1.187016,0 -1.336347,0 -0.08909,0 -0.267268,0.0891 -0.267268,0 0,-0.0891 0.356359,0 0.267268,0 -0.178178,0 -0.356359,0 -0.534537,0 -0.08909,0 0.330263,0.063 0.267269,0 -0.140865,-0.14086 -0.335328,-0.26727 -0.534541,-0.26727 -0.08909,0 0.07968,0.22743 0,0.26727 -0.159369,0.0797 -0.356359,0 -0.534538,0 -0.08909,0 -0.267268,0.0891 -0.267268,0 0,-0.0891 0.330263,0.063 0.267268,0 -0.140864,-0.14086 -0.393676,-0.1264 -0.53454,-0.26727 -0.06299,-0.063 0.178181,0 0.267272,0 -0.178181,0 -0.365504,0.0563 -0.534541,0 -0.119525,-0.0398 -0.147743,-0.22743 -0.267269,-0.26727 -0.169037,-0.0563 -0.365503,0.0563 -0.53454,0 -0.119525,-0.0398 -0.141277,-0.26727 -0.267269,-0.26727 -0.125992,0 -0.154577,0.21093 -0.267269,0.26727 -0.07968,0.0398 -0.267268,0.0891 -0.267268,0 0,-0.0891 0.267268,0.0891 0.267268,0 0,-0.55615 -0.374811,-0.10754 -0.53454,-0.26727 -0.063,-0.063 0,-0.17818 0,-0.26727 -0.356359,-0.0891 -0.712719,-0.17818 -1.069078,-0.26727 z"
       id="path877"
       inkscape:connector-curvature="0" />
  </g>
</svg>