<?xml version="1.0" encoding="UTF-8" standalone="no"?>
<svg
   xmlns:dc="http://purl.org/dc/elements/1.1/"
   xmlns:cc="http://creativecommons.org/ns#"
   xmlns:rdf="http://www.w3.org/1999/02/22-rdf-syntax-ns#"
   xmlns:svg="http://www.w3.org/2000/svg"
   xmlns="http://www.w3.org/2000/svg"
   version="1.1"
   id="svg2"
   viewBox="0 0 200.00001 200"
   height="200"
   width="200">
  <defs
     id="defs4" />
  <metadata
     id="metadata7">
    <rdf:RDF>
      <cc:Work
         rdf:about="">
        <dc:format>image/svg+xml</dc:format>
        <dc:type
           rdf:resource="http://purl.org/dc/dcmitype/StillImage" />
        <dc:title></dc:title>
      </cc:Work>
    </rdf:RDF>
  </metadata>
  <g
     transform="translate(0,-852.36226)"
     id="layer1">
    <g
       id="g4306">
      <g
         id="g4262">
        <g
           id="g4251">
          <g
             id="g4242">
            <g
               id="g4235">
              <path
                 d="M 113.82048,910.47504 A 16.035673,16.035673 0 0 1 97.866809,926.5105 16.035673,16.035673 0 0 1 81.749971,910.63904 16.035673,16.035673 0 0 1 97.538804,894.44125 16.035673,16.035673 0 0 1 113.81712,910.14704"
                 id="path4231"
                 style="fill:#000000;fill-opacity:1;stroke:none;stroke-width:2;stroke-linecap:round;stroke-linejoin:round;stroke-miterlimit:4;stroke-dasharray:none;stroke-opacity:1" />
              <path
                 style="fill:#ffffff;fill-opacity:1;stroke:none;stroke-width:2;stroke-linecap:round;stroke-linejoin:round;stroke-miterlimit:4;stroke-dasharray:none;stroke-opacity:1"
                 id="path4223"
                 d="M 112.78481,910.47504 A 15,15 0 0 1 97.861512,925.47484 15,15 0 0 1 82.78559,910.62845 15,15 0 0 1 97.554692,895.4768 15,15 0 0 1 112.78167,910.16823" />
              <path
                 d="M 112.21521,910.47504 A 14.430408,14.430408 0 0 1 97.8586,924.90526 14.430408,14.430408 0 0 1 83.355153,910.62262 14.430408,14.430408 0 0 1 97.56343,896.04633 a 14.430408,14.430408 0 0 1 14.64876,14.13355"
                 id="path4233"
                 style="fill:#333333;fill-opacity:1;stroke:none;stroke-width:2;stroke-linecap:round;stroke-linejoin:round;stroke-miterlimit:4;stroke-dasharray:none;stroke-opacity:1" />
            </g>
            <path
               d="m 106.20235,910.47504 a 8.4175472,8.4175472 0 0 1 -8.374499,8.41743 8.4175472,8.4175472 0 0 1 -8.460153,-8.33134 8.4175472,8.4175472 0 0 1 8.287975,-8.50265 8.4175472,8.4175472 0 0 1 8.544917,8.24439"
               id="path4240"
               style="fill:#000000;fill-opacity:1;stroke:none;stroke-width:2;stroke-linecap:round;stroke-linejoin:round;stroke-miterlimit:4;stroke-dasharray:none;stroke-opacity:1" />
          </g>
          <path
             style="fill:#333333;fill-opacity:1;stroke:none;stroke-width:2;stroke-linecap:round;stroke-linejoin:round;stroke-miterlimit:4;stroke-dasharray:none;stroke-opacity:1"
             id="path4249"
             d="m 105.28481,910.47504 a 7.5,7.5 0 0 1 -7.461651,7.4999 7.5,7.5 0 0 1 -7.537961,-7.4232 7.5,7.5 0 0 1 7.384551,-7.57582 7.5,7.5 0 0 1 7.613491,7.34571" />
        </g>
        <path
           d="m 102.78481,910.47504 a 5,5 0 0 1 -4.974436,4.99993 5,5 0 0 1 -5.025307,-4.9488 5,5 0 0 1 4.923034,-5.05054 5,5 0 0 1 5.075659,4.89714"
           id="path4260"
           style="fill:#1a1a1a;fill-opacity:1;stroke:none;stroke-width:2;stroke-linecap:round;stroke-linejoin:round;stroke-miterlimit:4;stroke-dasharray:none;stroke-opacity:1" />
      </g>
      <path
         style="fill:#ffffff;fill-opacity:0.6;stroke:none;stroke-width:2;stroke-linecap:round;stroke-linejoin:round;stroke-miterlimit:4;stroke-dasharray:none;stroke-opacity:1"
         d="M 93.621094 60.873047 L 85.746094 66.09375 A 14.44374 14.44374 0 0 0 93.648438 71.951172 L 96.353516 62.900391 A 4.9999997 4.9999997 0 0 1 93.621094 60.873047 z "
         transform="translate(0,852.36225)"
         id="path4277" />
      <path
         style="fill:#ffffff;fill-opacity:0.6;stroke:none;stroke-width:2;stroke-linecap:round;stroke-linejoin:round;stroke-miterlimit:4;stroke-dasharray:none;stroke-opacity:1"
         d="m 100.27082,902.37268 -0.962885,3.21875 a 5.0171264,5.0171264 0 0 1 2.740235,2.03711 l 2.79882,-1.85547 a 8.376862,8.376862 0 0 0 -4.57617,-3.40039 z"
         id="path4290" />
      <path
         style="fill:#ffffff;fill-opacity:1;stroke:none;stroke-width:2;stroke-linecap:round;stroke-linejoin:round;stroke-miterlimit:4;stroke-dasharray:none;stroke-opacity:1"
         d="m 99.323662,907.19075 c -1.866309,1.31627 1.453778,3.30806 1.862758,1.11636 0.11747,-0.93635 -1.11356,-1.67577 -1.862758,-1.11636 z"
         id="path4300" />
    </g>
  </g>
</svg>
