<?xml version="1.0" encoding="UTF-8" standalone="no"?>
<svg
   xmlns:dc="http://purl.org/dc/elements/1.1/"
   xmlns:cc="http://creativecommons.org/ns#"
   xmlns:rdf="http://www.w3.org/1999/02/22-rdf-syntax-ns#"
   xmlns:svg="http://www.w3.org/2000/svg"
   xmlns="http://www.w3.org/2000/svg"
   version="1.1"
   id="svg2"
   viewBox="0 0 300 400.00001"
   height="400"
   width="300">
  <defs
     id="defs4" />
  <metadata
     id="metadata7">
    <rdf:RDF>
      <cc:Work
         rdf:about="">
        <dc:format>image/svg+xml</dc:format>
        <dc:type
           rdf:resource="http://purl.org/dc/dcmitype/StillImage" />
        <dc:title></dc:title>
      </cc:Work>
    </rdf:RDF>
  </metadata>
  <g
     transform="translate(0,-652.36216)"
     id="layer1">
    <g
       transform="translate(-12.781251,11.460404)"
       id="g4352">
      <g
         id="g4257"
         transform="matrix(0.86099227,0.50861804,-0.50861804,0.86099227,471.34148,104.93719)">
        <rect
           ry="15.2494"
           y="817.83301"
           x="27.354259"
           height="111.65919"
           width="56.05381"
           id="rect4253"
           style="fill:#d38d5f;fill-opacity:1;stroke:#a05a2c;stroke-width:2;stroke-linecap:round;stroke-linejoin:round;stroke-miterlimit:4;stroke-dasharray:none;stroke-opacity:1" />
        <rect
           style="fill:#e9c6af;fill-opacity:1;stroke:#a05a2c;stroke-width:2;stroke-linecap:round;stroke-linejoin:round;stroke-miterlimit:4;stroke-dasharray:none;stroke-opacity:1"
           id="rect4255"
           width="45.797901"
           height="12.165608"
           x="32.482216"
           y="911.75018"
           ry="6.0828042" />
      </g>
      <path
         style="fill:#d38d5f;fill-opacity:1;stroke:#a05a2c;stroke-width:2.02580309;stroke-linecap:round;stroke-linejoin:round;stroke-miterlimit:4;stroke-dasharray:none;stroke-opacity:1"
         d="m 261.49609,118.67773 c -4.89118,-0.026 -9.70008,2.30624 -12.67578,6.66797 l -26.74804,39.20703 a 90.570061,96.399658 0 0 0 -70.05469,-35.39257 90.570061,96.399658 0 0 0 -90.570314,96.40039 90.570061,96.399658 0 0 0 17.402343,56.61523 l 0,74.08399 c 0,8.37331 6.741921,15.11328 15.115235,15.11328 l 29.558596,0 c 8.37331,0 15.11523,-6.73997 15.11523,-15.11328 l 0,-35.47852 a 90.570061,96.399658 0 0 0 13.37891,1.17969 90.570061,96.399658 0 0 0 9.79687,-0.67969 l 0,34.85547 c 0,8.43865 6.79378,15.23242 15.23243,15.23242 l 29.31445,0 c 8.43865,0 15.23242,-6.79377 15.23242,-15.23242 l 0,-68.90039 a 90.570061,96.399658 0 0 0 20.81445,-57.66016 c 2.73444,-1.08382 5.187,-2.97259 6.97657,-5.5957 L 295.125,156.9375 c 4.76112,-6.97877 2.97487,-16.43029 -4.00391,-21.19141 l -21.10937,-14.40234 c -2.61704,-1.78542 -5.58092,-2.65044 -8.51563,-2.66602 z"
         transform="translate(0,652.36216)"
         id="path4238" />
      <ellipse
         ry="67.332878"
         rx="63.26104"
         cy="877.92273"
         cx="152.01793"
         id="ellipse4240"
         style="fill:#deaa87;fill-opacity:1;stroke:#a05a2c;stroke-width:2;stroke-linecap:round;stroke-linejoin:round;stroke-miterlimit:4;stroke-dasharray:none;stroke-opacity:1" />
      <g
         id="g4193">
        <g
           id="g4168">
          <g
             id="g4160">
            <ellipse
               ry="36.124775"
               rx="36.683403"
               cy="703.59723"
               cx="81.165916"
               id="ellipse4152"
               style="fill:#d38d5f;fill-opacity:1;stroke:#a05a2c;stroke-width:2;stroke-linecap:round;stroke-linejoin:round;stroke-miterlimit:4;stroke-dasharray:none;stroke-opacity:1" />
            <ellipse
               style="fill:#e9c6af;fill-opacity:1;stroke:#a05a2c;stroke-width:1.36930287;stroke-linecap:round;stroke-linejoin:round;stroke-miterlimit:4;stroke-dasharray:none;stroke-opacity:1"
               id="ellipse4156"
               cx="81.165916"
               cy="703.59723"
               rx="25.115343"
               ry="24.732878" />
          </g>
          <g
             id="g4164">
            <ellipse
               style="fill:#d38d5f;fill-opacity:1;stroke:#a05a2c;stroke-width:2;stroke-linecap:round;stroke-linejoin:round;stroke-miterlimit:4;stroke-dasharray:none;stroke-opacity:1"
               id="ellipse4154"
               cx="211.65919"
               cy="694.18018"
               rx="36.683403"
               ry="36.124775" />
            <ellipse
               ry="24.732878"
               rx="25.115343"
               cy="694.18018"
               cx="211.65919"
               id="ellipse4158"
               style="fill:#e9c6af;fill-opacity:1;stroke:#a05a2c;stroke-width:1.36930287;stroke-linecap:round;stroke-linejoin:round;stroke-miterlimit:4;stroke-dasharray:none;stroke-opacity:1" />
          </g>
          <ellipse
             style="fill:#d38d5f;fill-opacity:1;stroke:#a05a2c;stroke-width:2;stroke-linecap:round;stroke-linejoin:round;stroke-miterlimit:4;stroke-dasharray:none;stroke-opacity:1"
             id="path4148"
             cx="150"
             cy="764.02136"
             rx="88.340805"
             ry="86.995514" />
        </g>
        <ellipse
           ry="43.721973"
           rx="54.26009"
           cy="792.4967"
           cx="153.36324"
           id="path4177"
           style="fill:#deaa87;fill-opacity:1;stroke:#a05a2c;stroke-width:2;stroke-linecap:round;stroke-linejoin:round;stroke-miterlimit:4;stroke-dasharray:none;stroke-opacity:1" />
        <circle
           r="8.6027155"
           cy="733.04828"
           cx="123.34978"
           id="path4179"
           style="fill:#2b1100;fill-opacity:1;stroke:none;stroke-width:2.79500008;stroke-linecap:round;stroke-linejoin:round;stroke-miterlimit:4;stroke-dasharray:none;stroke-opacity:1" />
        <circle
           style="fill:#2b1100;fill-opacity:1;stroke:none;stroke-width:2.79500008;stroke-linecap:round;stroke-linejoin:round;stroke-miterlimit:4;stroke-dasharray:none;stroke-opacity:1"
           id="circle4183"
           cx="173.57399"
           cy="731.703"
           r="8.6027155" />
        <ellipse
           transform="matrix(0.99796539,-0.06375794,0.06375794,0.99796539,0,0)"
           ry="8.6027155"
           rx="20.261908"
           cy="767.51178"
           cx="101.07787"
           id="circle4185"
           style="fill:#2b1100;fill-opacity:1;stroke:none;stroke-width:2.79500008;stroke-linecap:round;stroke-linejoin:round;stroke-miterlimit:4;stroke-dasharray:none;stroke-opacity:1" />
        <path
           id="path4191"
           d="m 149.32735,792.27247 c 35.56784,-6.47403 43.8432,-3.33151 43.04933,6.27803"
           style="fill:none;fill-rule:evenodd;stroke:#000000;stroke-width:2;stroke-linecap:round;stroke-linejoin:miter;stroke-miterlimit:4;stroke-dasharray:none;stroke-opacity:1" />
      </g>
      <rect
         style="fill:#e9c6af;fill-opacity:1;stroke:#a05a2c;stroke-width:2;stroke-linecap:round;stroke-linejoin:round;stroke-miterlimit:4;stroke-dasharray:none;stroke-opacity:1"
         id="rect4265"
         width="45.797901"
         height="12.165608"
         x="-694.76093"
         y="-504.7066"
         ry="6.0828042"
         transform="matrix(-0.82606949,-0.56356827,0.56356827,-0.82606949,0,0)" />
    </g>
  </g>
</svg>
