<?xml version="1.0" encoding="UTF-8" standalone="no"?>
<!-- Created with Inkscape (http://www.inkscape.org/) -->

<svg
   xmlns:dc="http://purl.org/dc/elements/1.1/"
   xmlns:cc="http://creativecommons.org/ns#"
   xmlns:rdf="http://www.w3.org/1999/02/22-rdf-syntax-ns#"
   xmlns:svg="http://www.w3.org/2000/svg"
   xmlns="http://www.w3.org/2000/svg"
   xmlns:sodipodi="http://sodipodi.sourceforge.net/DTD/sodipodi-0.dtd"
   xmlns:inkscape="http://www.inkscape.org/namespaces/inkscape"
   width="100"
   height="100"
   viewBox="0 0 100 100"
   id="svg2"
   version="1.1"
   inkscape:version="0.91 r13725"
   sodipodi:docname="football.svg">
  <defs
     id="defs4" />
  <sodipodi:namedview
     id="base"
     pagecolor="#ffffff"
     bordercolor="#666666"
     borderopacity="1.0"
     inkscape:pageopacity="0.0"
     inkscape:pageshadow="2"
     inkscape:zoom="4.46"
     inkscape:cx="76.90583"
     inkscape:cy="50"
     inkscape:document-units="px"
     inkscape:current-layer="layer1"
     showgrid="false"
     units="px"
     inkscape:window-width="1920"
     inkscape:window-height="1058"
     inkscape:window-x="0"
     inkscape:window-y="0"
     inkscape:window-maximized="1" />
  <metadata
     id="metadata7">
    <rdf:RDF>
      <cc:Work
         rdf:about="">
        <dc:format>image/svg+xml</dc:format>
        <dc:type
           rdf:resource="http://purl.org/dc/dcmitype/StillImage" />
        <dc:title></dc:title>
      </cc:Work>
    </rdf:RDF>
  </metadata>
  <g
     inkscape:label="Layer 1"
     inkscape:groupmode="layer"
     id="layer1"
     transform="translate(0,-952.36216)">
    <path
       style="fill:none;fill-rule:evenodd;stroke:#000000;stroke-width:1px;stroke-linecap:butt;stroke-linejoin:miter;stroke-opacity:0.35294118"
       d="m 13.004484,976.68952 17.264574,-14.01346 38.004484,-1.23318 17.713005,15.02242 8.52018,32.1748 -7.847534,18.8342 -22.869955,17.713 -22.309417,1.0089 -28.363229,-18.7219 -7.7354261,-22.9821 8.9686101,-28.47533"
       id="path4172"
       inkscape:connector-curvature="0"
       sodipodi:nodetypes="ccccccccccc" />
    <path
       inkscape:connector-curvature="0"
       style="fill:#ffffff;fill-opacity:1;stroke:#000000;stroke-width:2.09899521;stroke-linecap:round;stroke-linejoin:round;stroke-miterlimit:4;stroke-dasharray:none;stroke-opacity:1"
       d="M 98.9505,1002.3621 A 48.9505,48.9505 0 0 1 50,1051.3126 48.9505,48.9505 0 0 1 1.0494995,1002.3621 48.9505,48.9505 0 0 1 50,953.41162 48.9505,48.9505 0 0 1 98.9505,1002.3621 Z"
       id="path4136" />
    <path
       inkscape:connector-curvature="0"
       id="path4144"
       d="m 50,952.58624 0,49.77596"
       style="fill:none;fill-rule:evenodd;stroke:#000000;stroke-width:1;stroke-linecap:butt;stroke-linejoin:miter;stroke-opacity:0.36119463;stroke-miterlimit:4;stroke-dasharray:none" />
    <path
       inkscape:connector-curvature="0"
       id="path4148"
       d="M 51.92388,1002.3622 A 1.9238801,1.9238801 0 0 1 50,1004.2861 1.9238801,1.9238801 0 0 1 48.07612,1002.3622 1.9238801,1.9238801 0 0 1 50,1000.4383 a 1.9238801,1.9238801 0 0 1 1.92388,1.9239 z"
       style="fill:none;fill-opacity:1;stroke:#000000;stroke-width:1.1522398;stroke-linecap:round;stroke-linejoin:round;stroke-miterlimit:4;stroke-dasharray:none;stroke-opacity:0.36119463" />
    <path
       style="fill:#000000;fill-opacity:1;fill-rule:evenodd;stroke:#000000;stroke-width:1px;stroke-linecap:round;stroke-linejoin:round;stroke-opacity:1"
       d="m 30.281927,996.079 19.659471,-15.22024 20.76928,15.06169 -9.512647,22.98895 -21.403457,-0.4757 z"
       id="path4158"
       inkscape:connector-curvature="0" />
    <path
       style="fill:#000000;fill-opacity:1;fill-rule:evenodd;stroke:#000000;stroke-width:1px;stroke-linecap:round;stroke-linejoin:round;stroke-opacity:1"
       d="m 16.488589,992.11539 -0.232183,-18.04682 -6.7437587,1.0826 -6.3417649,12.2079 -2.37816179,13.31763 5.23195599,5.8118 z"
       id="path4160"
       inkscape:connector-curvature="0"
       sodipodi:nodetypes="ccccccc" />
    <path
       style="fill:#000000;fill-opacity:1;fill-rule:evenodd;stroke:#000000;stroke-width:1px;stroke-linecap:round;stroke-linejoin:round;stroke-opacity:1"
       d="m 49.941398,969.1265 -20.637938,-5.63396 1.80169,-6.02467 18.836248,-3.72015 17.475023,2.84252 1.577474,5.65318 z"
       id="path4162"
       inkscape:connector-curvature="0"
       sodipodi:nodetypes="ccccccc" />
    <path
       style="fill:#000000;fill-opacity:1;fill-rule:evenodd;stroke:#000000;stroke-width:1px;stroke-linecap:round;stroke-linejoin:round;stroke-opacity:1"
       d="m 84.504017,991.63976 -0.792721,-17.12276 6.183221,-0.31709 7.134485,13.3177 2.061074,19.18389 -5.3905,3.6465 z"
       id="path4164"
       inkscape:connector-curvature="0" />
    <path
       style="fill:#000000;fill-opacity:1;fill-rule:evenodd;stroke:#000000;stroke-width:1px;stroke-linecap:round;stroke-linejoin:round;stroke-opacity:1"
       d="m 29.964839,1031.4343 -17.439853,-5.8661 -1.268353,6.8174 10.939544,10.6225 17.122765,7.1344 4.59778,-3.9636 z"
       id="path4166"
       inkscape:connector-curvature="0" />
    <path
       style="fill:#000000;fill-opacity:1;fill-rule:evenodd;stroke:#000000;stroke-width:1px;stroke-linecap:round;stroke-linejoin:round;stroke-opacity:1"
       d="m 68.173972,1030.0074 -7.451574,15.2203 7.29303,2.5367 9.98828,-5.0734 11.256632,-10.781 -1.743985,-6.6589 z"
       id="path4168"
       inkscape:connector-curvature="0" />
    <path
       style="fill:none;fill-rule:evenodd;stroke:#000000;stroke-width:1px;stroke-linecap:butt;stroke-linejoin:miter;stroke-opacity:0.35294119"
       d="m 67.713004,996.86889 19.84305,-6.05382"
       id="path4236"
       inkscape:connector-curvature="0" />
    <path
       style="fill:none;fill-rule:evenodd;stroke:#000000;stroke-width:1px;stroke-linecap:butt;stroke-linejoin:miter;stroke-opacity:0.35294119"
       d="m 60.089686,1017.0483 10.201794,16.4798"
       id="path4238"
       inkscape:connector-curvature="0" />
    <path
       style="fill:none;fill-rule:evenodd;stroke:#000000;stroke-width:1px;stroke-linecap:butt;stroke-linejoin:miter;stroke-opacity:0.35294119"
       d="m 41.591928,1015.9272 -13.116592,17.6009"
       id="path4242"
       inkscape:connector-curvature="0" />
    <path
       style="fill:none;fill-rule:evenodd;stroke:#000000;stroke-width:1px;stroke-linecap:butt;stroke-linejoin:miter;stroke-opacity:0.35294119"
       d="m 13.901345,991.2635 19.058296,5.60539"
       id="path4244"
       inkscape:connector-curvature="0" />
  </g>
</svg>
