<?xml version="1.0" encoding="UTF-8" standalone="no"?>
<svg
   xmlns:dc="http://purl.org/dc/elements/1.1/"
   xmlns:cc="http://creativecommons.org/ns#"
   xmlns:rdf="http://www.w3.org/1999/02/22-rdf-syntax-ns#"
   xmlns:svg="http://www.w3.org/2000/svg"
   xmlns="http://www.w3.org/2000/svg"
   version="1.1"
   id="svg2"
   viewBox="0 0 212.73145 220.31212"
   height="220.31212"
   width="212.73145">
  <defs
     id="defs4" />
  <metadata
     id="metadata7">
    <rdf:RDF>
      <cc:Work
         rdf:about="">
        <dc:format>image/svg+xml</dc:format>
        <dc:type
           rdf:resource="http://purl.org/dc/dcmitype/StillImage" />
        <dc:title></dc:title>
      </cc:Work>
    </rdf:RDF>
  </metadata>
  <g
     transform="translate(-37.154807,-692.9616)"
     id="layer1">
    <path
       d="m 111.56447,759.59553 c -1.55471,-0.65881 -2.86124,-0.99697 -4.48033,-0.3525 -1.22538,0.89699 -1.4464,2.41059 -1.63238,3.81004 -0.14088,2.29215 0.34981,3.9451 1.73145,5.76107 0.94579,0.94068 2.24255,1.97054 3.65561,2.02836 0.22048,0.009 0.43804,-0.0537 0.65707,-0.0806 1.4919,-0.47086 1.88421,-2.1055 2.18811,-3.47351 0.42749,-2.19241 0.007,-4.3701 -0.61309,-6.47774 -0.28773,-0.84096 -0.58153,-1.68915 -1.00429,-2.47407 -0.0719,-0.11995 -0.36536,-0.55821 0.42487,-0.11948 3.8e-4,2.1e-4 0.73754,2.25431 0.7852,2.38763 0.65376,2.17379 1.92807,3.9973 3.32538,5.74657 1.61963,1.80707 3.17406,2.62602 5.5888,2.78862 1.41397,-0.0972 3.0016,-0.46027 4.1349,-1.37211 0,0 0.46404,-0.18121 0.46404,-0.18121 l 0,0 c -1.53768,0.96151 -3.13319,1.83481 -5.0016,1.84156 -2.42187,-0.17854 -3.98777,-1.00687 -5.61016,-2.82347 -1.40025,-1.75354 -2.67653,-3.5822 -3.33666,-5.75895 -0.0731,-0.20334 -0.84912,-2.24046 -0.79645,-2.39331 0.26202,-0.76034 0.33729,-0.57581 0.46017,-0.36711 0.41979,0.79074 0.71352,1.64252 1.00101,2.48766 0.62149,2.1144 1.04551,4.29967 0.62449,6.4999 -0.42561,1.95471 -0.9432,3.33667 -3.03554,3.98713 -0.22186,0.0226 -0.4429,0.0801 -0.66555,0.0678 -1.42323,-0.0791 -2.71973,-1.10537 -3.67278,-2.06022 -1.38575,-1.82814 -1.88533,-3.48948 -1.74992,-5.79505 0.25616,-1.98431 0.54677,-3.37432 2.4698,-4.33745 1.59077,-0.60109 2.98353,-0.27843 4.50545,0.38217 0,0 -0.4176,0.27829 -0.4176,0.27829 z"
       id="path4674"
       style="fill:none;fill-opacity:1;stroke:#000000;stroke-width:1;stroke-linecap:square;stroke-linejoin:round;stroke-miterlimit:4;stroke-dasharray:none;stroke-opacity:1" />
    <path
       d="m 72.930778,808.68349 c 0.251179,2.27017 0.322416,4.5555 0.386651,6.83711 -0.0024,1.79526 0.216107,3.58117 0.430392,5.36085 -0.0545,0.004 0.18319,1.01153 0.133071,1.00028 -0.152609,-0.0343 -0.294233,-0.10623 -0.441349,-0.15934 -0.08709,-1.75864 -0.272406,-3.51407 -0.360971,-5.276 -0.0095,-1.84415 -0.222455,-3.70351 -0.0646,-5.54692 0.09956,-1.16265 0.225914,-1.49611 0.499162,-2.60466 0.55218,-1.92289 1.498335,-3.68137 2.821713,-5.17654 0.684747,-0.62564 1.646698,-1.64648 2.657929,-1.32407 0.929724,0.90273 1.336364,2.19206 1.734031,3.39155 0.462126,1.79661 0.874361,3.60503 1.388118,5.38795 0.437142,1.47029 1.204574,2.74192 2.344557,3.76085 0.732591,0.58044 1.573068,0.83221 2.485482,0.92758 0.253625,-0.0303 0.488314,-0.0233 0.70634,-0.18607 0.02661,-0.0199 -0.106279,-0.009 -0.09162,-0.0391 0.07208,-0.14652 0.209816,-0.25104 0.300981,-0.38651 0.285653,-0.4245 0.357,-0.62446 0.576303,-1.09128 0.584177,-1.87658 0.632834,-3.86429 0.69905,-5.81334 0.08047,-1.71574 -0.146842,-3.42548 -0.334751,-5.12741 -0.130421,-0.32235 0.08698,-1.07242 -0.282209,-1.26175 -0.22893,0.15968 0.119734,-0.11379 0.240169,0.16124 0.05943,0.13572 -0.06645,0.29003 -0.07657,0.43786 -0.04036,0.58969 0.07146,1.20808 0.131749,1.79219 0.234796,1.39791 0.600404,2.77155 1.178574,4.06648 0.57394,1.18024 1.434188,2.12753 2.550214,2.80579 0.729164,0.43246 1.551993,0.55356 2.382731,0.59863 0.856037,-0.0504 0.550398,0.12243 0.965901,-0.40974 0.469336,-0.57165 0.663535,-1.22537 0.775005,-1.94247 0.110673,-1.00132 0.101276,-2.01105 0.104151,-3.01704 -0.0096,-1.42003 -0.250552,-2.82763 -0.371258,-4.24204 -0.100056,-1.23141 -0.12869,-2.46673 -0.142476,-3.7016 0.01109,-0.9978 0.419748,-1.80695 1.000317,-2.58761 0.55614,-0.63548 1.297253,-1.04253 1.950087,-1.5609 0.203794,-0.1679 0.401929,-0.34308 0.583085,-0.53531 0.710923,-0.32679 -0.151652,0.21579 -0.271526,0.30267 -1.140935,1.01249 -1.57495,2.51139 -1.90807,3.94637 -0.327095,1.8723 -0.490146,3.77793 -0.208633,5.66268 0.299632,1.42653 1.040852,2.58705 2.23499,3.40835 0.976262,0.53007 2.077352,0.64638 3.168242,0.5662 0.56953,-0.0468 2.61583,-0.56918 2.88906,-1.03328 0.95462,-0.67455 1.57503,-1.61253 2.09931,-2.63467 0.45792,-1.21301 0.65435,-2.50318 0.98016,-3.7537 0.26592,-1.29294 0.78613,-2.50779 1.20404,-3.75361 0.44166,-1.00728 0.72759,-2.05454 0.87793,-3.14122 0.0395,-0.80985 0.20932,-1.65291 0.0536,-2.45732 -0.1176,-0.57382 -0.50148,-0.89344 -1.03988,-1.05157 -0.077,-0.0155 -0.15336,-0.0348 -0.23102,-0.0466 -0.58724,-0.0894 -1.36834,0.20547 -1.05604,0.14129 -0.80423,0.64486 -1.58229,1.3327 -2.15058,2.1981 -0.48157,0.87413 -0.55185,1.86679 -0.60016,2.84245 -0.10928,1.1924 0.007,2.31149 0.35834,3.4492 0.45641,1.1084 1.12436,2.14676 1.88733,3.07007 0.61857,0.79383 1.40132,1.39812 2.15298,2.05278 0.33985,0.3479 0.74139,0.54447 1.21749,0.59989 0.65854,0.0422 1.31972,0.0253 1.97927,0.0224 1.13355,0.0232 2.22177,-0.40284 3.22451,-0.89409 0.78586,-0.54324 1.50589,-1.18065 2.16187,-1.87395 0.24241,-0.33625 0.61212,-0.63627 0.74591,-1.04094 0.007,-0.0394 0.0137,-0.0788 0.0205,-0.11822 0,0 0.4541,-0.22245 0.4541,-0.22245 l 0,0 c -0.006,0.0413 -0.0119,0.0825 -0.0179,0.12382 -0.10407,0.41802 -0.50426,0.72248 -0.73956,1.06425 -0.87691,0.94145 -1.86956,1.78266 -3.01559,2.3792 -1.01072,0.48671 -2.1011,0.90589 -3.24005,0.87776 -0.66137,0.003 -1.32482,0.0224 -1.98487,-0.0264 -0.48154,-0.0655 -0.88856,-0.27418 -1.23261,-0.6256 -0.7526,-0.6571 -1.53529,-1.26561 -2.15532,-2.061 -0.76532,-0.92991 -1.43757,-1.9726 -1.89704,-3.08699 -0.35341,-1.14292 -0.47652,-2.26563 -0.36726,-3.46421 0.0468,-0.98219 0.11461,-1.9817 0.58884,-2.86634 0.56115,-0.87473 1.34077,-1.56226 2.14197,-2.21635 0.7533,-0.46674 1.28574,-0.82884 2.17133,-0.56211 0.54877,0.1746 0.94416,0.51082 1.06753,1.09833 0.16276,0.80868 -0.0102,1.65795 -0.0481,2.47319 -0.14767,1.08966 -0.428,2.14164 -0.87474,3.15006 -0.41568,1.24586 -0.94184,2.45806 -1.20602,3.75088 -0.3302,1.2521 -0.52515,2.54428 -0.97459,3.76296 -0.52068,1.02813 -1.13753,1.97399 -2.08974,2.6579 -1.15529,0.73028 -2.364,1.40972 -3.7578,1.51299 -1.10055,0.0704 -2.20763,-0.0493 -3.187482,-0.59391 -1.199297,-0.83573 -1.948979,-2.00591 -2.252501,-3.44525 -0.285094,-1.89014 -0.123094,-3.80073 0.200616,-5.67953 0.329544,-1.4413 0.759866,-2.94523 1.888311,-3.97666 0.284131,-0.20858 0.988216,-0.72235 1.205526,-0.6848 -0.17707,0.19896 -0.37911,0.37369 -0.582719,0.54493 -0.649552,0.52187 -1.39064,0.92429 -1.956214,1.54965 -0.582529,0.77024 -0.999324,1.56701 -1.015246,2.55839 0.01294,1.23407 0.04004,2.46863 0.138796,3.69933 0.119926,1.4157 0.361571,2.82412 0.374813,4.24512 -0.0022,1.0079 0.0081,2.01927 -0.09908,3.02284 -0.107873,0.7229 -0.292929,1.38555 -0.763087,1.96427 -0.419378,0.5811 -1.114066,0.96667 -1.837254,0.90243 -0.836581,-0.0497 -1.663063,-0.18086 -2.394816,-0.62027 -1.119937,-0.68929 -1.986548,-1.64343 -2.564503,-2.8323 -0.580743,-1.29946 -0.948141,-2.67764 -1.186448,-4.08019 -0.08084,-0.77179 -0.551128,-2.59181 0.571551,-2.89824 0.383372,0.24185 0.179085,0.93144 0.301346,1.30534 0.18415,1.70516 0.412477,3.41761 0.333311,5.13611 -0.06541,1.95412 -0.11595,3.94409 -0.686137,5.82935 -0.471624,1.01997 -1.080134,2.15247 -2.356868,2.20145 -0.919322,-0.10334 -1.76483,-0.36679 -2.500265,-0.95527 -1.142623,-1.02893 -1.916174,-2.30739 -2.356042,-3.78639 -0.514225,-1.78212 -0.925037,-3.59025 -1.387302,-5.38616 -0.391821,-1.1811 -0.790593,-2.46483 -1.714251,-3.3473 -0.09924,-0.0274 -0.198471,-0.0548 -0.297706,-0.0823 -0.09978,0.0127 -0.202154,0.0639 -0.299354,0.038 -0.03999,-0.0106 0.115314,-0.1135 0.0773,-0.0971 -0.49028,0.21105 -0.888635,0.62714 -1.263198,0.98812 -1.331215,1.48409 -2.279069,3.23961 -2.836729,5.15696 -0.275181,1.10132 -0.404308,1.44039 -0.505067,2.59596 -0.160588,1.84173 0.05435,3.69999 0.06437,5.5425 0.08983,1.76176 0.275703,3.51663 0.371082,5.27459 -0.746186,1.0234 -0.399524,0.55422 -0.58361,-0.38079 -0.20912,-1.78269 -0.42823,-3.5709 -0.425326,-5.36854 -0.06322,-2.27897 -0.132537,-4.56217 -0.392048,-6.8289 0,0 0.443994,-0.23323 0.443994,-0.23323 z"
       id="path4676"
       style="fill:none;fill-opacity:1;stroke:#000000;stroke-width:1;stroke-linecap:square;stroke-linejoin:round;stroke-miterlimit:4;stroke-dasharray:none;stroke-opacity:1" />
    <path
       d="m 131.47824,774.58649 c 0.99154,-1.46151 2.40157,-2.56558 3.82081,-3.58602 1.70552,-1.18667 3.23107,-2.04167 5.34408,-2.00944 2.33563,0.42868 3.84756,2.31608 5.21451,4.10569 1.97246,2.6902 3.26813,5.78271 4.30261,8.93273 0.80101,2.72511 1.20453,5.59811 0.43531,8.38177 -0.14695,0.53175 -0.36665,1.04067 -0.54997,1.561 -1.27656,3.02541 -3.28634,5.42835 -5.92882,7.33879 -1.86312,1.09243 -4.07023,2.07051 -6.29729,1.85626 -0.37753,-0.0363 -0.74418,-0.14692 -1.11626,-0.22038 -3.09099,-1.13674 -4.38222,-4.03675 -5.48606,-6.90959 -0.54335,-2.1009 -1.57974,-4.85998 -1.28024,-7.0618 0.32918,-0.57891 0.0806,-0.27088 0.90859,-0.76442 0,0 -0.39119,0.31659 -0.39119,0.31659 l 0,0 c 0.23745,-0.1649 0.16287,-0.13888 -0.0683,0.22695 -0.3262,2.17778 0.72197,4.96567 1.25615,7.0461 1.09769,2.85765 2.38346,5.74738 5.46636,6.8634 0.37017,0.0708 0.73515,0.17859 1.11051,0.21251 1.87885,0.16976 3.80649,-0.5378 5.44118,-1.38511 2.67758,-1.91914 4.63532,-4.2656 5.94289,-7.31251 0.18439,-0.51837 0.40506,-1.02523 0.55316,-1.55511 0.77557,-2.77498 0.37455,-5.64088 -0.4231,-8.35952 -1.03163,-3.1452 -2.32586,-6.23265 -4.29781,-8.91655 -1.36077,-1.77742 -2.86698,-3.65804 -5.19521,-4.06472 -1.68642,-0.0114 -3.13557,0.51138 -4.47974,1.53499 -1.4173,1.01521 -2.83059,2.11117 -3.8222,3.56712 0,0 -0.46,0.20126 -0.46,0.20126 z"
       id="path4678"
       style="fill:none;fill-opacity:1;stroke:#000000;stroke-width:1;stroke-linecap:square;stroke-linejoin:round;stroke-miterlimit:4;stroke-dasharray:none;stroke-opacity:1" />
    <path
       d="m 140.81594,771.67179 c -0.0645,2.91448 0.18097,5.82098 0.50165,8.7146 0.58746,4.09223 1.31007,8.17214 2.20668,12.20857 0.56397,1.84385 0.69982,4.238 1.76768,5.89207 0.26923,0.17139 0.24489,0.0908 -0.12818,0.21773 0,0 0.46738,-0.19101 0.46738,-0.19101 l 0,0 c -0.65114,0.39849 -0.39898,0.49079 -0.77308,0.22644 -1.0623,-1.67257 -1.19993,-4.05621 -1.76211,-5.9151 -0.89359,-4.03894 -1.61576,-8.12053 -2.20767,-12.21392 -0.32421,-2.89263 -0.57207,-5.7978 -0.51925,-8.71168 0,0 0.4469,-0.2277 0.4469,-0.2277 z"
       id="path4680"
       style="fill:none;fill-opacity:1;stroke:#000000;stroke-width:1;stroke-linecap:square;stroke-linejoin:round;stroke-miterlimit:4;stroke-dasharray:none;stroke-opacity:1" />
    <path
       d="m 157.71569,772.08192 c -1.43562,0.46476 -2.31694,1.61789 -2.97286,2.92357 -0.69104,1.73511 -0.75868,3.52361 -0.32965,5.32075 0.30824,1.30855 0.9026,2.42284 2.08223,3.10065 1.05324,0.43972 1.58177,0.22972 2.37834,-0.43673 0.96771,-0.93406 1.0965,-2.22343 1.20897,-3.49425 0.0924,-1.87792 -0.36274,-3.64118 -1.01162,-5.38024 -0.28398,-0.76395 -0.5592,-1.54755 -1.1956,-2.08927 0.13505,0.0217 -0.22167,-0.11099 -0.16074,-0.0968 0.12488,0.029 0.29499,-1.4e-4 0.3704,0.10354 0.0852,0.1171 0.007,0.28974 0.0205,0.43392 0.0476,0.51281 0.067,0.49578 0.20402,1.00501 0.44274,1.25037 1.15002,2.36887 1.76562,3.53373 0.60659,1.30958 1.48679,2.42376 2.42763,3.50091 0.58101,0.64216 1.30199,1.06683 2.14412,1.24473 0.58361,0.0966 1.1405,0.1374 1.67084,-0.14828 -0.0417,0.006 -0.14493,0.0545 -0.12508,0.0173 0.0649,-0.12134 0.19541,-0.19501 0.27871,-0.30454 0.40016,-0.5262 0.65869,-1.14702 0.86711,-1.76669 0.44627,-1.55798 0.33883,-3.17723 0.12055,-4.7614 -0.22779,-1.45686 -0.53813,-2.90444 -1.0055,-4.30401 -0.24596,-0.62449 -0.46815,-1.25824 -0.67274,-1.89743 -0.10063,-0.33276 -0.1404,-0.21762 0.38203,-0.27876 -0.0336,0.92013 0.0259,1.82649 0.14656,2.73816 0.27035,1.27984 0.83498,2.50369 1.61785,3.54943 0.56868,0.78428 1.36669,1.00096 2.28025,1.10317 1.05099,0.163 1.98823,-0.1425 2.93352,-0.56924 0.93252,-0.48346 1.60673,-1.31992 2.17286,-2.18739 0.79591,-1.36732 0.94628,-2.95548 0.94365,-4.5061 -0.0141,-1.70277 -0.29397,-3.37262 -0.77063,-5.00257 -0.21009,-0.81616 -0.59034,-1.57652 -0.96423,-2.32831 -0.42025,-0.48375 0.27351,-0.74324 0.2571,-0.0703 -0.0785,1.03144 0.28756,2.00351 0.595,2.97117 0.55769,2.1217 1.09383,4.25026 1.58849,6.38776 0.61435,2.66458 1.47561,5.26001 2.19644,7.89615 0.78231,2.88694 0.99714,5.87207 1.13166,8.84646 0.0658,2.97278 0.15603,5.95098 0.0239,8.92274 -0.0475,2.19112 -0.45973,4.31046 -1.50175,6.24335 -0.78682,1.17926 -1.98293,1.94916 -3.32363,2.3715 -1.48813,0.24955 -2.30829,-0.94531 -3.07323,-2.02501 -1.32996,-1.91457 -1.74242,-4.17777 -1.88186,-6.45735 0.0302,-2.99305 0.78747,-5.90953 1.70261,-8.73914 0.94589,-3.1436 2.78939,-5.86508 4.56476,-8.58498 1.95242,-3.05635 4.07225,-6.00954 5.78072,-9.21309 0.62574,-1.28061 0.36792,-0.67171 0.7996,-1.81541 0,0 0.45114,-0.20975 0.45114,-0.20975 l 0,0 c -0.43287,1.15065 -0.17401,0.53885 -0.80301,1.824 -1.70906,3.20592 -3.8309,6.16034 -5.7838,9.21918 -1.77248,2.71668 -3.61745,5.43276 -4.56551,8.57114 -0.9186,2.82332 -1.67427,5.73408 -1.70924,8.7219 0.1365,2.27044 0.54596,4.52536 1.87276,6.43092 0.75825,1.06628 1.56924,2.24512 3.04107,1.97066 0.18944,-0.0618 0.40085,-0.0583 0.5795,-0.14653 0.77358,-0.38202 1.4111,-1.01176 1.89418,-1.7145 1.05164,-1.92399 1.46776,-4.038 1.51679,-6.22576 0.13622,-2.97053 0.044,-5.94776 -0.0205,-8.91947 -0.13353,-2.97089 -0.3464,-5.95274 -1.12736,-8.83642 -0.72157,-2.63647 -1.58314,-5.2323 -2.19874,-7.89711 -0.49495,-2.13555 -1.03263,-4.26189 -1.59212,-6.38121 -0.31067,-0.97104 -0.68195,-1.94763 -0.60743,-2.98337 0.008,-0.42461 0.48864,-1.06661 0.63106,-0.407 0.3723,0.75602 0.75391,1.51923 0.9638,2.33864 0.47613,1.63494 0.75973,3.30843 0.77504,5.01604 0.007,1.55669 -0.13966,3.15317 -0.92855,4.53082 -0.76403,1.18819 -1.7185,2.09674 -3.02292,2.69945 -0.95268,0.42119 -1.89623,0.71557 -2.95056,0.5485 -0.9243,-0.10984 -1.72852,-0.34472 -2.30113,-1.13827 -0.78549,-1.05411 -1.35487,-2.28448 -1.62981,-3.57191 -0.12212,-0.91275 -0.18642,-1.81988 -0.15408,-2.74145 0.53011,-0.49308 0.39054,-0.57348 0.51079,-0.19387 0.20124,0.64029 0.42262,1.2744 0.66797,1.89917 0.46885,1.40248 0.77756,2.85411 1.00649,4.31395 0.22109,1.58947 0.33287,3.2145 -0.10662,4.77994 -0.3524,1.07808 -0.82391,2.03246 -1.86668,2.58161 -0.54186,0.26327 -1.10704,0.22377 -1.69158,0.12056 -0.84763,-0.19042 -1.57382,-0.62377 -2.15868,-1.27347 -0.94216,-1.08083 -1.82318,-2.19946 -2.4323,-3.51155 -0.61769,-1.16788 -1.32722,-2.28919 -1.77305,-3.54228 -0.0583,-0.21356 -0.6831,-2.64534 0.43473,-1.95186 0.63498,0.55549 0.91896,1.33977 1.20183,2.11481 0.65,1.74567 1.1089,3.51489 1.02239,5.39949 -0.10837,1.27748 -0.23165,2.57855 -1.19047,3.52873 -0.94848,0.8125 -2.03243,1.47422 -3.26297,0.89741 -1.18374,-0.69413 -1.78886,-1.81544 -2.09931,-3.13751 -0.43402,-1.80645 -0.37134,-3.60341 0.31403,-5.35167 0.82156,-1.6662 2.04044,-2.80969 3.82377,-3.43496 0,0 -0.3978,0.30629 -0.3978,0.30629 z"
       id="path4682"
       style="fill:none;fill-opacity:1;stroke:#000000;stroke-width:1;stroke-linecap:square;stroke-linejoin:round;stroke-miterlimit:4;stroke-dasharray:none;stroke-opacity:1" />
    <path
       d="m 181.5573,727.55081 c 1.0188,2.75925 1.79303,5.60355 2.60897,8.42831 0.9782,3.58345 2.07609,7.13427 3.25398,10.65706 0.69432,1.64054 0.9498,3.43161 1.5405,5.10043 0.12216,0.24706 0.22928,0.55938 0.48163,0.70338 0,0 -0.42245,0.27969 -0.42245,0.27969 l 0,0 c -0.25111,-0.17476 -0.37646,-0.46829 -0.49853,-0.74009 -0.58835,-1.67075 -0.83462,-3.46553 -1.52936,-5.10755 -1.17511,-3.52463 -2.27128,-7.07678 -3.252,-10.6604 -0.81707,-2.82194 -1.59138,-5.66456 -2.62085,-8.41742 0,0 0.43811,-0.24341 0.43811,-0.24341 z"
       id="path4684"
       style="fill:none;fill-opacity:1;stroke:#000000;stroke-width:1;stroke-linecap:square;stroke-linejoin:round;stroke-miterlimit:4;stroke-dasharray:none;stroke-opacity:1" />
    <path
       d="m 195.17257,766.88441 c -0.66844,0.0378 -1.40046,0.16566 -1.95006,0.58782 -0.0677,0.052 -0.68444,1.30878 -0.73508,1.42473 -0.45481,1.18658 -0.29973,2.26988 0.55143,3.19875 0.42563,0.35494 1.07062,0.48091 1.51374,0.0402 0.0386,-0.0384 -0.0543,-0.11181 -0.0302,-0.16067 0.10289,-0.20849 0.26241,-0.38387 0.39362,-0.57581 0.91098,-1.5862 0.93461,-3.26651 0.4255,-4.97792 -0.22676,-0.58705 -0.57106,-1.0558 -1.00466,-1.49769 0,0 0.42777,-0.2614 0.42777,-0.2614 l 0,0 c 0.43613,0.45004 0.78446,0.92613 1.0136,1.5204 0.51378,1.72188 0.4999,3.41355 -0.4048,5.0168 -0.61408,0.92048 -1.67887,2.0359 -2.7639,1.15641 -0.85646,-0.94509 -1.03087,-2.04397 -0.57568,-3.25079 0.15483,-0.36326 0.36378,-0.95244 0.65605,-1.24344 0.78907,-0.78564 1.78681,-1.23047 2.88841,-1.27222 0,0 -0.40577,0.29481 -0.40577,0.29481 z"
       id="path4686"
       style="fill:none;fill-opacity:1;stroke:#000000;stroke-width:1;stroke-linecap:square;stroke-linejoin:round;stroke-miterlimit:4;stroke-dasharray:none;stroke-opacity:1" />
    <path
       d="m 85.716992,790.39872 c -1.368156,0.58874 -2.314537,1.7553 -3.021698,3.03038 -0.596804,1.41229 0.243715,2.33956 1.449959,2.96529 0.774387,0.31388 1.641004,0.51993 2.405993,0.0619 0.02911,-0.0174 -1.28e-4,-0.0715 0.01805,-0.10017 0.107083,-0.16877 0.235356,-0.32313 0.353034,-0.48469 0.570474,-1.15758 0.742149,-2.49751 0.663641,-3.77685 -0.06265,-0.41716 -0.14126,-1.31004 -0.735637,-1.28318 0,0 0.409596,-0.29551 0.409596,-0.29551 l 0,0 c 0.618056,0.0644 0.701538,0.86089 0.770718,1.34858 0.08302,1.28813 -0.09103,2.6358 -0.649413,3.80787 -0.967364,1.38789 -2.157558,1.61038 -3.653663,0.99577 -1.220541,-0.64416 -2.078371,-1.59779 -1.48722,-3.03537 0.883183,-1.61379 2.143007,-2.82872 3.870357,-3.54518 0,0 -0.393715,0.31116 -0.393715,0.31116 z"
       id="path4688"
       style="fill:none;fill-opacity:1;stroke:#000000;stroke-width:1;stroke-linecap:square;stroke-linejoin:round;stroke-miterlimit:4;stroke-dasharray:none;stroke-opacity:1" />
    <path
       d="m 152.63266,824.87864 c -2.25625,-1.66736 -4.6691,-3.08699 -7.20806,-4.27367 -3.78957,-1.64585 -7.86865,-2.13281 -11.96018,-2.14168 -4.4223,0.20575 -7.82134,1.369 -11.64837,3.50121 -3.65753,2.40154 -6.11391,5.74547 -8.3412,9.43189 -2.74966,4.69581 -4.01532,9.81721 -4.86261,15.13489 -0.5574,4.67954 -0.2488,9.47759 1.1276,14.00073 0.27758,0.91219 0.6438,1.79501 0.9657,2.69252 1.77093,4.32314 4.32619,8.32046 8.05538,11.21302 0.71932,0.55795 1.50784,1.02046 2.26175,1.53069 4.621,2.57811 9.90441,3.55692 15.14942,3.77316 1.1862,0.0489 2.37441,0.007 3.56162,0.01 5.38514,-0.21717 10.82036,-0.7508 15.99672,-2.33644 0.84946,-0.26021 1.67538,-0.59182 2.51307,-0.88772 3.43274,-1.43264 6.59176,-3.49564 9.11862,-6.2467 0.51359,-0.55915 0.96844,-1.16954 1.45266,-1.7543 2.7562,-3.65808 4.19333,-8.04746 4.63549,-12.58286 0.10833,-1.11121 0.10696,-2.23039 0.16044,-3.34559 -0.0226,-5.58212 -1.10809,-11.17165 -3.72323,-16.14324 -0.45545,-0.86586 -1.00616,-1.67817 -1.50925,-2.51725 -1.98667,-2.82055 -4.47149,-5.3219 -7.61194,-6.83901 -1.81276,-0.87573 -2.72536,-1.01589 -4.66247,-1.52649 -4.18417,-0.79329 -8.32999,0.0411 -12.40425,0.9875 0,0 0.38371,-0.29234 0.38371,-0.29234 l 0,0 c 4.0789,-0.94094 8.22928,-1.76835 12.41528,-0.96665 1.94157,0.51469 2.85365,0.65568 4.67003,1.53684 3.14403,1.52521 5.6315,4.03482 7.61963,6.86256 0.50337,0.84089 1.05441,1.65502 1.51012,2.52266 2.61519,4.97911 3.70366,10.57551 3.73142,16.1644 -0.052,1.11624 -0.0492,2.23639 -0.156,3.34874 -0.43581,4.53917 -1.86478,8.93634 -4.61609,12.60233 -0.48343,0.58625 -0.93736,1.19812 -1.4503,1.75874 -2.73106,2.98488 -6.25369,5.13127 -9.94,6.7239 -0.83785,0.2944 -1.66407,0.62429 -2.51355,0.88321 -5.17811,1.57825 -10.61283,2.10826 -15.99784,2.32196 -1.18814,-0.004 -2.37732,0.0374 -3.56443,-0.0123 -5.25333,-0.21965 -10.54392,-1.20132 -15.17007,-3.78851 -0.75502,-0.51197 -1.54468,-0.97622 -2.26505,-1.5359 -3.73272,-2.90007 -6.29189,-6.90444 -8.06618,-11.23432 -0.32275,-0.89881 -0.6899,-1.7829 -0.96826,-2.69644 -1.37964,-4.52789 -1.69081,-9.33211 -1.13704,-14.01747 0.85033,-5.35633 2.09533,-10.4114 4.8511,-15.14982 2.43803,-4.04793 5.01239,-7.47804 9.15692,-9.93045 3.83256,-2.12499 7.23848,-3.28278 11.66236,-3.48086 4.09737,0.0146 8.18166,0.50674 11.97576,2.15656 2.54248,1.19042 4.9582,2.61248 7.22449,4.27377 0,0 -0.42292,0.26887 -0.42292,0.26887 z"
       id="path4696"
       style="fill:none;fill-opacity:1;stroke:#000000;stroke-width:1;stroke-linecap:square;stroke-linejoin:round;stroke-miterlimit:4;stroke-dasharray:none;stroke-opacity:1" />
    <path
       d="m 125.27474,857.80019 c 0.72274,1.63642 1.64139,3.16385 2.68589,4.61201 0.87432,1.1652 1.96311,2.1632 3.10889,3.05695 1.11484,0.78831 2.30263,1.45961 3.52502,2.06411 1.17186,0.53556 2.36156,1.02639 3.58417,1.43344 1.33778,0.4204 2.6959,0.72081 4.08539,0.9023 1.16075,0.13583 2.33005,0.15567 3.49728,0.16506 1.25471,0.0615 2.48767,-0.0416 3.71557,-0.29738 1.61898,-0.46504 3.18471,-1.11188 4.68541,-1.87487 1.15346,-0.54543 2.08916,-1.33722 3.01314,-2.19812 0.91694,-0.84503 1.66214,-1.85273 2.23137,-2.95834 0.7759,-1.57765 1.24219,-3.30099 1.66741,-5.00202 0.34918,-1.55893 0.50346,-3.15067 0.57942,-4.74357 -0.0335,-0.43397 0.21015,-1.06227 -0.20037,-1.37136 -0.0817,-0.0494 -0.14968,-0.0513 -0.24309,-0.0539 0,0 0.41124,-0.29449 0.41124,-0.29449 l 0,0 c 0.10043,0.0108 0.17514,0.0202 0.25997,0.079 0.41751,0.34302 0.20064,0.94514 0.21948,1.41551 -0.077,1.59645 -0.23311,3.19156 -0.57965,4.75458 -0.4233,1.70301 -0.88851,3.42898 -1.65879,5.0105 -0.56227,1.11219 -1.30916,2.1243 -2.22459,2.97433 -1.15986,1.08656 -2.44631,1.97221 -3.86371,2.69866 -1.50417,0.75936 -3.07166,1.40819 -4.69475,1.86537 -1.231,0.25088 -2.46697,0.35062 -3.72367,0.29021 -1.16803,-0.0104 -2.3381,-0.0322 -3.49933,-0.17114 -1.39122,-0.18494 -2.75179,-0.4878 -4.09137,-0.90978 -1.22341,-0.4102 -2.41504,-0.90081 -3.58751,-1.43944 -1.22489,-0.60633 -2.41416,-1.28167 -3.53089,-2.07247 -1.14721,-0.89932 -2.23917,-1.89939 -3.11392,-3.07036 -1.04553,-1.45186 -1.96393,-2.98309 -2.69555,-4.61911 0,0 0.43755,-0.24574 0.43755,-0.24574 z"
       id="path4698"
       style="fill:none;fill-opacity:1;stroke:#000000;stroke-width:1;stroke-linecap:square;stroke-linejoin:round;stroke-miterlimit:4;stroke-dasharray:none;stroke-opacity:1" />
    <path
       d="m 135.3919,842.94525 c -1.12058,0.66869 -2.23993,1.40015 -3.06019,2.4282 -0.50644,0.80429 -0.73515,1.65624 -0.22965,2.49949 0.549,0.61884 1.28463,0.75311 2.0668,0.83816 0.28851,-0.0325 0.49003,-0.0267 0.75396,-0.17881 0.0258,-0.0149 -0.0941,-0.0115 -0.0807,-0.0381 0.0719,-0.14362 0.20711,-0.24699 0.29186,-0.38344 0.21698,-0.34938 0.26121,-0.55412 0.39243,-0.94133 0.18346,-0.75961 0.36516,-1.66684 -0.0666,-2.37622 -0.27608,-0.33513 -0.56744,-0.35877 -0.94005,-0.19805 -0.1875,0.10507 -0.39555,0.16172 -0.59929,0.22523 0,0 0.39895,-0.30897 0.39895,-0.30897 l 0,0 c 0.2029,-0.0652 0.40758,-0.12845 0.59678,-0.22877 0.39056,-0.15508 0.70715,-0.0797 0.97974,0.25754 0.43651,0.72435 0.27055,1.638 0.0841,2.41622 -0.34664,1.05465 -0.98132,2.01937 -2.22121,2.04566 -0.79609,-0.0916 -1.53887,-0.24277 -2.09147,-0.87725 -0.51458,-0.86094 -0.30715,-1.72409 0.20382,-2.55426 0.80979,-1.03809 1.93074,-1.775 3.05317,-2.44239 0,0 0.46758,-0.18295 0.46758,-0.18295 z"
       id="path4706"
       style="fill:none;fill-opacity:1;stroke:#000000;stroke-width:1;stroke-linecap:square;stroke-linejoin:round;stroke-miterlimit:4;stroke-dasharray:none;stroke-opacity:1" />
    <path
       d="m 146.21605,843.62096 c -0.48289,1.04688 -0.80675,2.28954 -0.29955,3.37944 0.78034,0.87629 1.98657,0.61666 2.97008,0.29243 1.0705,-0.41826 1.80287,-1.22359 2.28034,-2.24888 0.34624,-1.4012 -0.60866,-2.35259 -1.72335,-3.00767 -0.98417,-0.43437 -2.05419,-0.7252 -3.10749,-0.4211 -0.12855,0.0754 -0.28131,0.11989 -0.38566,0.22632 -0.0291,0.0297 0.12788,0.0113 0.11415,0.0506 -0.0426,0.12205 -0.16846,0.19716 -0.23864,0.30573 -0.1771,0.27395 -0.27566,0.58407 -0.36889,0.89295 -0.0217,0.19682 -0.22023,0.50355 0.0355,0.56597 0,0 -0.41823,0.28486 -0.41823,0.28486 l 0,0 c -0.28526,-0.10715 -0.11347,-0.39805 -0.0727,-0.63511 0.27694,-0.94289 0.78783,-1.58748 1.7324,-1.99712 1.06517,-0.28186 2.14138,0.01 3.12906,0.45517 1.131,0.674 2.09042,1.64675 1.75961,3.07142 -0.62277,1.37346 -1.72974,2.20277 -3.13076,2.76296 -1.01046,0.32075 -2.22922,0.55479 -3.01253,-0.35124 -0.51229,-1.10078 -0.20777,-2.3555 0.28076,-3.4172 0,0 0.45598,-0.20954 0.45598,-0.20954 z"
       id="path4708"
       style="fill:none;fill-opacity:1;stroke:#000000;stroke-width:1;stroke-linecap:square;stroke-linejoin:round;stroke-miterlimit:4;stroke-dasharray:none;stroke-opacity:1" />
    <path
       d="m 49.665787,730.14989 c 0.501056,3.71679 1.365013,7.35808 2.250014,10.99752 1.312556,4.95024 2.792012,9.858 4.331197,14.74246 0.835347,2.12232 1.135028,4.42414 1.97329,6.54048 0.0774,0.1504 0.130358,0.40741 0.324894,0.45505 0,0 -0.419784,0.28271 -0.419784,0.28271 l 0,0 c -0.198697,-0.0952 -0.258616,-0.29846 -0.342942,-0.49357 -0.831234,-2.12181 -1.126078,-4.42619 -1.958266,-6.55275 -1.533873,-4.88753 -3.011915,-9.79684 -4.329085,-14.7472 -0.887864,-3.63676 -1.754923,-7.27511 -2.270393,-10.98768 0,0 0.441075,-0.23702 0.441075,-0.23702 z"
       id="path4752"
       style="fill:#000000;fill-opacity:1;stroke:#000000;stroke-width:1;stroke-linecap:square;stroke-linejoin:round;stroke-miterlimit:4;stroke-dasharray:none;stroke-opacity:1" />
    <path
       d="m 55.19878,746.62745 c 3.508006,-1.20697 6.845937,-2.85016 10.152652,-4.51852 0.547645,-0.27206 1.094791,-0.54513 1.642935,-0.81618 0.769384,-0.38046 1.590844,-0.78238 2.367077,-1.15967 0.422202,-0.20521 0.852956,-0.39336 1.268409,-0.61191 0.06671,-0.0351 -0.139381,0.0575 -0.209072,0.0862 0,0 0.468433,-0.18584 0.468433,-0.18584 l 0,0 c -1.866056,1.1805 -3.994147,1.90395 -5.915287,2.98959 -3.312783,1.66954 -6.656956,3.31372 -10.170834,4.52184 0,0 0.395687,-0.30549 0.395687,-0.30549 z"
       id="path4754"
       style="fill:#000000;fill-opacity:1;stroke:#000000;stroke-width:1;stroke-linecap:square;stroke-linejoin:round;stroke-miterlimit:4;stroke-dasharray:none;stroke-opacity:1" />
    <path
       d="m 61.209487,722.99523 c 0.455999,4.17706 1.721383,8.20912 2.951682,12.20875 1.755213,5.78308 3.956031,11.40946 6.108657,17.05097 0.575252,1.47819 1.167957,2.94959 1.780965,4.41253 0.194271,0.46362 0.477936,0.95757 0.4859,1.47505 0,0 -0.450004,0.22868 -0.450004,0.22868 l 0,0 c 0.01923,-0.50188 -0.283115,-1.01889 -0.466803,-1.46247 -0.607262,-1.46645 -1.196168,-2.94047 -1.769342,-4.42058 -2.14317,-5.64652 -4.343032,-11.27468 -6.103319,-17.05743 -1.236081,-4.00073 -2.502998,-8.03173 -2.984634,-12.20779 0,0 0.446898,-0.22771 0.446898,-0.22771 z"
       id="path4756"
       style="fill:#000000;fill-opacity:1;stroke:#000000;stroke-width:1;stroke-linecap:square;stroke-linejoin:round;stroke-miterlimit:4;stroke-dasharray:none;stroke-opacity:1" />
    <path
       d="m 79.167361,736.57997 c -0.830047,1.15249 -1.653221,2.33292 -2.255424,3.62345 -0.41741,1.05523 -0.525914,2.20183 -0.441831,3.32586 0.04503,1.07346 0.593722,1.9212 1.202425,2.75796 0.417355,0.53487 0.936239,0.84261 1.587872,0.98765 0.749534,0.12178 1.044707,-0.2714 1.383874,-0.63391 0.827131,-0.92197 1.111153,-2.06155 1.282547,-3.25359 0.06694,-1.62883 -0.408085,-3.19679 -1.00537,-4.69188 -0.280661,-0.70689 -0.560414,-1.41413 -0.837145,-2.12257 0.05142,0.0188 -0.113191,-0.16318 -0.0594,-0.15308 0.744416,0.13973 0.55864,0.31929 0.873313,0.95982 0.728772,1.29954 1.731451,2.41404 2.793804,3.44719 1.159924,0.96748 2.468859,1.77912 3.832948,2.42859 0.702085,0.23915 1.462282,0.65744 2.180692,0.30871 -0.06196,0.0103 -0.189595,0.0936 -0.185879,0.0309 0.0071,-0.11943 0.144872,-0.19161 0.201643,-0.29692 0.06255,-0.11602 0.114512,-0.23838 0.154615,-0.36394 0.161592,-0.50594 0.194752,-1.04602 0.242856,-1.57066 0.124204,-1.54732 -0.295667,-3.07454 -0.809087,-4.5194 -0.54022,-1.16255 -1.102608,-2.31368 -1.479704,-3.54145 -0.142154,-0.25203 -0.03516,-0.77866 -0.339702,-0.89667 -0.279992,-0.0178 0.206817,-0.13037 0.308318,-0.0949 0.07773,0.0272 0.03256,0.16282 0.06613,0.23801 0.206606,0.46276 0.550069,0.86275 0.866826,1.24908 1.028626,1.10708 2.077353,2.20514 3.219642,3.19604 0.717041,0.67581 1.509261,1.28656 2.336931,1.82221 0.265248,0.15961 0.541779,0.3008 0.835234,0.39963 0.210622,0.0264 -0.280855,0.0715 -0.380351,-0.0387 -0.01394,-0.0154 0.0028,-1.3377 0.0026,-1.43473 -0.0037,-1.21206 -0.0072,-2.42412 -0.0092,-3.63619 -0.0015,-1.0561 -0.0017,-2.11219 -0.0018,-3.16829 -6.33e-4,-0.7049 -4.58e-4,-1.40979 -0.0013,-2.11469 -0.0058,-0.58788 -0.10473,-0.45213 0.614004,-0.70948 0.585249,0.26566 1.225254,0.32693 1.857537,0.38224 0.981542,0.09 1.948047,0.0791 2.919311,-0.08 0.56109,-0.19958 1.27895,-0.31296 1.7408,-0.72862 0.0347,-0.0312 -0.15255,0.0538 -0.13978,0.009 0.0329,-0.11577 0.14592,-0.19145 0.21888,-0.28718 0.35858,-0.55208 0.38959,-1.19678 0.41004,-1.83396 -0.0422,-0.61845 -0.31734,-1.11869 -0.71999,-1.57188 -0.17778,-0.18684 -0.47419,-0.28126 -0.70628,-0.16232 0.0976,-0.0366 0.22301,-0.18732 0.29286,-0.10991 0.0658,0.0729 -0.13321,0.14574 -0.18552,0.22885 -0.0727,0.11545 -0.12611,0.24194 -0.18746,0.36378 -0.25431,0.50499 -0.46975,1.02279 -0.6893,1.54364 -0.489233,1.13821 -0.723955,2.34732 -0.850911,3.57243 -0.172719,1.28392 0.338427,2.40495 1.079741,3.41642 0.98707,1.23604 2.2493,2.18322 3.53479,3.08288 0.83503,0.5606 1.72114,1.01374 2.71522,1.18749 0.83357,0.13672 1.17883,-0.24784 1.74107,-0.79447 0.68642,-0.94649 1.48808,-1.81078 2.09977,-2.80975 0.18871,-0.35258 0.37921,-0.71253 0.48523,-1.1005 0.007,-0.0177 0.007,-0.0367 0.0107,-0.0551 0,0 0.45349,-0.22629 0.45349,-0.22629 l 0,0 c -0.002,0.0208 0.003,0.0432 -0.007,0.0631 -0.099,0.39444 -0.29706,0.75758 -0.48322,1.11564 -0.60602,1.00601 -1.41855,1.86436 -2.09556,2.82146 -0.68795,0.68523 -1.58324,1.44832 -2.6161,1.27409 -0.99691,-0.18377 -1.88593,-0.64314 -2.72374,-1.20787 -1.28892,-0.90375 -2.55359,-1.85663 -3.543621,-3.09663 -0.746785,-1.0196 -1.26957,-2.15286 -1.09892,-3.44778 0.125272,-1.22924 0.357375,-2.44307 0.845344,-3.58616 0.400087,-0.95335 0.671217,-2.01117 1.620537,-2.54802 0.26217,-0.0822 0.55398,0.009 0.74132,0.21384 0.40746,0.46466 0.68856,0.97648 0.73667,1.60603 -0.0183,0.64416 -0.0453,1.29788 -0.3971,1.86161 -0.60942,0.84676 -1.71494,1.23356 -2.68239,1.50731 -0.973777,0.15538 -1.944493,0.1594 -2.927488,0.0705 -0.635154,-0.0575 -1.272444,-0.12787 -1.863279,-0.38569 0.42778,-0.50759 0.205797,-0.17331 0.250043,0.19238 -9.24e-4,0.70535 -8.3e-4,1.41071 -0.0014,2.11607 1.9e-5,1.05619 1.4e-5,2.11237 0.0011,3.16855 0.0015,1.21196 0.0041,2.42393 0.0096,3.63588 7.77e-4,0.23664 0.08585,1.24403 2.79e-4,1.43489 -0.09757,0.21762 -0.293179,0.37626 -0.439769,0.56439 -0.01597,-0.004 -0.03235,-0.008 -0.04792,-0.0133 -0.296342,-0.10006 -0.571104,-0.25536 -0.839878,-0.41282 -0.82594,-0.542 -1.620576,-1.15047 -2.337105,-1.83028 -1.142372,-0.99503 -2.19411,-2.09364 -3.22468,-3.20279 -0.202019,-0.24594 -1.733897,-1.98599 -0.391115,-1.92894 0.317054,0.16071 0.221334,0.64426 0.358724,0.93531 0.372642,1.22869 0.934139,2.37983 1.474427,3.54177 0.516408,1.45008 0.940272,2.9836 0.821918,4.53699 -0.101127,1.13814 -0.149061,2.14235 -1.255851,2.73694 -0.736967,0.31023 -1.496203,-0.0984 -2.203681,-0.34606 -1.365396,-0.65706 -2.678086,-1.47018 -3.838882,-2.44403 -1.066204,-1.03762 -2.073182,-2.15572 -2.806033,-3.45973 -0.393089,-0.79418 -0.544541,-0.65232 0.0052,-1.45378 0.03092,-0.0451 0.03425,0.20255 0.05808,0.15335 0.272665,0.71016 0.550979,1.41815 0.830887,2.12548 0.598606,1.50334 1.077216,3.07747 1.018137,4.7145 -0.167341,1.19807 -0.444737,2.34716 -1.267952,3.27988 -0.538783,0.60552 -1.408391,1.22818 -2.261018,1.11511 -0.658557,-0.15545 -1.183985,-0.4775 -1.605562,-1.01913 -0.613097,-0.84388 -1.165755,-1.70189 -1.214488,-2.7829 -0.08932,-1.13039 0.01814,-2.28503 0.430791,-3.34892 0.59746,-1.29546 1.425855,-2.47467 2.248922,-3.63485 0,0 0.461746,-0.19618 0.461746,-0.19618 z"
       id="path4758"
       style="fill:#000000;fill-opacity:1;stroke:#000000;stroke-width:1;stroke-linecap:square;stroke-linejoin:round;stroke-miterlimit:4;stroke-dasharray:none;stroke-opacity:1" />
    <path
       transform="translate(37.154807,692.9616)"
       id="path4766"
       d="m 94.587734,155.39918 c -0.953306,-0.95331 -0.957075,-0.99712 -0.206919,-2.40559 0.614121,-1.15306 1.525443,-2.00291 3.163108,-2.94974 0.790679,-0.45714 0.910513,-0.41752 0.665825,0.22012 -0.17285,0.45044 0.03414,0.9052 0.491983,1.08089 0.876981,0.33653 0.621019,2.92371 -0.412455,4.16897 -0.765587,0.92248 -2.725109,0.86178 -3.701542,-0.11465 z m 3.659012,-2.45561 c -0.190694,-1.27834 -2.314434,-1.45584 -2.961126,-0.24748 -0.740285,1.38323 -0.58199,1.97193 0.660276,2.45557 1.339392,0.52144 2.536628,-0.62753 2.30085,-2.20809 z"
       style="fill:#000000;fill-opacity:1;stroke:#000000;stroke-width:0.50704747;stroke-linecap:square;stroke-linejoin:round;stroke-miterlimit:4;stroke-dasharray:none;stroke-opacity:1" />
    <path
       transform="translate(37.154807,692.9616)"
       id="path4768"
       d="m 95.582962,154.19585 c -0.489432,-0.79192 0.154535,-1.54922 1.317371,-1.54922 0.697211,0 0.967472,0.27976 0.851586,0.88151 -0.194569,1.01032 -1.675461,1.46621 -2.168957,0.66771 z"
       style="fill:#000000;fill-opacity:1;stroke:#000000;stroke-width:0.50704747;stroke-linecap:square;stroke-linejoin:round;stroke-miterlimit:4;stroke-dasharray:none;stroke-opacity:1" />
    <path
       transform="translate(37.154807,692.9616)"
       id="path4770"
       d="m 109.50942,151.88606 c 0,-0.97606 0.057,-1.94579 0.12676,-2.15495 0.21298,-0.63894 2.10207,-0.14822 3.04222,0.79026 0.81043,0.80898 0.81892,0.98329 0.098,2.01253 -0.44939,0.64159 -1.32274,1.12683 -2.02813,1.12683 -1.07781,0 -1.23886,-0.2307 -1.23886,-1.77467 z"
       style="fill:#000000;fill-opacity:1;stroke:#000000;stroke-width:0.50704747;stroke-linecap:square;stroke-linejoin:round;stroke-miterlimit:4;stroke-dasharray:none;stroke-opacity:1" />
    <path
       transform="translate(37.154807,692.9616)"
       id="path4772"
       d="m 108.69809,154.81534 c -0.94554,-0.66794 -1.19835,-4.50473 -0.37435,-5.68116 1.48184,-2.11562 6.25615,-0.44186 6.25615,2.19325 0,2.15796 -4.22109,4.66107 -5.8818,3.48791 z m 3.94045,-1.48672 c 1.57302,-1.42356 1.18877,-3.1597 -0.89171,-4.02898 -1.40378,-0.58654 -1.98247,-0.62433 -2.53524,-0.16557 -0.93475,0.77578 -0.9136,1.48437 0.0443,1.48437 0.41832,0 0.76057,-0.22817 0.76057,-0.50704 0,-0.79158 0.79165,-0.60033 2.09878,0.50704 l 1.19703,1.0141 -1.19367,1.01138 c -1.31907,1.11762 -1.95293,0.95191 -2.61258,-0.68298 -0.3842,-0.95224 -0.44341,-0.88206 -0.47151,0.55893 -0.0284,1.45593 0.12565,1.64791 1.32231,1.64791 0.74495,0 1.77173,-0.37762 2.28172,-0.83916 z"
       style="fill:#000000;fill-opacity:1;stroke:#000000;stroke-width:0.50704747;stroke-linecap:square;stroke-linejoin:round;stroke-miterlimit:4;stroke-dasharray:none;stroke-opacity:1" />
    <path
       transform="translate(37.154807,692.9616)"
       id="path4774"
       d=""
       style="fill:#000000;fill-opacity:1;stroke:#000000;stroke-width:0.50704747;stroke-linecap:square;stroke-linejoin:round;stroke-miterlimit:4;stroke-dasharray:none;stroke-opacity:1" />
    <path
       transform="translate(37.154807,692.9616)"
       id="path4776"
       d="M 94.212228,185.62948 C 82.50307,183.47303 75.488853,176.81589 72.769223,165.2781 c -3.127289,-13.26725 3.677153,-31.24229 13.773448,-36.3848 7.008415,-3.56971 16.258179,-3.37582 23.516749,0.49296 3.40578,1.81526 3.28719,2.14916 -0.96637,2.7209 -1.60966,0.21636 -2.81106,0.6571 -2.97816,1.09256 -0.15405,0.40144 -0.18593,0.82405 -0.0709,0.93912 0.11507,0.11507 2.13976,-0.135 4.4993,-0.55573 5.26394,-0.9386 8.50867,-0.60775 12.45962,1.27045 7.72353,3.67158 12.48371,13.02653 12.53695,24.63822 0.0307,6.70418 -1.30042,11.18416 -4.61728,15.53937 -5.51028,7.23528 -13.60664,10.39708 -27.73546,10.83129 -3.6341,0.11168 -7.672819,0.007 -8.974932,-0.23296 z m 21.635282,-9.30972 c 6.19514,-2.88042 9.34139,-7.8807 9.54506,-15.16982 0.0789,-2.82193 -0.02,-3.17931 -0.87924,-3.17931 -0.83902,0 -0.97549,0.40562 -1.02361,3.04229 -0.12406,6.79764 -2.82864,11.28959 -8.35893,13.88305 -2.40413,1.12743 -3.48456,1.3205 -7.14252,1.27634 -7.68102,-0.0927 -14.151785,-3.34146 -17.517977,-8.79512 -2.536037,-4.10871 -4.596937,-4.06111 -2.467387,0.057 2.174316,4.20466 6.675389,7.56856 12.886704,9.63093 4.31053,1.43125 10.99268,1.09828 14.9579,-0.74535 z m -17.317265,-20.3721 c 1.038936,-1.03894 1.583375,-3.77279 0.889516,-4.46664 -0.307088,-0.30709 -0.558342,-0.96906 -0.558342,-1.47103 0,-1.09829 -0.164769,-1.11573 -1.927804,-0.20403 -3.186396,1.64775 -4.486917,4.73201 -2.563414,6.07929 1.459844,1.02251 3.174222,1.04823 4.160044,0.0624 z m 13.207625,-0.74554 c 4.36365,-1.65905 4.47711,-6.31547 0.18002,-7.3879 -3.26993,-0.81608 -4.97751,0.90178 -4.55148,4.57889 0.37423,3.22998 1.44853,3.92031 4.37146,2.80901 z"
       style="fill:#ffe680;fill-opacity:1;stroke:#000000;stroke-width:0.50704747;stroke-linecap:square;stroke-linejoin:round;stroke-miterlimit:4;stroke-dasharray:none;stroke-opacity:1" />
  </g>
</svg>
