<?xml version="1.0" encoding="UTF-8" standalone="no"?>
<svg
   xmlns:dc="http://purl.org/dc/elements/1.1/"
   xmlns:cc="http://creativecommons.org/ns#"
   xmlns:rdf="http://www.w3.org/1999/02/22-rdf-syntax-ns#"
   xmlns:svg="http://www.w3.org/2000/svg"
   xmlns="http://www.w3.org/2000/svg"
   version="1.1"
   id="svg2"
   viewBox="0 0 212.73145 220.31212"
   height="220.31212"
   width="212.73145">
  <defs
     id="defs4" />
  <metadata
     id="metadata7">
    <rdf:RDF>
      <cc:Work
         rdf:about="">
        <dc:format>image/svg+xml</dc:format>
        <dc:type
           rdf:resource="http://purl.org/dc/dcmitype/StillImage" />
        <dc:title></dc:title>
      </cc:Work>
    </rdf:RDF>
  </metadata>
  <g
     transform="translate(-37.154807,-692.9616)"
     id="layer1">
    <g
       id="g4432">
      <path
         style="fill:#1a1a1a;fill-opacity:1;stroke:none;stroke-width:3.5;stroke-linecap:square;stroke-linejoin:round;stroke-miterlimit:4;stroke-dasharray:none;stroke-opacity:1"
         id="path4256"
         d="m 43.157492,710.95046 c 0.728085,2.90125 1.373447,5.82026 1.97226,8.75075 1.114742,5.21368 2.317776,10.40729 3.366288,15.63493 1.172565,5.51955 1.810559,11.13009 2.022346,16.76401 0.128071,3.44621 -0.364019,6.85346 -0.986725,10.22981 -0.08904,0.47937 -0.188968,0.95658 -0.28482,1.4346 0,0 -6.202661,2.92663 -6.202661,2.92663 l 0,0 c 0.200227,-0.45711 0.293874,-0.9449 0.420962,-1.4265 0.786384,-3.35161 1.379518,-6.75296 1.304048,-10.21175 -0.151451,-5.60968 -0.746512,-11.20008 -1.926868,-16.69238 -1.064198,-5.21041 -2.277125,-10.38659 -3.4814,-15.56607 -0.636888,-2.88104 -1.289282,-5.76432 -2.206115,-8.572 0,0 6.002685,-3.27203 6.002685,-3.27203 z" />
      <path
         style="fill:#1a1a1a;fill-opacity:1;stroke:none;stroke-width:3.5;stroke-linecap:square;stroke-linejoin:round;stroke-miterlimit:4;stroke-dasharray:none;stroke-opacity:1"
         id="path4258"
         d="m 45.353827,746.42369 c 0.524335,-1.44423 0.932804,-2.92651 1.377006,-4.39663 0.576893,-2.12929 1.207464,-4.24313 1.834157,-6.35814 1.028842,-3.37508 1.910302,-6.79044 2.707518,-10.22672 0.934715,-4.25784 1.442957,-8.58232 1.735011,-12.92623 0.143098,-2.49809 0.183333,-5.00162 0.142947,-7.50324 -0.01063,-0.46269 -0.02353,-0.92551 -0.0554,-1.38728 6.330701,-3.1181 6.165123,-5.09058 6.085324,-1.50129 -0.133405,2.70445 0.16273,5.39819 0.439212,8.08412 0.486355,4.31526 1.070619,8.61569 1.770429,12.90135 0.833244,4.59138 1.982055,9.11269 3.19052,13.61669 1.086019,3.64359 2.103474,7.31685 3.628248,10.80601 0.760909,1.7233 1.670075,3.44028 3.441568,4.25837 1.309024,0.45309 2.681673,0.34564 4.007566,0.0385 0.197975,-0.0568 0.395949,-0.11365 0.593924,-0.17047 0,0 -5.402231,4.12939 -5.402231,4.12939 l 0,0 c -0.202043,0.0425 -0.404086,0.0849 -0.606129,0.12736 -1.448546,0.20076 -2.921268,0.24361 -4.272774,-0.40789 -1.791802,-1.06453 -2.788373,-2.82553 -3.556912,-4.72312 -1.466657,-3.55398 -2.483799,-7.26228 -3.566268,-10.94704 -1.190193,-4.53018 -2.351967,-9.06922 -3.211555,-13.67645 -0.713795,-4.28438 -1.312542,-8.58356 -1.861326,-12.89196 -0.323958,-2.67708 -0.676325,-5.36077 -0.643084,-8.06293 -0.0083,-0.37207 -0.09507,-1.40933 -0.03777,-1.44387 5.155407,-3.10764 5.356578,-5.55061 6.132901,-3.2933 0.0099,0.48894 -0.03244,0.97832 -0.03072,1.46717 -0.06434,2.54835 -0.153239,5.09609 -0.317112,7.64033 -0.324142,4.3709 -0.823093,8.72441 -1.706489,13.02205 -0.74539,3.43229 -1.586739,6.84153 -2.578686,10.21175 -0.606562,2.10145 -1.209306,4.20446 -1.746889,6.32483 -0.444398,1.45075 -0.836808,2.91707 -1.317577,4.35565 0,0 -6.175416,2.93302 -6.175416,2.93302 z" />
      <path
         style="fill:#1a1a1a;fill-opacity:1;stroke:none;stroke-width:3.5;stroke-linecap:square;stroke-linejoin:round;stroke-miterlimit:4;stroke-dasharray:none;stroke-opacity:1"
         id="path4286"
         d="m 65.212586,721.98671 c 2.299503,-3.09889 5.915419,-4.49775 9.203486,-6.40321 1.155112,-0.53836 2.402888,-0.71847 3.661341,-0.78889 1.179482,-0.11589 2.146403,0.54397 3.087844,1.1613 1.310606,0.99327 2.094591,2.42984 2.850384,3.852 0.811374,1.49906 1.337035,3.09758 1.62628,4.77126 0.213313,1.59085 0.345348,3.17552 -0.02922,4.74566 -0.452058,1.45851 -1.287184,2.73078 -2.272748,3.87993 -2.563251,2.27426 -5.617459,4.47474 -9.070399,4.87407 -1.54501,0.0236 -2.56807,-1.06181 -3.51111,-2.15083 -1.048251,-1.32819 -1.658464,-2.92522 -2.102919,-4.54154 -0.273901,-1.04127 -0.383401,-1.92318 0.370234,-2.76603 2.146595,-1.62102 5.109525,-3.03365 7.11702,-4.13866 0.323394,-0.17801 0.999133,-0.38282 1.377633,-0.54951 0.580882,-0.22497 1.164066,-0.3964 1.788117,-0.41116 0.743587,0.0932 1.46948,0.65387 2.112875,1.04007 1.101902,0.65841 2.279093,1.19884 3.480126,1.64918 1.298614,0.5942 2.678285,0.93856 4.043994,1.3309 1.169366,0.34191 2.380563,0.50548 3.593546,0.58331 0.619458,0.0323 1.240156,0.0309 1.860106,0.0165 0.123608,-0.0496 0.274331,0.0417 0.398845,-0.005 0.125001,-0.0468 0.440999,-0.29998 0.325014,-0.23392 -5.075667,2.89097 -7.640125,4.39338 -5.549387,3.16916 0.475419,-0.61323 0.628267,-1.32644 0.733038,-2.077 0.177571,-1.55303 -0.260159,-3.08919 -0.571872,-4.59853 -0.512374,-1.96863 -0.730675,-3.98961 -1.054518,-5.99184 -0.225648,-1.13712 -0.395262,-2.28267 -0.532819,-3.43333 -0.03688,-0.37677 -0.05993,-0.75463 -0.08454,-1.13232 -0.421147,-2.44859 4.67131,-4.85273 6.39108,-3.03616 0.807398,0.88093 1.538104,1.83532 2.219336,2.81697 0.981555,1.49699 2.069937,2.91832 3.078003,4.39677 1.048334,1.41861 2.149644,2.79395 3.320494,4.11301 0.73245,0.77246 1.40396,1.64722 2.36414,2.14637 0.45671,0.22576 0.96329,0.21377 1.45944,0.20475 0.53964,0.0229 1.00519,-0.0366 1.40983,-0.41624 -1.86247,1.07201 -3.71372,2.16374 -5.5874,3.21603 -0.0805,0.0452 0.23797,-0.0576 0.50552,-0.57912 0.28998,-0.56529 0.34153,-1.20069 0.42182,-1.81881 0.1785,-2.10493 0.16343,-4.2209 0.16315,-6.33171 -0.009,-1.65173 -0.0347,-3.30336 -0.0398,-4.95511 -0.003,-1.24924 -0.007,-2.49847 -0.0132,-3.74771 8.9e-4,-0.57106 0.11997,-1.12672 0.27371,-1.67279 1.38308,-5.39204 5.29585,-4.30277 7.50375,-2.62446 1.06518,0.8235 2.30994,1.29213 3.60646,1.60098 1.58311,0.35689 3.11685,0.29061 4.66605,-0.15165 2.67325,-0.82162 8.96111,-4.63929 -1.38982,1.22822 1.09103,-0.77728 1.86673,-1.83812 2.51235,-2.99245 0.4354,-0.82301 0.6486,-1.72043 0.74257,-2.63937 0.0848,-0.76269 -0.0739,-1.50067 -0.47548,-2.15169 -0.37051,-0.55857 -0.86247,-0.82378 -1.50801,-0.93051 -0.96551,-0.16641 -1.66697,0.0564 -2.55896,0.37284 -2.06189,1.12195 -5.08837,2.81465 4.4442,-2.55604 0.1458,-0.0822 -0.27836,0.18596 -0.41439,0.28344 -0.42687,0.30592 -0.39466,0.29626 -0.80093,0.65407 -0.78301,0.77941 -1.41951,1.68556 -1.85605,2.69915 -0.36181,0.99006 -0.37109,2.05367 -0.40106,3.09417 -0.0141,1.17111 -0.007,2.34233 0.002,3.51345 -0.0686,1.13039 0.20473,2.17979 0.61846,3.21646 0.34164,0.97467 0.99359,1.72959 1.61298,2.52948 0.59544,0.81904 1.32933,1.52655 2.07728,2.2049 0.65657,0.6231 1.48784,1.02767 2.34052,1.31004 0.99872,0.26458 2.04199,0.25855 3.06776,0.27613 1.4375,0.0985 2.78799,-0.34358 4.14306,-0.74237 0.22993,-0.087 0.46376,-0.16439 0.68978,-0.2611 0.26109,-0.11172 1.0632,-0.51732 1.30455,-0.65187 0.21682,-0.12087 0.85495,-0.50488 0.63918,-0.38214 -5.1573,2.93356 -6.8749,4.06582 -4.53484,2.54642 1.22947,-0.89764 2.36624,-1.91859 3.5171,-2.91434 0.43002,-0.37528 0.85226,-0.75928 1.27173,-1.14626 0.0563,-0.0723 0.0482,-0.0345 0.0853,-0.0306 0,0 6.35598,-2.69524 6.35598,-2.69524 l 0,0 c -4.4e-4,0.0575 -0.0129,0.0722 -0.0669,0.11521 -0.44266,0.40899 -0.90104,0.80066 -1.35162,1.20079 -1.15812,1.01235 -2.34415,1.99229 -3.50058,3.00614 -3.07967,2.04566 -6.26018,4.13801 -9.77682,5.35032 -1.39899,0.4051 -2.82252,0.68013 -4.28858,0.58949 -1.08477,-0.0348 -2.1878,-0.0618 -3.21664,-0.44875 -0.90786,-0.37498 -1.78323,-0.83634 -2.48531,-1.53756 -0.75228,-0.72598 -1.51704,-1.4465 -2.1297,-2.29897 -0.66154,-0.84899 -1.32593,-1.67161 -1.69893,-2.70071 -0.44128,-1.1061 -0.80419,-2.23124 -0.73907,-3.4421 -6.7e-4,-1.17574 -0.0115,-2.35141 -0.007,-3.52714 0.007,-1.10293 0.0173,-2.22505 0.28946,-3.29994 0.36599,-1.10619 0.9719,-2.0912 1.74764,-2.9619 0.34069,-0.39622 0.7082,-0.79933 1.16388,-1.07118 2.1651,-1.29168 4.6929,-3.15755 7.28806,-4.09878 0.92914,-0.26691 1.87227,-0.31461 2.81758,-0.0746 0.74626,0.27078 1.33823,0.70514 1.7782,1.37829 0.45136,0.76527 0.72671,1.63111 0.67114,2.52825 -0.0585,1.00178 -0.24422,1.98261 -0.659,2.90453 -0.6129,1.2431 -1.35355,2.38159 -2.40613,3.30407 -3.33851,1.97313 -6.52335,4.2977 -10.29022,5.35458 -1.62765,0.3299 -3.25896,0.30343 -4.87571,-0.11057 -1.35254,-0.38758 -2.6398,-0.94057 -3.78011,-1.77955 -2.57505,-1.68657 -4.20264,1.27676 4.5754,-3.91025 0.0155,-0.009 -0.0304,0.0194 -0.0456,0.0291 -0.32296,0.38943 -0.38292,0.94734 -0.48002,1.42226 -0.005,1.25251 -0.009,2.50501 -0.008,3.75752 4.4e-4,1.663 -0.0149,3.32597 -0.0226,4.98894 -0.004,2.12235 0.0112,4.24617 -0.0801,6.36702 -0.34447,4.40909 -1.29675,3.38542 -6.74838,6.49377 -0.54098,0.14093 -1.07499,0.18251 -1.63465,0.13268 -0.58239,-0.0475 -1.14229,-0.17929 -1.637183,-0.50749 -0.939589,-0.64183 -1.669955,-1.51032 -2.418184,-2.35847 -1.169576,-1.35296 -2.269179,-2.7621 -3.337014,-4.19659 -1.012788,-1.4717 -2.101567,-2.88917 -3.095962,-4.37389 -0.680977,-0.94134 -1.409636,-1.85718 -2.229375,-2.68169 -2.00788,-1.9523 6.182087,-5.3958 5.592664,-3.66814 -0.0256,0.36573 -0.0053,0.73337 0.01102,1.09897 0.07571,1.1531 0.232997,2.29702 0.436786,3.43444 0.307521,1.99555 0.464744,4.0186 1.023104,5.97001 0.333504,1.56205 0.821818,3.1387 0.738173,4.75001 -0.05826,0.81246 -0.126036,1.63573 -0.555839,2.34732 -0.752242,2.6563 -4.362851,3.94655 -7.015043,3.87041 -0.62,-0.0117 -1.240583,-0.0262 -1.857652,-0.0933 -1.227755,-0.13365 -2.446761,-0.35683 -3.630744,-0.71306 -1.389888,-0.38246 -2.765418,-0.80581 -4.090338,-1.38123 -1.219941,-0.49915 -2.423208,-1.04752 -3.559481,-1.71874 -0.591581,-0.32761 -1.20191,-0.80375 -1.904665,-0.65594 -0.564277,0.11931 -1.106362,0.31967 -1.635829,0.54723 -0.298137,0.12389 -0.600012,0.23877 -0.896795,0.36587 -0.152038,0.0651 -0.593697,0.29033 -0.451328,0.20615 9.501776,-5.61818 6.64937,-3.70792 4.538071,-2.68549 -0.214573,0.13839 -0.478475,0.21709 -0.648624,0.40746 -0.373524,0.41792 -0.153839,1.2321 -0.08312,1.69437 0.369493,1.52889 0.921021,3.03445 1.918546,4.27293 0.886915,0.94533 1.776604,1.81139 3.168132,1.55836 0.460797,-0.10565 0.607007,-0.12007 1.042256,-0.29302 0.173254,-0.0688 0.668859,-0.32775 0.508917,-0.23197 -9.528113,5.70621 -6.112407,3.74094 -4.187705,2.3624 1.050091,-1.00943 1.884428,-2.22906 2.418159,-3.58843 0.180114,-0.53712 0.30635,-0.80323 0.349772,-1.37556 0.07819,-1.03058 -0.119534,-2.08326 -0.17768,-3.10853 -0.250937,-1.60992 -0.73013,-3.14189 -1.508682,-4.5815 -0.713305,-1.3142 -1.432636,-2.66944 -2.702864,-3.53157 -0.907844,-0.54428 -1.766991,-0.97174 -2.856741,-0.79191 -1.205219,0.12401 -2.382991,0.38756 -3.448298,0.99268 9.970074,-5.83882 5.539643,-3.50785 3.820469,-2.10906 -0.547056,0.44511 -1.027728,0.98863 -1.489942,1.5177 0,0 -6.263867,2.74065 -6.263867,2.74065 z" />
      <path
         style="fill:#1a1a1a;fill-opacity:1;stroke:none;stroke-width:3.5;stroke-linecap:square;stroke-linejoin:round;stroke-miterlimit:4;stroke-dasharray:none;stroke-opacity:1"
         id="path4288"
         d="m 99.604009,751.97605 c -0.03224,-1.57825 0.131051,-3.13654 0.406701,-4.68761 0.22235,-1.18739 0.69758,-2.29032 1.36008,-3.29358 0.3376,-0.44931 0.67115,-0.91881 1.11678,-1.26746 2.57275,-1.79383 5.09926,-3.48237 8.10171,-4.18676 0.92373,-0.19446 1.86872,-0.23428 2.80878,-0.27729 0.60527,-0.0415 0.84672,-0.0848 1.30403,0.36276 0.63143,0.85492 1.18969,1.74862 1.66108,2.70088 0.73233,1.43515 1.14313,2.96623 1.39627,4.54856 0.23031,1.75439 0.30645,3.52396 0.33803,5.2916 0.0829,1.55476 -0.22631,3.07718 -0.5128,4.59451 -0.28082,1.34845 -0.63782,2.68369 -1.16388,3.95777 -0.53017,1.11128 -1.13536,2.16877 -1.93238,3.10901 -0.55351,0.62187 -1.16737,1.18445 -1.86333,1.64216 -4.28835,2.97658 -4.74483,3.55326 -8.30782,3.59858 -1.25426,0.0916 -1.89822,-0.10429 -2.76071,-1.03034 -0.91342,-1.37421 -1.10866,-3.02812 -1.28747,-4.62934 -0.14732,-1.69213 0.19042,-3.28774 1.09156,-4.7203 2.2545,-2.50829 5.42878,-4.45633 8.77353,-5.04182 1.09212,-0.11509 2.20969,-0.19874 3.29906,-0.0361 1.15901,0.26111 2.1264,0.85211 3.05047,1.57301 1.02228,0.92482 2.07464,1.8065 3.20884,2.59113 1.48775,0.96977 3.18869,1.30288 4.8896,1.67362 1.67392,0.35128 3.3812,0.46839 5.08636,0.53066 1.58296,0.0936 3.11374,-0.27209 4.60065,-0.77472 2.20868,-0.96525 5.96731,-3.30451 -3.76254,2.25974 0,0 6.33481,-2.45246 6.33481,-2.45246 l 0,0 c -2.61433,1.51538 -5.06115,3.32578 -7.91326,4.32691 -1.54979,0.44986 -3.13505,0.7325 -4.75654,0.5965 -1.72374,-0.0925 -3.44459,-0.26498 -5.133,-0.63821 -1.77543,-0.38776 -3.52236,-0.85503 -5.05315,-1.88331 -1.14081,-0.79592 -2.20149,-1.68626 -3.254,-2.59414 -0.8595,-0.62611 -1.77394,-1.13083 -2.84935,-1.25956 -1.05882,-0.0491 -2.12987,-0.0104 -3.16933,0.21147 -2.3871,0.66153 -4.51147,2.47532 4.2811,-2.7629 0.57608,-0.3432 -1.93776,1.02588 -1.39922,0.97607 -1.04606,1.29005 -1.43776,2.62524 -1.34694,4.29685 0.14982,1.44502 0.29132,2.95989 1.12576,4.19683 0.75255,0.70345 1.47104,0.60711 2.45035,0.56582 3.08327,-0.13568 5.44854,-2.18143 -3.59171,2.88004 0.73814,-0.3711 1.42138,-0.85235 1.96961,-1.47754 0.89673,-0.81891 1.472,-1.84169 2.03784,-2.9024 0.59895,-1.20701 0.92682,-2.51302 1.25125,-3.81641 0.26531,-1.4819 0.65747,-2.95631 0.57267,-4.4766 -0.0151,-1.74251 -0.0363,-3.48949 -0.26284,-5.2202 -0.24105,-1.51334 -0.63618,-2.97531 -1.34861,-4.34223 -0.42226,-0.85472 -0.91878,-1.6794 -1.55486,-2.39394 -0.3149,-0.0837 -0.69105,0.0679 -1.01884,0.0178 -0.90871,0.0433 -1.81916,0.12792 -2.6973,0.37987 -0.49525,0.15302 -0.45909,0.13275 -0.93821,0.31635 -0.13924,0.0534 -0.27953,0.10464 -0.41516,0.16661 -0.10217,0.0467 -0.39421,0.21547 -0.29719,0.15886 5.79359,-3.3803 7.34542,-4.47684 5.35766,-3.08462 -0.51761,0.24072 -0.89706,0.57382 -1.24816,1.03628 -0.73262,0.89163 -1.27176,1.91108 -1.5406,3.04006 -0.29462,1.50111 -0.53178,3.01267 -0.40996,4.54886 0,0 -6.085421,3.10068 -6.085421,3.10068 z" />
      <path
         style="fill:#1a1a1a;fill-opacity:1;stroke:none;stroke-width:3.5;stroke-linecap:square;stroke-linejoin:round;stroke-miterlimit:4;stroke-dasharray:none;stroke-opacity:1"
         id="path4304"
         d="m 65.216458,797.19091 c 0.07895,2.00136 0.374081,3.97926 0.711088,5.9503 0.371014,2.22056 0.700073,4.44094 0.869763,6.68664 0.145323,2.2634 0.168546,4.53247 0.186857,6.79977 0.04678,1.67493 -0.106136,3.34651 -0.410226,4.99199 -0.246587,1.09258 -0.633263,2.14415 -0.983646,3.20544 -0.215602,0.74127 -0.321163,1.50435 -0.54546,2.24345 -0.06061,0.21507 -0.153922,0.42066 -0.205761,0.63783 0.477546,2.27507 0.71695,0.18787 -6.220744,2.76571 -0.115244,0.0428 0.0065,-0.2458 0.0092,-0.36872 0.01181,-0.52554 0.01131,-0.56515 0.0199,-1.12589 -0.04486,-1.98583 0.179763,-3.9547 0.433827,-5.9198 0.356742,-2.48221 0.932557,-4.92486 1.51408,-7.36184 0.467403,-1.90148 0.964984,-3.79429 1.531806,-5.6686 0.258927,-0.98485 0.750543,-1.86651 1.206241,-2.76596 0.21767,-0.4787 0.552814,-0.87047 0.897302,-1.25707 0.510059,-0.55773 1.071028,-1.06873 1.599407,-1.61019 0.452617,-0.53203 0.949164,-1.01624 1.449071,-1.50056 0.445813,-0.42753 0.821674,-0.91576 1.224246,-1.38078 0.169767,-0.19516 0.361913,-0.36943 0.533832,-0.56226 4.318861,-10.64728 5.972628,-4.08145 6.459233,-1.89944 0.317326,1.05105 0.620668,2.10424 0.907538,3.16426 0.333312,1.41027 0.689082,2.81254 0.925576,4.24307 0.298534,1.26787 0.464795,2.55875 0.673867,3.84227 0.215852,1.2001 0.34692,2.40876 0.689125,3.58211 0.309402,0.91286 0.615986,1.86697 1.196114,2.64857 0.362465,0.64727 0.922712,0.78035 1.603693,0.88399 0.737762,0.036 1.492424,0.11693 2.216206,-0.0496 0.872979,-0.10152 1.63915,-0.41652 2.378264,-0.87502 2.2666,-1.02983 0.677065,-0.31988 -5.264444,3.05498 -0.09414,0.0535 0.178831,-0.12213 0.269739,-0.18094 0.309734,-0.20035 0.548555,-0.41168 0.810828,-0.67346 0.665109,-0.70449 1.146417,-1.55306 1.594226,-2.40524 0.560934,-1.12072 0.749187,-2.3537 0.860926,-3.58714 0.08932,-1.25112 0.07807,-2.50661 0.08215,-3.76012 -0.01261,-1.55309 0.183242,-3.09978 0.438231,-4.6289 0.271475,-1.30328 0.693134,-2.56957 1.097574,-3.83629 0.297298,-0.70532 0.447084,-1.4653 0.733245,-2.17289 0.05955,-0.20906 0.244114,-0.37591 0.283083,-0.59109 7.061246,-3.62948 6.695745,-4.24447 5.811561,-0.3549 -0.313757,1.4282 -0.391412,2.89129 -0.450676,4.34776 -0.04838,1.19578 -0.08223,2.38589 0.199024,3.5553 0.224026,1.05511 0.619586,2.02234 1.259046,2.88779 0.544943,0.8694 1.457075,1.37095 2.309178,1.89335 0.524578,0.37944 1.092332,0.48033 1.719323,0.50371 0.765707,0.0182 1.531636,0.007 2.297399,7.9e-4 0.1154,-0.0322 0.23135,-0.0626 0.34621,-0.0967 0.2244,-0.0667 1.65846,-0.83648 0.94932,-0.42747 -6.72654,3.87963 -7.324562,4.25518 -5.261445,2.9777 0.797396,-0.40202 1.204022,-0.97765 1.424434,-1.82433 0.191991,-1.06029 0.190379,-2.14391 0.183507,-3.21791 -0.04773,-1.02648 0.0098,-2.03412 0.223694,-3.03867 0.310441,-1.31196 0.809064,-2.57436 1.363805,-3.80038 0.565417,-1.19896 1.146735,-2.39245 1.806955,-3.5424 0.67702,-1.12431 1.58588,-2.07776 2.41872,-3.08406 0.83814,-1.02994 1.73919,-2.00529 2.60216,-3.01397 0.58466,-0.74653 1.22759,-1.42801 1.93299,-2.06016 0.29346,-0.3417 0.73473,-0.54821 0.99644,-0.91345 0.0621,-0.0869 0.058,-0.17108 0.1414,-0.1312 0.16492,0.34694 0.39507,0.43015 -0.067,0.42099 -0.0614,-10e-4 -0.1228,-0.002 -0.18421,-0.003 -0.43882,-0.006 -0.94197,0.38967 -0.76759,0.29211 5.26682,-2.94637 7.33457,-4.39489 5.19763,-2.91402 -0.94352,0.70869 -1.54526,1.71789 -2.09404,2.73961 -0.60284,1.26512 -0.99261,2.62917 -1.26741,4.00065 -0.22106,1.20508 -0.24298,2.4317 -0.26691,3.65274 -0.0894,1.09983 0.21614,2.1402 0.50619,3.18423 0.31159,0.82878 0.81893,1.56814 1.35686,2.2654 0.49866,0.61599 0.94926,1.26715 1.53607,1.80437 0.34959,0.32722 0.67295,0.68238 1.16995,0.72922 0.40292,0.30638 0.86662,0.37964 1.353,0.43732 0.6876,0.0414 1.37715,0.0377 2.06574,0.0396 1.11201,0.0515 2.13942,-0.33637 3.1109,-0.83688 2.40551,-1.49259 -0.56305,0.35844 -4.70099,2.6632 -0.19241,0.10718 0.36344,-0.24908 0.54007,-0.38066 0.51908,-0.38671 0.99512,-0.81178 1.46044,-1.26026 0.7612,-0.73428 1.46587,-1.51544 2.11962,-2.34624 0.75395,-1.05366 1.5039,-2.10815 2.31613,-3.11792 1.1957,-1.39781 2.13988,-2.97616 3.04007,-4.57278 0.82185,-1.51029 1.4768,-3.10411 1.97467,-4.74842 0.38882,-1.40448 0.45692,-2.86434 0.49355,-4.31273 -0.0196,-0.97375 0.13274,-1.99271 -0.21769,-2.92394 -0.18365,-0.49666 -0.51832,-0.78706 -1.03957,-0.84392 -0.609,-0.0279 -1.21884,-0.0181 -1.82824,-0.0152 -0.85228,-0.0538 -1.62071,0.10803 -2.31738,0.60391 10.05139,-5.88805 5.52265,-3.59456 3.67103,-1.59565 -0.70352,0.91076 -1.03393,1.9968 -1.23953,3.11085 -0.17645,1.23433 -0.18052,2.48372 -0.18415,3.72793 -0.0778,1.11279 0.0696,2.18598 0.3733,3.25223 0.35546,0.94912 0.77288,1.87277 1.16983,2.80516 0.38009,0.9138 0.8247,1.80905 1.30968,2.67199 0.43132,0.6963 0.9194,1.34193 1.50824,1.91092 0.50987,0.49721 1.09871,0.90462 1.72721,1.23688 0.87767,0.35032 1.84794,0.33522 2.77858,0.36613 1.45974,0.0815 2.86525,-0.40079 4.25067,-0.79501 0.22348,-0.0836 0.45106,-0.15706 0.67045,-0.25091 0.40809,-0.17455 0.80713,-0.37 1.20366,-0.56942 0.18352,-0.0923 0.71804,-0.39942 0.53998,-0.29699 -5.69372,3.27552 -7.00064,4.12541 -4.80007,2.71443 0.85068,-0.58437 1.60478,-1.2903 2.34508,-2.00524 0.45349,-0.45814 0.92917,-0.8969 1.44563,-1.28347 2.02895,-1.15941 4.0496,-2.33348 6.08686,-3.47824 1.90993,-1.07321 -3.8035,2.17531 -5.70488,3.2636 -0.11452,0.0656 0.20586,-0.16677 0.31992,-0.23311 2.00952,-1.16883 3.93671,-2.50081 6.05027,-3.46889 2.00651,-0.91904 -3.81845,2.21409 -5.72768,3.32114 0.0419,-0.0268 0.0838,-0.0537 0.12567,-0.0805 0,0 6.33899,-2.66544 6.33899,-2.66544 l 0,0 c -0.0315,0.0548 -0.0629,0.10961 -0.0944,0.16441 -2.00186,1.18645 -4.28818,1.98911 -6.00559,3.55933 -1.62537,1.48608 3.82206,-2.18935 5.72317,-3.30111 0.0572,-0.0335 -0.13216,0.0288 -0.18816,0.0643 -0.0576,0.0365 -0.0958,0.0971 -0.14366,0.1457 -2.02374,1.16705 -4.04748,2.3341 -6.07121,3.50116 -1.93148,1.03232 3.78965,-2.19631 5.68447,-3.29447 -0.56044,0.33266 -1.06461,0.72586 -1.52952,1.17913 -0.74379,0.74085 -1.49769,1.47356 -2.32519,2.12199 -2.80985,2.09667 -5.9728,3.90645 -9.31602,5.02362 -1.43439,0.39213 -2.89041,0.76328 -4.39199,0.63585 -1.02737,-0.0488 -2.08299,-0.0917 -3.00141,-0.6091 -0.65317,-0.3987 -1.2852,-0.8319 -1.81621,-1.38886 -0.62508,-0.62343 -1.13418,-1.33802 -1.60103,-2.08606 -0.48337,-0.88977 -0.94674,-1.79977 -1.33693,-2.73382 -0.4145,-0.95596 -0.82308,-1.91425 -1.20752,-2.88281 -0.32462,-1.1231 -0.54334,-2.24875 -0.45824,-3.42679 0.01,-1.27556 0.0186,-2.55467 0.15,-3.8246 0.15751,-1.21415 0.46906,-2.35294 1.06612,-3.43096 1.90732,-2.59719 5.361,-3.78031 7.92844,-5.35711 0.81344,-0.31377 1.66102,-0.37795 2.52886,-0.34601 0.65541,-4.7e-4 1.32636,-0.0183 1.96089,0.16976 0.62796,0.28016 1.09773,0.7318 1.34859,1.38548 0.39972,1.02016 0.32792,2.10684 0.29906,3.18484 -0.0407,1.49956 -0.0899,3.01029 -0.43255,4.47755 -0.47755,1.69569 -1.12804,3.33816 -1.94501,4.90023 -0.88354,1.61799 -1.79051,3.23487 -2.95814,4.66969 -0.81991,0.98132 -1.56527,2.01194 -2.29119,3.06388 -0.59899,0.8923 -1.31017,1.70936 -2.10006,2.43776 -2.37111,2.68161 -5.80719,4.15185 -8.89701,5.82051 -1.06611,0.43025 -2.15975,0.68674 -3.31906,0.62429 -0.71808,-0.004 -1.44315,0.009 -2.15291,-0.11576 -0.49589,-0.10853 -0.94388,-0.31048 -1.40846,-0.5046 -0.52037,-0.23796 -0.9282,-0.61246 -1.33244,-1.01299 -0.57652,-0.59181 -1.05869,-1.25943 -1.57136,-1.90535 -0.57452,-0.77821 -1.14208,-1.58055 -1.4761,-2.49595 -0.29473,-1.10259 -0.6613,-2.19911 -0.58144,-3.35937 0.008,-1.2568 0.0382,-2.5195 0.22661,-3.76413 0.25282,-1.43024 0.65549,-2.83077 1.18068,-4.18439 0.54548,-1.05313 1.06174,-2.15885 1.94985,-2.97513 2.1,-1.9982 4.71408,-4.02787 7.6558,-3.97534 0.3216,-0.0114 0.49234,0.11334 0.62103,0.43691 0.0597,0.15305 0.0407,0.3083 -0.002,0.46523 -0.17347,0.58173 -0.44372,0.82425 -0.92787,1.1946 -0.70764,0.6244 -1.45547,1.20555 -1.98447,2.00111 -0.91638,0.95918 -1.74918,2.00312 -2.63399,2.99307 -0.81578,0.99724 -1.69096,1.94492 -2.44664,2.98925 -0.70806,1.11033 -1.27654,2.30116 -1.84446,3.4877 -0.59391,1.16346 -1.06732,2.39797 -1.40413,3.65962 -0.2571,0.95392 -0.34349,1.90339 -0.28214,2.891 -0.0138,1.11366 4.4e-4,2.23202 -0.12509,3.34016 -0.14263,0.91674 -0.33429,1.80249 -1.18042,2.32772 -2.5053,1.52594 -4.935987,3.82907 -7.948912,4.04061 -0.781844,0.002 -1.566198,0.0149 -2.345705,-0.0537 -0.69088,-0.10631 -1.307869,-0.36706 -1.875044,-0.78257 -0.906417,-0.591 -1.852882,-1.17195 -2.437263,-2.11462 -0.681953,-0.93892 -1.12278,-1.9809 -1.385904,-3.11362 -0.334656,-1.22986 -0.328445,-2.47849 -0.257544,-3.74534 0.04603,-1.48646 0.12542,-2.97625 0.377199,-4.44428 0.789611,-3.91912 0.138562,-2.51697 6.720466,-5.16156 -0.194569,-0.0104 -0.315729,0.20006 -0.432986,0.33586 -0.436664,0.62917 -0.488779,1.41422 -0.831955,2.09871 -0.449996,1.22881 -0.800621,2.49674 -1.168444,3.75225 -0.272102,1.48879 -0.496927,2.99769 -0.474386,4.51499 0.0069,1.26952 0.01106,2.53974 -0.05068,3.80818 -0.0986,1.29927 -0.25079,2.59668 -0.741977,3.8164 -0.425421,0.90135 -0.900286,1.77337 -1.489822,2.57942 -0.232925,0.26101 -0.463268,0.60197 -0.734098,0.82513 -1.97603,1.62823 -4.455936,2.65135 -6.717891,3.89861 -0.798131,0.37361 -1.649722,0.56994 -2.524175,0.67077 -0.789316,0.0341 -1.590607,0.035 -2.366537,-0.1322 -0.789507,-0.21993 -1.443706,-0.58683 -1.867688,-1.31835 -0.584848,-0.86716 -0.9586,-1.86306 -1.279835,-2.85349 -0.367641,-1.19514 -0.505283,-2.42803 -0.720483,-3.6561 -0.24081,-1.28273 -0.331722,-2.59307 -0.664711,-3.86054 -0.21111,-1.40899 -0.570725,-2.78361 -0.895127,-4.1694 -0.307853,-1.06231 -0.593995,-2.12897 -0.972672,-3.16911 -0.70935,-3.11622 -1.515042,-0.4099 5.97463,-3.90334 -0.227893,0.12822 -0.417324,0.31353 -0.612193,0.48636 -0.453156,0.42693 -0.783979,0.93278 -1.220969,1.37898 -0.469958,0.52775 -1.042518,0.93297 -1.47563,1.50297 -0.49782,0.55628 -1.02467,1.09613 -1.587894,1.57525 -0.323638,0.38913 -0.654248,0.70627 -0.971748,1.1034 -0.441627,0.90169 -1.027335,1.72755 -1.322818,2.69931 -0.596968,1.8707 -1.139929,3.7549 -1.616495,5.66042 -0.586586,2.41398 -1.177867,4.83063 -1.539336,7.29105 -0.234508,1.92658 -0.497761,3.85686 -0.388409,5.8034 0.04892,3.59671 0.353168,1.24112 -6.207705,4.58573 -0.0405,0.0207 0.03892,0.0442 0.04233,0.048 0.150097,-0.14268 0.200727,-0.37038 0.294071,-0.55035 0.288688,-0.72755 0.435697,-1.47166 0.587227,-2.23834 0.313992,-1.06216 0.741226,-2.08662 1.043299,-3.15387 0.34391,-1.60842 0.560653,-3.24855 0.525132,-4.89745 -0.0016,-2.25669 -0.0056,-4.51504 -0.144081,-6.76841 -0.16637,-2.22423 -0.482124,-4.42352 -0.85984,-6.62111 -0.333091,-1.97255 -0.631023,-3.9479 -0.812475,-5.94099 0,0 6.042015,-3.16326 6.042015,-3.16326 z" />
      <path
         style="fill:#1a1a1a;fill-opacity:1;stroke:none;stroke-width:3.5;stroke-linecap:square;stroke-linejoin:round;stroke-miterlimit:4;stroke-dasharray:none;stroke-opacity:1"
         id="path4306"
         d="m 92.135195,776.10003 c -1.451539,1.15828 -2.423889,2.71267 -3.149088,4.39675 -0.528471,1.34097 -0.712446,2.73967 0.111127,3.98054 0.637124,0.67433 1.532902,0.72747 2.404621,0.77077 2.066912,-0.52948 6.613728,-3.50624 -4.832506,2.85213 -0.104193,0.0579 0.207775,-0.12005 0.297085,-0.19898 0.214186,-0.18929 0.348771,-0.4152 0.508855,-0.64727 0.430532,-0.76151 0.576757,-1.63155 0.565056,-2.49663 -0.114092,-0.71839 -0.424333,-1.36081 -0.998659,-1.81098 -0.499551,-0.22903 -0.903689,-0.2307 -1.31723,0.13729 1.864243,-1.05939 3.707518,-2.15656 5.592727,-3.17817 0.109568,-0.0594 -0.178946,0.17636 -0.246568,0.28104 -0.08223,0.12728 -0.145587,0.26692 -0.199014,0.40872 -0.201281,0.53423 -0.244025,1.08475 -0.267238,1.64802 0.07636,1.26793 0.612681,2.40769 1.534145,3.27118 0.977048,0.62393 1.938503,0.64044 2.964152,0.15818 2.322223,-1.53165 -0.937659,0.63381 -4.920624,2.73129 -0.156676,0.0825 0.254902,-0.24818 0.359677,-0.39092 0.359931,-0.49038 0.477878,-1.01581 0.576249,-1.60088 0.04833,-1.54616 -0.770055,-2.79034 -1.823374,-3.84182 -1.441656,-1.04379 -2.512436,-1.16603 -4.104672,-0.39229 1.708356,-0.9569 3.389486,-1.96412 5.125068,-2.87071 0.236653,-0.12362 -0.428599,0.32224 -0.614018,0.51435 -0.184755,0.19142 -0.344624,0.40715 -0.490273,0.62977 -0.424796,0.64931 -0.616217,1.32903 -0.760157,2.07891 0.0044,0.73585 -0.04519,0.3949 0.118301,1.02683 0,0 -5.984634,3.25659 -5.984634,3.25659 l 0,0 c -0.239293,-0.8186 -0.160283,-0.38733 -0.217856,-1.29716 0.530083,-4.61327 3.912851,-5.18329 8.15534,-7.51127 1.832893,-0.50273 3.082248,-0.17776 4.550659,1.03751 1.147852,1.22455 2.052589,2.61897 2.132064,4.34649 -0.19085,3.88717 -3.762388,4.98874 -7.47966,6.46124 -1.245583,0.26761 -2.382669,0.0338 -3.389861,-0.7803 -0.982502,-1.04082 -1.618395,-2.30846 -1.78955,-3.74193 -0.130451,-4.24496 1.844391,-3.76535 6.554181,-6.49546 0.650318,-0.0899 1.251484,0.0823 1.765235,0.49791 0.643452,0.62999 1.042335,1.40794 1.237568,2.28901 0.101266,0.96548 -0.04761,1.94382 -0.388672,2.85371 -1.334922,2.80535 -4.656625,4.81227 -7.769325,4.73734 -1.061251,-0.13419 -2.041818,-0.41921 -2.728499,-1.30336 -0.884763,-1.43314 -0.934228,-3.00492 -0.345786,-4.58352 0.655844,-1.74575 1.565453,-3.36893 2.930135,-4.6669 0,0 6.335019,-2.55702 6.335019,-2.55702 z" />
      <path
         style="fill:#1a1a1a;fill-opacity:1;stroke:none;stroke-width:3.5;stroke-linecap:square;stroke-linejoin:round;stroke-miterlimit:4;stroke-dasharray:none;stroke-opacity:1"
         id="path4324"
         d="m 151.58253,752.93423 c -0.25004,-1.59478 -0.20072,-3.11316 0.32674,-4.63987 0.76409,-1.70554 2.18354,-2.82907 3.66965,-3.87556 2.98887,-1.4445 5.78089,-3.74892 8.98598,-4.91033 0.53543,-0.19402 1.08664,-0.34139 1.62977,-0.51269 1.6403,-0.47248 3.34694,-0.59865 5.04326,-0.68274 1.84271,-0.0235 3.14547,1.08362 4.40004,2.29781 1.78294,2.04534 3.27427,4.31198 4.69658,6.61522 1.60778,2.57517 2.84182,5.33421 3.79683,8.20949 0.82851,2.71992 0.99664,5.5619 1.09887,8.38429 0.17027,2.90443 -0.17575,5.76205 -0.86598,8.57657 -0.6331,2.51623 -1.98,4.62105 -3.61947,6.58525 -3.36611,3.72551 -7.95677,5.83195 -12.25314,8.29081 -2.40849,1.28868 -5.04894,1.92327 -7.73862,2.25679 -2.4537,0.16292 -3.61329,-0.73831 -5.02755,-2.60682 -1.21015,-1.8693 -1.74817,-4.06539 -2.25825,-6.20803 -0.19446,-0.9189 -0.36043,-1.84411 -0.48552,-2.77506 -0.55513,-2.46886 3.69058,-3.92767 6.14065,-3.77679 0.0883,0.007 0.17083,-0.007 0.23359,0.056 0,0 -5.6772,3.92883 -5.6772,3.92883 l 0,0 c -0.0486,0.0182 -0.11258,0.0528 -0.15406,0.0217 -2.50916,-0.20406 6.14393,-5.56597 5.55897,-3.39901 0.0183,0.92412 0.16818,1.84146 0.32501,2.75016 0.43255,2.06169 0.92338,4.18088 2.10471,5.95676 1.35929,1.72638 2.37184,2.26692 4.61763,2.03374 2.6367,-0.38456 5.20123,-1.09071 7.53802,-2.41157 -8.76218,5.14476 -3.75446,2.32864 -1.95832,1.0051 1.02303,-0.75386 1.98547,-1.59353 2.8645,-2.51111 1.65354,-1.88155 3.0931,-3.86401 3.7757,-6.31917 0.73244,-2.77767 1.12511,-5.52195 0.94657,-8.40604 -0.0863,-2.76437 -0.22064,-5.55078 -0.99966,-8.22351 -0.91572,-2.83379 -2.1241,-5.54784 -3.71255,-8.07416 -1.40517,-2.24675 -2.87558,-4.46395 -4.67112,-6.42382 -1.21645,-1.08716 -2.42053,-1.96568 -4.1335,-1.82193 -1.66612,0.10328 -3.3353,0.2827 -4.92793,0.8135 -0.59149,0.1958 -1.01388,0.32418 -1.58988,0.55987 -2.32954,0.95322 -7.03634,3.88636 2.59812,-1.74865 -1.45071,0.98028 -2.91704,1.94206 -3.81242,3.50214 -0.62808,1.39479 -0.73616,2.80511 -0.42014,4.30696 0,0 -6.04588,3.17584 -6.04588,3.17584 z" />
      <path
         style="fill:#1a1a1a;fill-opacity:1;stroke:none;stroke-width:3.5;stroke-linecap:square;stroke-linejoin:round;stroke-miterlimit:4;stroke-dasharray:none;stroke-opacity:1"
         id="path4326"
         d="m 167.33325,741.04873 c -0.22966,1.47653 -0.32242,2.96904 -0.39024,4.46026 -0.1144,1.52775 -0.0187,3.04429 0.13155,4.56407 0.22788,1.3308 0.46302,2.65986 0.73801,3.98178 0.27359,1.1894 0.37518,2.40258 0.4357,3.61813 0.13681,1.21014 0.30478,2.41432 0.4009,3.62913 0.0743,1.0582 0.0907,2.11955 0.10103,3.18 0.005,0.90576 0.002,1.81154 7.9e-4,2.71731 0.0911,0.91039 0.26719,1.80828 0.36008,2.71936 0.0759,1.03479 0.0802,2.07271 0.1,3.10954 0.009,0.73853 0.011,1.47703 0.007,2.21559 -0.005,0.84416 -0.007,1.68834 -0.008,2.53252 0.001,0.89903 -0.006,1.79812 0.003,2.69712 0.006,0.60266 0.006,1.20536 0.0126,1.80801 1e-4,0.50934 -4.2e-4,1.01866 -0.003,1.528 0.0519,0.54624 -0.12544,1.04605 -0.28019,1.55732 -0.0509,0.12425 -0.0493,0.31708 -0.15248,0.37362 -0.0189,0.1096 -0.0154,0.22139 -0.0139,0.33217 0.002,0.009 -0.004,0.0191 -0.006,0.0287 -2.02036,1.20333 -4.04073,2.40665 -6.06109,3.60998 0,0 5.55544,-4.03675 5.55544,-4.03675 l 0,0 c -0.36223,0.23262 -5.44694,5.83754 -5.63019,3.54155 -0.002,-0.13064 -6.4e-4,-0.26141 -0.008,-0.39188 -0.0457,-0.1961 0.0293,-0.33642 0.0993,-0.52721 0.15046,-0.45116 0.38909,-0.89981 0.38695,-1.37411 -0.002,-0.50843 -0.003,-1.01685 -0.003,-1.52528 0.006,-0.60691 0.007,-1.21387 0.0125,-1.82078 0.009,-0.90015 0.002,-1.80039 0.003,-2.70057 -9e-4,-0.84219 -0.002,-1.68439 -0.005,-2.52657 -0.002,-0.73927 0.005,-1.47841 0.008,-2.21765 0.007,-1.01936 -0.002,-2.03998 -0.0706,-3.05737 -0.0801,-0.93318 -0.23504,-1.85336 -0.39099,-2.77634 7.5e-4,-0.9049 0.002,-1.8098 0.003,-2.7147 -1.4e-4,-1.05012 -7.6e-4,-2.10069 -0.0608,-3.14952 -0.0787,-1.22214 -0.22888,-2.43469 -0.41291,-3.64537 -0.0414,-1.18266 -0.12246,-2.36544 -0.37223,-3.52544 -0.28397,-1.34612 -0.5097,-2.7006 -0.75527,-4.05461 -0.15668,-1.5484 -0.29473,-3.09064 -0.17566,-4.64894 0.0563,-1.49903 0.16711,-2.99392 0.31667,-4.48656 0,0 6.12299,-3.0245 6.12299,-3.0245 z" />
      <path
         style="fill:#1a1a1a;fill-opacity:1;stroke:none;stroke-width:3.5;stroke-linecap:square;stroke-linejoin:round;stroke-miterlimit:4;stroke-dasharray:none;stroke-opacity:1"
         id="path4328"
         d="m 186.20538,757.93117 c 0.32352,-1.29729 0.8498,-2.52387 1.43722,-3.72027 0.43085,-0.83401 0.86412,-1.67188 1.44106,-2.41581 2.11628,-2.16379 4.88475,-3.8933 7.83948,-4.60152 0.99181,-0.15906 1.91332,-0.28254 2.89068,-0.0145 1.36611,0.43757 2.36707,1.33955 3.14973,2.5078 0.86638,1.45673 1.16807,3.13356 1.40101,4.78787 0.22499,2.00666 0.23639,4.0298 0.25476,6.04668 0.12562,1.98232 -0.28395,3.8833 -0.94992,5.73519 -0.58797,1.49481 -1.44034,2.83279 -2.50566,4.0259 -2.01296,2.00538 -4.64468,3.00343 -7.18179,4.40467 -0.42838,0.23659 -1.01964,0.21432 -1.48275,0.17872 -1.36659,-0.35711 -2.1876,-1.58155 -2.92842,-2.69328 -0.97253,-1.49558 -1.56261,-3.18608 -2.02231,-4.89782 -0.36825,-1.42605 -0.34137,-2.83723 0.18561,-4.20784 0.46822,-1.04884 1.27658,-1.83388 2.132,-2.56846 2.11484,-1.69032 0.39622,-0.34041 6.40856,-3.75309 0.40971,-0.23256 0.76444,0.01 1.11884,0.2171 1.04508,0.813 1.79855,1.95122 2.68556,2.93109 1.08596,1.3193 2.31022,2.5004 3.77008,3.39235 0.97185,0.66854 2.04956,1.0315 3.2082,1.18095 0.61043,-0.0593 1.22612,-0.28037 1.75846,-0.58817 0.14971,-0.0866 0.58622,-0.36673 0.43564,-0.2817 -1.80999,1.02205 -3.60974,2.06213 -5.41461,3.0932 0.86561,-0.62115 1.45087,-1.46491 1.93236,-2.39715 0.52189,-1.33221 0.73873,-2.76395 0.9066,-4.17773 0.21886,-2.30273 0.22248,-4.61859 0.23966,-6.92951 0.0102,-2.1338 -0.004,-4.26755 -0.028,-6.40121 -0.008,-0.83 -0.0209,-1.66016 -0.0552,-2.48955 -0.11652,-2.39315 -0.59021,-0.34632 6.11556,-2.96733 0.12563,-0.0491 -0.01,0.26978 -0.006,0.40462 0.004,0.15793 0.0201,0.31534 0.0302,0.47301 0.16655,1.52397 0.39438,3.04197 0.64555,4.55414 0.30498,1.86306 0.7174,3.70756 1.16739,5.54047 0.27588,1.58209 0.88373,3.04599 1.63377,4.45404 0.49246,0.88787 1.20528,1.61198 2.12832,2.03919 0.75519,0.23711 1.5594,0.21131 2.34238,0.21452 0.50845,-0.0933 1.01622,-0.14267 1.50174,-0.33299 1.99341,-0.7814 6.18044,-3.42462 -4.1881,2.45388 1.53476,-0.99229 2.03687,-2.66066 2.44786,-4.34551 0.47456,-2.50667 0.50719,-5.06751 0.53678,-7.6102 0.0213,-2.0573 -0.002,-4.11474 -0.0293,-6.17187 -0.009,-0.95318 -0.0278,-1.9062 -0.0471,-2.85921 -0.005,-0.19929 -0.009,-0.39867 -0.0201,-0.59775 7.6699,-4.11363 5.89094,-4.53542 6.14527,-0.62809 0.14235,1.54049 0.50387,3.05143 0.90555,4.54216 0.42793,1.74616 0.81925,3.50329 1.17877,5.26504 0.42013,2.08086 0.50436,4.20421 0.56836,6.31954 0.14853,2.21304 0.31614,4.42346 0.41118,6.63979 0.0722,2.17883 0.0816,4.35894 0.0817,6.53875 -0.002,2.1806 0.001,4.36119 0.006,6.5418 0.008,1.64024 0.0196,3.28049 0.0203,4.92076 0.0705,1.46619 -0.0688,2.90994 -0.42341,4.33173 -0.55118,1.71811 -1.3973,3.32234 -2.20282,4.93104 -0.72811,1.40685 -1.28564,2.88575 -1.82872,4.37039 -0.4289,1.08845 -0.86328,2.17725 -1.35714,3.23804 -0.56567,1.12727 -1.35756,2.10848 -2.2672,2.97356 -2.68757,2.30423 -5.78093,4.33103 -9.16963,5.38791 -1.24695,0.35443 -2.54619,0.40036 -3.83343,0.43413 -0.85847,0.016 -1.71707,0.0126 -2.57562,0.008 -1.08055,-0.22869 -1.54762,-1.27342 -1.93504,-2.20099 -0.62275,-1.51865 -0.87868,-3.14085 -1.03531,-4.76405 -0.12786,-1.98888 0.56102,-3.86365 1.22294,-5.7028 0.82153,-2.41448 1.8792,-4.73012 3.12471,-6.95267 1.72699,-3.02013 3.88489,-5.73601 6.1551,-8.35841 3.98057,-4.53714 8.74635,-8.28598 13.53129,-11.92816 2.24218,-1.61785 4.47799,-3.24444 6.70994,-4.87636 0,0 6.05723,-2.39696 6.05723,-2.39696 l 0,0 c -2.2915,1.64237 -4.58009,3.28879 -6.87469,4.92682 -4.74296,3.57273 -9.46592,7.26256 -13.40778,11.73222 -2.23081,2.57307 -4.35249,5.23119 -6.07057,8.18279 -1.27314,2.16649 -2.3388,4.4449 -3.13876,6.83031 -0.63168,1.749 -1.34867,3.52641 -1.31073,5.41754 0.134,1.55524 0.3376,3.11973 0.96625,4.56453 0.30901,0.72762 0.63444,1.54539 1.54791,1.50545 0.84171,0.008 1.68377,0.0202 2.52529,-0.007 1.24927,-0.0545 2.50618,-0.15255 3.68893,-0.59384 2.17452,-0.91949 5.48919,-3.04347 -3.98844,2.44977 -0.79203,0.45905 2.32196,-1.33672 1.51088,-1.08739 0.92858,-0.79153 1.76476,-1.66704 2.37027,-2.73909 0.54223,-1.02292 0.9098,-2.12049 1.39419,-3.17125 0.54869,-1.51582 1.12729,-3.02162 1.84892,-4.46557 0.78884,-1.57459 1.60542,-3.14337 2.2214,-4.79593 0.41921,-1.35433 0.56171,-2.7495 0.50349,-4.16617 9.9e-4,-1.64771 0.0129,-3.29539 0.0229,-4.94307 0.007,-2.18237 0.0138,-4.36474 0.008,-6.54712 -0.008,-2.17126 -0.008,-4.34307 -0.0761,-6.51349 -0.0792,-2.21977 -0.23268,-4.43429 -0.41105,-6.64819 -0.0544,-2.07626 -0.13434,-4.16091 -0.53186,-6.20539 -0.36471,-1.74438 -0.76559,-3.48244 -1.17958,-5.21542 -0.42439,-1.51998 -0.7923,-3.06451 -0.99551,-4.63049 -0.47366,-4.14281 0.14696,-2.48384 6.03496,-5.64669 -0.0107,0.20519 -0.0145,0.41068 -0.0191,0.61608 -0.0161,0.96595 -0.0288,1.93196 -0.0318,2.89806 -0.0132,2.07227 -0.018,4.14457 -0.033,6.21683 -0.043,2.57795 -0.0658,5.16903 -0.45828,7.72289 -0.34727,1.75794 -0.74965,3.57911 -2.17138,4.79634 -2.83649,1.65201 -5.69436,4.23974 -9.16958,4.35037 -0.86656,-0.0276 -1.74851,-0.0668 -2.53206,-0.48184 -0.96627,-0.59492 -1.76249,-1.39611 -2.30101,-2.40364 -0.76064,-1.4634 -1.38251,-2.98667 -1.66966,-4.62057 -0.46326,-1.84471 -0.8753,-3.7047 -1.19722,-5.57937 -0.27349,-1.5144 -0.5063,-3.03681 -0.72605,-4.55961 -0.0423,-0.2809 -0.1505,-0.88927 -0.0858,-0.92995 6.96489,-4.37629 6.2227,-5.75033 6.11597,-3.26585 -0.0317,0.84716 -0.0431,1.69497 -0.0491,2.54265 -0.0188,2.14542 -0.0254,4.29088 -0.0306,6.43637 -0.01,2.3216 -0.009,4.64623 -0.15874,6.96391 -0.1371,1.46573 -0.3347,2.93129 -0.76149,4.34387 -0.39492,1.03133 -0.96897,1.95666 -1.79103,2.70635 -2.07435,1.23722 -4.1403,2.48865 -6.22306,3.71166 -0.73894,0.43391 -1.63007,0.61668 -2.4742,0.50613 -1.20254,-0.25122 -2.31165,-0.72717 -3.32336,-1.43312 -1.46183,-0.98254 -2.71204,-2.20839 -3.85001,-3.55128 -0.81744,-0.89402 -1.53955,-2.00717 -2.59677,-2.61796 -0.26988,-0.0302 -0.34991,0.0227 -0.58237,0.15202 -0.0632,0.0352 -0.25168,0.14281 -0.18912,0.10648 5.66617,-3.29062 7.53948,-4.20032 5.27582,-3.0898 -0.86203,0.66146 -1.72809,1.33775 -2.28612,2.29091 -0.64368,1.20412 -0.74811,2.47937 -0.42326,3.81225 0.40638,1.64515 0.96062,3.27483 1.90736,4.69454 0.63877,0.91767 1.36254,2.06274 2.6029,2.08825 0.71825,-0.12065 1.50592,-0.53596 1.29376,-0.40938 -9.7185,5.79794 -6.2799,3.9011 -4.40312,2.47603 1.10407,-1.12082 2.02862,-2.34424 2.65168,-3.80466 0.7232,-1.76131 1.18198,-3.59189 1.06919,-5.51303 -0.009,-1.98957 -0.012,-3.98424 -0.22282,-5.965 -0.20621,-1.55098 -0.48657,-3.12236 -1.28433,-4.49334 -0.71232,-1.0154 -1.62498,-1.78905 -2.87395,-2.0427 -0.91366,-0.0617 -1.83914,0.0108 -2.71468,0.29622 -0.25621,0.1053 -0.98906,0.49778 -0.75011,0.35766 10.21993,-5.99251 6.44361,-4.03878 4.62106,-2.59694 -0.67017,0.64936 -1.11237,1.44897 -1.55332,2.26575 -0.583,1.15439 -1.22068,2.30744 -1.46038,3.59287 0,0 -6.17542,2.93302 -6.17542,2.93302 z" />
      <path
         style="fill:#1a1a1a;fill-opacity:1;stroke:none;stroke-width:3.5;stroke-linecap:square;stroke-linejoin:round;stroke-miterlimit:4;stroke-dasharray:none;stroke-opacity:1"
         id="path4330"
         d="m 237.4365,692.96169 c 0.61157,1.67959 1.14782,3.37902 1.63268,5.0992 0.59976,2.2974 1.03309,4.63086 1.47237,6.96261 0.44535,2.66889 0.95503,5.32779 1.57264,7.96228 0.57184,2.59342 1.16028,5.18476 1.57904,7.80803 0.33037,2.41021 0.62041,4.825 0.93092,7.2377 0.24137,2.17709 0.43919,4.35847 0.65937,6.538 0.20607,1.57748 0.1873,3.17419 0.3516,4.75406 0.0971,0.73079 0.26103,1.44978 0.39147,2.17491 0.0284,0.14108 0.0449,0.28481 0.0793,0.42461 0.003,0.008 0.007,0.0161 0.0103,0.0241 -2.06335,1.03175 -4.1267,2.06351 -6.19004,3.09526 0,0 5.89773,-3.49862 5.89773,-3.49862 l 0,0 c -1.95241,1.18021 -3.90482,2.36041 -5.85722,3.54062 0.003,0.004 0.007,0.009 0.0103,0.0131 0.009,-0.1269 -0.0105,-0.26156 -0.0238,-0.39002 -0.0892,-0.74701 -0.23976,-1.48425 -0.34188,-2.22951 -0.19032,-1.58949 -0.0847,-3.20541 -0.29056,-4.79665 -0.20696,-2.1776 -0.42479,-4.35305 -0.62972,-6.5306 -0.31008,-2.40924 -0.59838,-4.82058 -0.90571,-7.2302 -0.40151,-2.61062 -0.98001,-5.18815 -1.54933,-7.76644 -0.62488,-2.64079 -1.13088,-5.30949 -1.59252,-7.98326 -0.4506,-2.30608 -0.88453,-4.61587 -1.48285,-6.88979 -0.48546,-1.68355 -0.99367,-3.35883 -1.68218,-4.97326 0,0 5.95806,-3.34622 5.95806,-3.34622 z" />
      <path
         style="fill:#1a1a1a;fill-opacity:1;stroke:none;stroke-width:3.5;stroke-linecap:square;stroke-linejoin:round;stroke-miterlimit:4;stroke-dasharray:none;stroke-opacity:1"
         id="path4332"
         d="m 247.81859,759.49123 c -0.42658,1.02962 -0.92022,2.10141 -0.87041,3.23929 0.0541,0.4323 0.31613,0.4529 0.67441,0.44027 0.2475,-0.0176 0.1415,0.0315 0.3157,-0.15209 -1.91568,1.07707 -3.82621,2.16338 -5.74705,3.23122 -0.0785,0.0436 0.1523,-0.097 0.21845,-0.15775 0.20404,-0.18744 0.23564,-0.28403 0.37722,-0.52446 0.3858,-0.81592 0.18525,-1.69089 -0.11173,-2.49974 -0.072,-0.0635 -0.58398,-1.43536 -0.66487,-0.89126 12.9845,-6.65152 6.19588,-4.52779 5.35877,-2.49248 -0.17917,0.43564 -0.2278,0.91477 -0.28809,1.37663 -0.0275,0.47584 -0.17646,1.31228 0.37174,1.56243 0.0527,0.0167 0.10365,0.0409 0.15817,0.0502 0.1805,0.0308 0.1971,0.0256 0.32244,-0.10928 0.0587,-0.0631 0.23323,-0.24642 0.15774,-0.20484 -5.55413,3.05935 -6.96744,4.91687 -5.3973,2.93276 0.35527,-0.70061 0.51788,-1.48837 0.29646,-2.25167 -0.0791,-0.18628 -0.19852,-0.41825 -0.4411,-0.42172 -0.14278,-0.002 -0.47971,0.30902 -0.35424,0.24086 1.9009,-1.0326 3.77769,-2.10898 5.66653,-3.16347 -0.51715,0.29433 -0.68647,0.88771 -0.79127,1.43866 -0.008,0.0623 -0.0167,0.12461 -0.025,0.18691 0,0 -6.15591,3.05035 -6.15591,3.05035 l 0,0 c 0.007,-0.0716 0.0134,-0.14326 0.0202,-0.21489 0.0819,-0.6798 0.24648,-1.35097 0.57128,-1.95956 0.85768,-0.487 5.99608,-5.69575 7.50612,-2.45346 0.31757,0.91252 0.23908,1.83078 -0.0565,2.74526 -0.94451,2.63653 -0.10297,0.56292 -6.21009,4.13827 -0.32061,0.18769 -0.83639,-0.19717 -1.08,-0.35447 -0.59031,-0.58841 -0.77507,-1.35913 -0.66839,-2.18268 0.34796,-3.90861 1.46582,-3.37179 6.66024,-5.8842 0.50879,0.39842 0.75635,0.95669 1.00532,1.54558 0.36471,0.93141 0.63138,1.9761 0.37017,2.96725 -0.88822,2.66842 -4.19327,5.01424 -7.01544,4.3956 -0.57228,-0.19147 -0.98211,-0.62144 -1.10599,-1.22331 -0.16156,-1.23798 0.31591,-2.39695 0.72329,-3.54685 0,0 6.2092,-2.85331 6.2092,-2.85331 z" />
      <path
         style="fill:#1a1a1a;fill-opacity:1;stroke:none;stroke-width:3.5;stroke-linecap:square;stroke-linejoin:round;stroke-miterlimit:4;stroke-dasharray:none;stroke-opacity:1"
         id="path4348"
         d="m 180.87134,821.09154 c -1.93991,-1.18532 -4.07222,-2.01069 -6.19702,-2.79678 -3.3558,-1.32595 -6.89918,-1.83756 -10.46754,-2.164 -4.13423,-0.37796 -8.11343,-0.24103 -12.2168,0.33248 -2.63566,0.40887 -5.24789,1.04985 -7.723,2.0569 -1.22375,0.49791 -2.39511,1.10593 -3.57723,1.69189 -0.59237,0.32855 -2.36394,1.32397 -1.7771,0.98565 1.26609,-0.7299 2.49673,-1.52961 3.81497,-2.16049 0.65478,-0.31337 -1.22082,0.78645 -1.81505,1.20338 -1.93729,1.35924 -3.69781,2.8719 -5.43854,4.46951 -3.69932,3.51116 -6.33838,7.83613 -8.66748,12.32344 -2.16979,4.32551 -3.42379,8.98987 -4.39632,13.70464 -0.87021,4.5373 -1.13695,9.15016 -1.00033,13.75945 0.1877,4.53007 1.26966,8.94296 2.55524,13.26904 1.20918,4.04265 3.09687,7.80107 5.29007,11.38712 2.26883,3.62097 5.20693,6.70006 8.33716,9.57588 3.34534,2.96157 6.9871,5.30827 11.02199,7.20336 3.59159,1.71775 7.43525,2.70983 11.36045,3.26334 2.47572,0.3004 4.98824,0.32642 7.45169,-0.0976 1.66044,-0.28578 2.21616,-0.49228 3.84217,-0.95624 4.06682,-1.20641 7.8661,-3.06819 11.55107,-5.13814 -1.31342,0.75068 -2.61175,1.52842 -3.94027,2.25205 -0.54609,0.29745 1.06244,-0.64653 1.59178,-0.97286 1.83711,-1.13256 3.64519,-2.2983 5.42688,-3.51601 2.14292,-1.53593 4.28741,-3.07328 6.29182,-4.78811 1.70796,-1.38542 3.23467,-2.95205 4.5627,-4.70155 1.41279,-1.82149 2.53497,-3.83497 3.44694,-5.94613 1.01484,-2.26688 1.3412,-4.70814 1.53707,-7.15816 0.16391,-2.94307 0.1555,-5.89255 0.16378,-8.8392 -0.0474,-3.49532 -0.33323,-6.9817 -0.82902,-10.44067 -0.39614,-2.91101 -1.0101,-5.78794 -1.72903,-8.63484 -0.69294,-2.26053 -1.28843,-4.55827 -2.20237,-6.74224 -0.87465,-1.89261 -1.88006,-3.72001 -2.91748,-5.52703 -0.99229,-1.57289 -2.09406,-3.07509 -3.17995,-4.58438 -0.86047,-1.30643 -2.00594,-2.33686 -3.21494,-3.30695 -1.45252,-1.11966 -3.07557,-1.97343 -4.73701,-2.73396 -2.29776,-0.95452 -4.5787,-1.93751 -6.84266,-2.97076 -2.02196,-0.9383 -4.06243,-1.8665 -5.93845,-3.07697 -0.70601,-0.47387 -1.40755,-0.95432 -2.10855,-1.43555 0,0 5.72688,-3.64272 5.72688,-3.64272 l 0,0 c 0.67071,0.49387 1.34364,0.98539 2.04688,1.43272 1.86419,1.16141 3.85373,2.10644 5.84492,3.02812 2.26997,1.03575 4.57316,1.98333 6.87096,2.95374 1.71326,0.78835 3.38616,1.67514 4.87368,2.84667 1.24621,1.01767 2.41601,2.1088 3.29722,3.47099 1.0873,1.53573 2.19653,3.05904 3.19879,4.65223 1.04288,1.83528 2.04681,3.6947 2.93746,5.60939 0.93449,2.2146 1.51615,4.55302 2.22111,6.84725 0.72412,2.87522 1.30454,5.7894 1.70111,8.72841 0.50186,3.4858 0.79174,6.99783 0.88185,10.51914 0.0122,2.95207 0.053,5.90669 -0.089,8.85647 -0.16676,2.50064 -0.42676,5.01381 -1.42769,7.34204 -0.85305,2.16147 -1.9613,4.22473 -3.3598,6.08588 -1.29248,1.80932 -2.78108,3.45422 -4.52443,4.84515 -1.99441,1.77022 -4.16369,3.31473 -6.31924,4.88158 -4.62174,3.19257 -9.46209,6.04997 -14.36708,8.78571 -3.71934,2.0351 -7.55872,3.84936 -11.64959,5.01683 -1.64467,0.43458 -2.23909,0.64124 -3.91829,0.88969 -2.50796,0.37107 -5.05672,0.28497 -7.56407,-0.0374 -3.95207,-0.62494 -7.80811,-1.7064 -11.42163,-3.4572 -4.02685,-1.94877 -7.77615,-4.38456 -11.11926,-7.37259 -3.17259,-2.91969 -6.16075,-6.03862 -8.45024,-9.72009 -2.2249,-3.63317 -4.1351,-7.44705 -5.35935,-11.54402 -1.29541,-4.37928 -2.39266,-8.84443 -2.61656,-13.42529 -0.16517,-4.65423 0.086,-9.3127 0.94023,-13.89958 0.96233,-4.76753 2.19369,-9.48855 4.34746,-13.87771 2.30721,-4.53413 4.9058,-8.92316 8.56288,-12.52169 0.58566,-0.55711 1.15335,-1.13375 1.75699,-1.67133 4.34698,-3.87125 9.47626,-6.68073 14.59857,-9.38806 1.36291,-0.65339 2.21504,-1.09655 3.62759,-1.63607 2.50829,-0.95804 5.14121,-1.55657 7.7939,-1.93976 4.08849,-0.51461 8.20171,-0.61374 12.30994,-0.21657 3.62807,0.35494 7.22524,0.92121 10.64269,2.2511 2.18624,0.80519 4.35327,1.6767 6.40137,2.79541 0,0 -5.72584,3.72202 -5.72584,3.72202 z" />
      <path
         style="fill:#ffcc00;fill-opacity:1;stroke:none;stroke-width:3.5;stroke-linecap:square;stroke-linejoin:round;stroke-miterlimit:4;stroke-dasharray:none;stroke-opacity:1"
         d="m 158.18159,256.30549 c -4.34691,-0.78894 -6.12439,-1.39376 -10.52253,-3.58047 -10.39248,-5.16705 -18.48534,-14.17088 -22.61202,-25.15732 -2.14078,-5.6994 -3.39524,-12.37864 -3.39303,-18.06578 0.008,-20.40249 10.68534,-39.17862 25.01043,-43.98062 3.60502,-1.20846 4.12746,-1.25844 12.9624,-1.24002 5.06329,0.0105 9.81382,0.22281 10.55672,0.47168 l 1.35074,0.45249 -1.71992,1.06298 c -1.62996,1.00736 -1.6797,1.10742 -0.95102,1.91261 0.77629,0.85779 7.57292,4.27835 13.08799,6.58685 5.76531,2.41323 9.71724,6.39433 13.53269,13.63257 3.89296,7.38528 6.2648,19.28763 6.2567,31.39728 -0.005,7.05641 -0.62599,10.53959 -2.6099,14.63264 -4.20838,8.6824 -19.43753,19.45583 -30.95319,21.89696 -3.63699,0.77098 -5.65197,0.76657 -9.99606,-0.0219 l 0,2e-5 z"
         id="path4350"
         transform="translate(0,652.36216)" />
      <path
         style="fill:#ffcc00;fill-opacity:1;stroke:none;stroke-width:3.5;stroke-linecap:square;stroke-linejoin:round;stroke-miterlimit:4;stroke-dasharray:none;stroke-opacity:1"
         id="path4352"
         d="m 143.50419,874.42389 c 0.20406,1.42628 0.64952,2.77375 1.20557,4.09611 0.47554,1.16576 1.44475,1.9117 2.38525,2.68634 0.97486,0.8665 2.11698,1.46632 3.36834,1.80938 1.02426,0.43541 2.14214,0.4895 3.20544,0.75823 1.11236,0.27089 2.25426,0.34444 3.39369,0.39286 1.21103,0.0361 2.42285,0.0349 3.63431,0.0322 1.09706,0.0332 2.17054,-7.4e-4 3.25262,-0.17403 1.06318,-0.11908 2.07768,-0.43204 3.13642,-0.58489 1.18326,-0.18482 2.35227,-0.41384 3.54761,-0.52486 1.14747,-0.19814 2.26748,-0.50941 3.40549,-0.74952 1.05098,-0.0871 2.02745,-0.42085 3.0136,-0.76389 0.93285,-0.29479 1.84755,-0.64214 2.77334,-0.96054 0.86863,-0.44621 1.84139,-0.63416 2.67952,-1.13825 2.24292,-1.13113 1.04566,-0.53584 -5.13748,2.96651 -0.10924,0.0619 0.20851,-0.13987 0.31282,-0.20973 0.32937,-0.22057 0.59271,-0.46083 0.8727,-0.74194 0.70086,-0.72381 1.34532,-1.49728 2.02379,-2.2415 0.46281,-0.54277 0.98403,-1.03051 1.44421,-1.57494 0.53363,-0.5145 0.93742,-1.13836 1.4185,-1.69996 0.39254,-0.52235 0.67703,-1.11552 1.00153,-1.68123 0.0701,-0.12035 0.1431,-0.24031 0.19957,-0.36686 -0.001,-0.006 -0.002,-0.0126 -0.004,-0.0189 0.11025,0.22318 0.2205,0.44635 0.33075,0.66952 0,0 5.57143,-4.06232 5.57143,-4.06232 l 0,0 c 0.14691,0.22256 0.29381,0.44511 0.44072,0.66766 -0.003,-0.003 -0.007,-0.007 -0.0104,-0.01 -0.0958,0.10001 -0.17151,0.22337 -0.24763,0.34117 -0.36651,0.57139 -0.71334,1.15247 -1.00168,1.76791 -0.43411,0.61148 -0.96748,1.13638 -1.3659,1.777 -0.55663,0.44511 -0.92252,1.08861 -1.49708,1.52796 -0.6234,0.79227 -1.35757,1.49353 -2.00041,2.27155 -0.25608,0.28688 -0.50706,0.6408 -0.80458,0.88672 -2.02989,1.67784 -4.51953,2.79984 -6.8792,3.99622 -0.90428,0.3685 -1.82169,0.70323 -2.7272,1.0684 -0.91951,0.33423 -1.84877,0.64232 -2.77652,0.95274 -0.99524,0.33129 -2.01787,0.51377 -3.04886,0.69643 -1.14083,0.26497 -2.28049,0.54687 -3.44581,0.68489 -1.1851,0.14352 -2.35088,0.39435 -3.53244,0.56222 -1.04853,0.19573 -2.08072,0.47538 -3.14706,0.57054 -1.09823,0.12878 -2.20031,0.101 -3.30454,0.0955 -1.21597,-0.004 -2.43247,-0.004 -3.64728,-0.0647 -1.17113,-0.0682 -2.33641,-0.19432 -3.47872,-0.47315 -1.08982,-0.2073 -2.17435,-0.42768 -3.21788,-0.81745 -1.29392,-0.44575 -2.47929,-1.12469 -3.50923,-2.0332 -1.02566,-0.84835 -2.0348,-1.69942 -2.54964,-2.96967 -0.56838,-1.34953 -1.0103,-2.72965 -1.28978,-4.16893 0,0 6.00563,-3.24772 6.00563,-3.24772 z" />
      <path
         style="fill:#000000;fill-opacity:1;stroke:none;stroke-width:3.5;stroke-linecap:square;stroke-linejoin:round;stroke-miterlimit:4;stroke-dasharray:none;stroke-opacity:1"
         id="path4426"
         d="m 144.98983,849.0648 c -1.00177,-0.80204 -2.15147,-1.4583 -3.44408,-1.57096 -0.19866,-10e-4 -0.39805,-0.0202 -0.59598,-0.003 -0.39499,0.034 -0.74171,0.13881 -1.10082,0.30286 -0.17635,0.0806 -0.67932,0.37402 -0.5108,0.27817 5.61021,-3.19101 7.02849,-4.25644 4.9349,-2.72248 -0.8589,0.71157 -1.3113,1.63433 -1.56811,2.69576 -0.21256,1.39381 0.39693,2.09892 1.42007,2.92361 1.12039,0.73309 2.36532,0.90865 3.66993,0.82015 2.15721,-0.69204 5.86358,-3.04412 -4.55823,2.71725 -0.11857,0.0656 0.22677,-0.15077 0.32499,-0.24408 0.2437,-0.23151 0.27427,-0.35302 0.42432,-0.64665 0.46032,-1.30026 -0.23409,-2.56066 -0.92612,-3.6381 -0.64042,-0.91543 -1.39819,-1.71905 -2.42386,-2.18254 -0.29816,0.028 -0.16991,-0.0351 -0.37508,0.20769 1.89165,-1.05822 3.75399,-2.1706 5.67494,-3.17466 0.13414,-0.0701 -0.20778,0.22398 -0.28208,0.35586 -0.23742,0.4214 -0.31589,0.8614 -0.4381,1.32488 -0.26839,1.41847 -0.48384,2.97214 0.18809,4.32331 0.11465,0.23056 0.2847,0.42913 0.42705,0.6437 0.93553,1.05227 2.28274,1.39283 3.64624,1.34497 0.17574,-0.0484 0.36315,-0.0659 0.52721,-0.14533 0.16408,-0.0795 0.60073,-0.41134 0.44097,-0.32352 -1.81388,0.99702 -3.57729,2.08556 -5.40703,3.05318 -0.15417,0.0815 0.25733,-0.2394 0.35694,-0.38256 0.27698,-0.39811 0.3205,-0.69043 0.45863,-1.15378 0.33371,-1.65109 -0.368,-2.94819 -1.4582,-4.12414 -0.44882,-0.37668 -0.94862,-0.76527 -1.53301,-0.9084 -0.1535,-0.0376 -0.3169,-0.069 -0.47237,-0.0406 -0.13731,0.0251 -0.49294,0.26205 -0.3708,0.19451 1.8275,-1.01057 3.65796,-2.01575 5.48695,-3.02362 -1.14212,0.94469 -1.06627,2.12984 -0.5436,3.3869 0.74149,1.25343 1.96646,1.88937 3.4003,1.80196 0.19344,-0.0558 0.40012,-0.0777 0.58033,-0.16752 0.17541,-0.0874 0.64064,-0.44891 0.46859,-0.35507 -1.80958,0.98691 -3.5592,2.08318 -5.38636,3.03714 -0.15969,0.0834 0.25585,-0.25752 0.353,-0.40922 0.25214,-0.39367 0.21723,-0.55048 0.27212,-1.00582 -0.0832,-0.90886 -0.77224,-1.31871 -1.49976,-1.72579 0,0 5.70359,-3.68068 5.70359,-3.68068 l 0,0 c 0.88543,0.59119 1.671,1.22808 1.86535,2.34121 0.007,0.23315 0.0406,0.46701 0.0211,0.69944 -0.0174,0.20667 -0.19896,1.06746 -0.41064,1.20963 -2.0601,1.38362 -4.64123,3.8377 -7.47765,4.02965 -1.62627,-0.19986 -2.96487,-1.01593 -3.80085,-2.45596 -0.68639,-1.56936 -0.79799,-2.69735 0.10456,-4.21727 4.59761,-2.6078 5.68305,-5.27836 9.0329,-2.2165 1.17415,1.35708 1.99368,2.83492 1.78185,4.69276 -0.099,0.52336 -0.13784,0.87473 -0.33542,1.36865 -1.12278,2.80681 -4.7646,4.20579 -7.66867,4.49524 -1.5486,-0.15183 -2.98208,-0.63831 -3.97411,-1.90903 -0.16435,-0.25895 -0.35632,-0.5023 -0.49304,-0.77684 -0.7269,-1.45958 -0.6278,-3.09887 -0.37932,-4.65783 0.0325,-0.18595 0.32261,-1.88184 0.48886,-1.99164 2.14994,-1.4201 4.28448,-4.56609 6.75052,-3.41289 1.04337,0.62554 1.86583,1.5122 2.53956,2.52209 0.79314,1.23531 1.56038,2.65421 1.2822,4.16834 -0.88718,3.15834 -4.75359,4.70722 -7.88039,5.06191 -1.41909,-0.0292 -2.77165,-0.37938 -3.93321,-1.23002 -1.10289,-0.94522 -1.91463,-2.02439 -1.7827,-3.55504 0.18655,-1.18062 0.54605,-2.21652 1.3744,-3.11083 2.13043,-2.06347 0.55537,-0.60176 6.7126,-4.05523 0.72519,-0.40674 1.65055,-0.34266 2.43763,-0.25867 1.35952,0.32084 2.56795,1.0028 3.67203,1.85345 0,0 -5.7923,3.62216 -5.7923,3.62216 z" />
      <path
         style="fill:#000000;fill-opacity:1;stroke:none;stroke-width:3.5;stroke-linecap:square;stroke-linejoin:round;stroke-miterlimit:4;stroke-dasharray:none;stroke-opacity:1"
         id="path4428"
         d="m 169.38569,844.46181 c -0.67182,-0.54116 -1.52333,-1.44883 -2.49349,-1.27571 -0.1786,0.0319 -0.33846,0.13076 -0.50769,0.19614 -2.701,1.50672 3.15711,-1.82072 4.76892,-2.66986 0.19472,-0.10258 -0.34382,0.27663 -0.49704,0.43463 -0.50402,0.51973 -0.75839,1.10769 -1.01398,1.77119 -0.4983,1.61536 -0.43926,2.53699 0.51083,3.92673 0.93868,1.16594 2.30136,1.56944 3.71711,1.80813 0.54499,0.0135 1.13088,-0.0619 1.62906,-0.30466 0.12934,-0.063 0.48011,-0.31651 0.35465,-0.24607 -5.4589,3.06485 -7.1129,4.51527 -5.17566,2.85769 0.87085,-1.23655 0.4954,-2.63815 0.0194,-3.94435 -0.70801,-1.52566 -1.80331,-2.72225 -3.28651,-3.50085 -0.40502,-0.19482 -0.87725,-0.38662 -1.31414,-0.13969 -0.13425,0.0759 -0.48557,0.37568 -0.34958,0.30298 5.49503,-2.93747 6.5712,-4.77487 5.08742,-2.49061 -0.64709,1.60253 -0.77403,2.87848 -0.25752,4.52474 0.71085,1.49853 2.11237,2.05267 3.63654,2.38997 0.75259,0.0758 1.50848,0.0153 2.21756,-0.26526 0.20401,-0.0807 0.77504,-0.41139 0.5844,-0.30279 -5.63231,3.20837 -6.94496,4.28183 -4.96651,2.71308 0.91966,-1.0334 0.55384,-2.14916 -0.10031,-3.2084 -0.97709,-1.4066 -2.43349,-2.21282 -4.03192,-2.71122 -0.52555,-0.0596 -0.72086,-0.13594 -1.22559,-0.003 -0.16657,0.0439 -0.62644,0.28453 -0.47669,0.19944 10.34778,-5.87992 6.05996,-4.20262 4.81812,-2.30639 -0.44981,1.0961 -0.50237,2.23693 -0.17641,3.36502 0.17718,0.46914 0.0864,0.25234 0.26695,0.65263 0,0 -5.97264,3.3529 -5.97264,3.3529 l 0,0 c -0.185,-0.45716 -0.091,-0.21082 -0.27777,-0.74067 -0.38371,-1.31613 -0.39313,-2.47424 -0.0395,-3.80961 1.11131,-3.24141 5.41669,-5.36873 8.6919,-4.50615 1.6907,0.64053 3.21689,1.59151 4.26671,3.10326 0.81435,1.26976 1.27725,2.56207 0.54998,3.99304 -1.80193,2.35911 -0.39024,0.62865 -6.66127,4.10936 -0.29896,0.16594 -1.0895,0.2951 -1.40113,0.31938 -0.7315,0.057 -0.91229,-0.0104 -1.64065,-0.11414 -1.70335,-0.49302 -3.20224,-1.28876 -3.98811,-2.96958 -0.2141,-0.62529 -0.38748,-1.01246 -0.45286,-1.67712 -0.10932,-1.11125 0.19513,-2.24102 0.45057,-3.30885 1.11502,-2.92421 0.156,-0.81782 6.43703,-4.55967 0.62444,-0.372 1.48013,0.11468 2.01867,0.3893 1.53384,0.95712 2.71386,2.27677 3.49107,3.92008 0.5837,1.4918 0.99144,2.97879 0.35693,4.53378 -1.26327,2.32808 -5.56823,4.6294 -8.65331,4.26302 -1.55001,-0.36286 -2.98645,-0.95921 -3.99319,-2.2567 -1.03925,-1.54824 -1.26706,-2.64731 -0.80514,-4.48056 0.15966,-0.5249 0.25996,-0.93173 0.5062,-1.42711 0.13378,-0.26914 0.55666,-0.96809 0.83449,-1.14261 5.81785,-3.65439 4.05169,-3.07366 6.9753,-3.94264 0.2164,-0.005 0.43411,-0.0389 0.64918,-0.0145 1.0646,0.12071 1.8962,0.96694 2.71201,1.57024 0,0 -5.7923,3.62216 -5.7923,3.62216 z" />
      <path
         style="fill:#000000;fill-opacity:1;stroke:none;stroke-width:3.5;stroke-linecap:square;stroke-linejoin:round;stroke-miterlimit:4;stroke-dasharray:none;stroke-opacity:1"
         id="path4430"
         d="m 142.65465,870.67784 c 1.01302,1.70949 2.07257,3.39135 3.11764,5.08151 0.96182,1.73221 2.13029,3.32353 3.35684,4.87309 1.17096,1.6482 2.61902,3.0663 4.09067,4.44196 1.41533,1.2665 2.99072,2.30012 4.74471,3.0236 1.886,0.67336 3.86014,0.92124 5.84462,1.07278 2.29373,0.19163 4.58562,0.07 6.8385,-0.38808 2.03271,-0.33632 3.94793,-1.08608 5.82482,-1.9078 0.30714,-0.14184 0.61526,-0.28159 0.92143,-0.42553 0.69403,-0.32629 1.11507,-0.52292 1.7796,-0.89793 0.26487,-0.14947 1.04673,-0.61984 0.78259,-0.46909 -4.8244,2.75329 -6.70398,3.94161 -4.29014,2.43139 1.58205,-0.98632 2.88334,-2.29829 4.01628,-3.76438 1.3171,-1.90404 2.43584,-3.9249 3.3483,-6.05014 0.79346,-1.92368 1.30222,-3.92347 1.57706,-5.98093 0.19735,-1.66171 0.103,-3.34753 -0.3675,-4.95468 -0.29009,-0.82436 -0.77764,-1.45459 -1.50355,-1.92471 0,0 5.78729,-3.67132 5.78729,-3.67132 l 0,0 c 0.77913,0.6275 1.34622,1.38885 1.67767,2.34404 0.48384,1.69209 0.63197,3.47139 0.44133,5.22247 -0.23036,2.12124 -0.73236,4.17404 -1.52091,6.16149 -0.89498,2.16365 -1.98048,4.21927 -3.2639,6.1817 -1.06038,1.54827 -2.33512,2.92046 -3.89252,3.98432 -3.43069,2.25649 -7.01742,4.32384 -10.776,5.98681 -1.90582,0.79049 -3.85547,1.46818 -5.9043,1.78018 -2.2979,0.37233 -4.62169,0.45221 -6.94297,0.24513 -2.04068,-0.18391 -4.07986,-0.47497 -5.99782,-1.23471 -1.7845,-0.8147 -3.40218,-1.90505 -4.85249,-3.23071 -1.4858,-1.40831 -2.95724,-2.84764 -4.14719,-4.52286 -1.24215,-1.57077 -2.42179,-3.18665 -3.38926,-4.94559 -1.05054,-1.71178 -2.09471,-3.42825 -3.22831,-5.08698 0,0 5.92751,-3.37503 5.92751,-3.37503 z" />
    </g>
  </g>
</svg>
