<?xml version="1.0" encoding="UTF-8" standalone="no"?>
<!-- Created with Inkscape (http://www.inkscape.org/) -->

<svg
   xmlns:dc="http://purl.org/dc/elements/1.1/"
   xmlns:cc="http://creativecommons.org/ns#"
   xmlns:rdf="http://www.w3.org/1999/02/22-rdf-syntax-ns#"
   xmlns:svg="http://www.w3.org/2000/svg"
   xmlns="http://www.w3.org/2000/svg"
   xmlns:xlink="http://www.w3.org/1999/xlink"
   xmlns:sodipodi="http://sodipodi.sourceforge.net/DTD/sodipodi-0.dtd"
   xmlns:inkscape="http://www.inkscape.org/namespaces/inkscape"
   width="700"
   height="700"
   viewBox="0 0 699.99998 699.99997"
   id="svg4225"
   version="1.1"
   inkscape:version="0.91 r13725"
   sodipodi:docname="kitty--one.svg"
   inkscape:export-filename="/Users/jhey/Documents/Workspace/Drawings/kitty--one.png"
   inkscape:export-xdpi="606.41974"
   inkscape:export-ydpi="606.41974">
  <defs
     id="defs4227">
    <linearGradient
       id="linearGradient4995">
      <stop
         style="stop-color:#000000;stop-opacity:0.94117647;"
         offset="0"
         id="stop6487" />
      <stop
         id="stop6513"
         offset="0.24615385"
         style="stop-color:#f7f7f7;stop-opacity:0.90980392;" />
      <stop
         style="stop-color:#000000;stop-opacity:0.89411765;"
         offset="0.46650887"
         id="stop6515" />
      <stop
         id="stop6511"
         offset="1"
         style="stop-color:#000000;stop-opacity:0.88235301;" />
    </linearGradient>
    <linearGradient
       inkscape:collect="always"
       xlink:href="#linearGradient4995"
       id="linearGradient5001"
       x1="212.28279"
       y1="606.09768"
       x2="430.49851"
       y2="606.09768"
       gradientUnits="userSpaceOnUse"
       gradientTransform="translate(7.0710678,1.0101525)" />
    <linearGradient
       inkscape:collect="always"
       xlink:href="#linearGradient4995"
       id="linearGradient6499"
       x1="500"
       y1="592.36224"
       x2="780"
       y2="592.36224"
       gradientUnits="userSpaceOnUse" />
  </defs>
  <sodipodi:namedview
     id="base"
     pagecolor="#ffffff"
     bordercolor="#666666"
     borderopacity="1.0"
     inkscape:pageopacity="0.0"
     inkscape:pageshadow="2"
     inkscape:zoom="0.7"
     inkscape:cx="463.1509"
     inkscape:cy="317.96949"
     inkscape:document-units="px"
     inkscape:current-layer="layer1"
     showgrid="true"
     units="px"
     inkscape:window-width="1920"
     inkscape:window-height="1035"
     inkscape:window-x="0"
     inkscape:window-y="1"
     inkscape:window-maximized="1">
    <inkscape:grid
       type="xygrid"
       id="grid4773" />
  </sodipodi:namedview>
  <metadata
     id="metadata4230">
    <rdf:RDF>
      <cc:Work
         rdf:about="">
        <dc:format>image/svg+xml</dc:format>
        <dc:type
           rdf:resource="http://purl.org/dc/dcmitype/StillImage" />
        <dc:title></dc:title>
      </cc:Work>
    </rdf:RDF>
  </metadata>
  <g
     inkscape:label="Layer 1"
     inkscape:groupmode="layer"
     id="layer1"
     transform="translate(0,-352.36225)">
    <g
       id="g4972">
      <g
         transform="translate(26.263966,4.5351726e-8)"
         id="g4875">
        <path
           style="fill:#b3b3b3;fill-opacity:1;stroke:#000000;stroke-width:8.96303368;stroke-linecap:round;stroke-linejoin:round;stroke-miterlimit:4;stroke-dasharray:none;stroke-opacity:1"
           d="m 583.07784,635.64317 14.74777,-3.03046 c 16.49916,5.05076 -82.96695,-47.88111 49.49748,15.15229 19.2512,69.365 15.88976,105.97983 -2.02031,156.97113 l -47.47717,14.14215 -14.74777,-14.14214 -1e-5,-10e-6 z"
           id="rect4858"
           inkscape:connector-curvature="0"
           sodipodi:nodetypes="cccccccc" />
        <path
           style="fill:#b3b3b3;fill-opacity:1;stroke:#000000;stroke-width:8.05599976;stroke-linecap:round;stroke-linejoin:round;stroke-miterlimit:4;stroke-dasharray:none;stroke-opacity:1"
           d="m 190.71069,616.30132 29.2893,6.06092 1e-5,10e-6 0,189.99999 -1e-5,0 -45.45174,22.22336 -45.45688,-19.1929 c -22.31915,-49.73659 -18.35138,-114.51127 4.04061,-164.74618 z"
           id="rect4855"
           inkscape:connector-curvature="0"
           sodipodi:nodetypes="ccccccccc" />
        <path
           style="fill:#b3b3b3;fill-opacity:1;stroke:#000000;stroke-width:8.05599976;stroke-linecap:round;stroke-linejoin:round;stroke-miterlimit:4;stroke-dasharray:none;stroke-opacity:1"
           d="m 284.04572,465.3927 c 86.83247,-17.80192 173.66494,-15.17371 260.49741,2.02031 l 68.69038,-77.78174 c 23.29685,157.8315 21.28813,482.53762 -9.09137,637.68533 l -89.90359,0 C 389.34762,931.62616 410,984.38256 294.14724,1027.3166 l -119.198,-1.0102 C 153.68359,865.08283 170,542.36225 206.26397,395.69218 Z"
           id="rect4852"
           inkscape:connector-curvature="0"
           sodipodi:nodetypes="ccccccccc" />
      </g>
      <path
         inkscape:connector-curvature="0"
         id="path4892"
         d="m 190,842.36225 c -1.71403,-1.38411 -3.31599,-2.91985 -5.14208,-4.15234 -0.2411,-0.16272 -3.52869,0 -4.04061,0 -2.69374,0 -5.38748,0 -8.08122,0 -0.45493,0 -2.72304,-0.15371 -3.03046,0 -0.42592,0.21296 -0.58424,0.79719 -1.01015,1.01015 -0.60234,0.30117 -1.54412,-0.47619 -2.02031,0 -0.2381,0.2381 0.2381,0.77206 0,1.01016 -0.2381,0.23809 -0.70898,-0.15059 -1.01015,0 -0.42592,0.21295 -0.58424,0.79719 -1.01016,1.01015 -0.30116,0.15058 -0.77205,-0.2381 -1.01015,0 -0.23809,0.23809 0.2381,0.77206 0,1.01015 -0.23809,0.2381 -0.70898,-0.15058 -1.01015,0 -0.42592,0.21296 -0.58424,0.79719 -1.01015,1.01015 -0.30117,0.15059 -0.77206,-0.23809 -1.01016,0 -0.23809,0.2381 0.2381,0.77206 0,1.01016 -0.23809,0.23809 -0.77205,-0.2381 -1.01015,0 -0.23809,0.23809 0.2381,0.77205 0,1.01015 -0.23809,0.23809 -0.77206,-0.2381 -1.01015,0 -0.2381,0.23809 0.23809,0.77206 0,1.01015 -0.2381,0.2381 -0.77206,-0.23809 -1.01015,0 -0.2381,0.2381 0.23809,0.77206 0,1.01015 -0.2381,0.2381 -0.77206,-0.23809 -1.01016,0 -0.47619,0.47619 0.4762,1.54412 0,2.02031 -0.23809,0.23809 -0.77205,-0.2381 -1.01015,0 -0.23809,0.23809 0.15059,0.70898 0,1.01015 -0.21296,0.42592 -0.79719,0.58424 -1.01015,1.01015 -0.15059,0.30117 0.23809,0.77206 0,1.01016 -0.2381,0.23809 -0.77206,-0.2381 -1.01015,0 -0.47619,0.47619 0.47619,1.54411 0,2.0203 -0.2381,0.2381 -0.77206,-0.23809 -1.01016,0 -0.23809,0.2381 0.15059,0.70898 0,1.01015 -3.35025,3.35026 0.47619,-0.95238 -1.01015,2.02031 -3.35025,3.35025 0.47619,-0.95238 -1.01015,2.0203 -0.21296,0.42592 -0.79719,0.58424 -1.01015,1.01016 -0.15059,0.30117 0.23809,0.77205 0,1.01015 -0.2381,0.23809 -0.77206,-0.2381 -1.01016,0 -0.47619,0.47619 0.47619,1.54411 0,2.0203 -0.23809,0.2381 -0.77205,-0.23809 -1.01015,0 -0.47619,0.47619 0.47619,1.54412 0,2.02031 -0.23809,0.23809 -0.77206,-0.2381 -1.01015,0 -0.2381,0.23809 0.23809,0.77206 0,1.01015 -0.2381,0.2381 -0.77206,-0.23809 -1.01015,0 -2.09005,2.09004 3.19386,-0.0817 -1.01016,2.02031 -0.30117,0.15058 -0.77205,-0.2381 -1.01015,0 -2.09004,2.09004 3.19386,-0.0817 -1.01015,2.0203 -2.69374,0 0.33672,-0.33672 -1.01015,1.01015 -0.2381,0.2381 -0.77206,-0.23809 -1.01016,0 -0.23809,0.2381 0.2381,0.77206 0,1.01016 -0.23809,0.23809 -0.77205,-0.2381 -1.01015,0 -0.23809,0.23809 0.2381,0.77205 0,1.01015 -0.23809,0.23809 -0.70898,-0.15059 -1.01015,0 -0.42592,0.21296 -0.58424,0.79719 -1.01015,1.01015 -0.30117,0.15059 -0.77206,-0.23809 -1.01016,0 -0.23809,0.2381 0.2381,0.77206 0,1.01015 -0.47619,0.4762 -1.54411,-0.47619 -2.0203,0 -0.2381,0.2381 0,0.67344 0,1.01016 -0.33672,0 -0.70898,-0.15059 -1.01015,0 -0.42592,0.21296 -0.58424,0.79719 -1.01016,1.01015 -0.30117,0.15058 -0.70898,-0.15058 -1.01015,0 -0.42592,0.21296 -0.58423,0.79719 -1.01015,1.01015 -0.30743,0.15371 -2.57553,0 -3.03046,0 -2.69374,0 -5.38748,0 -8.08122,0 -0.37096,0 -3.99996,0.0406 -4.04061,0 -0.2381,-0.23809 0.2381,-0.77206 0,-1.01015 -0.47619,-0.47619 -1.54411,0.47619 -2.0203,0 -0.2381,-0.2381 0.23809,-0.77206 0,-1.01015 -0.4762,-0.47619 -1.54412,0.47619 -2.02031,0 -0.2381,-0.2381 0.2381,-0.77206 0,-1.01016 -0.47619,-0.47619 -1.54411,0.4762 -2.02031,0 -0.23809,-0.23809 0.2381,-0.77205 0,-1.01015 -0.23809,-0.23809 -0.70898,0.15059 -1.01015,0 -0.42592,-0.21296 -0.58423,-0.79719 -1.01015,-1.01015 -0.30117,-0.15059 -0.77206,0.23809 -1.01015,0 -0.2381,-0.2381 0.23809,-0.77206 0,-1.01015 -0.2381,-0.2381 -0.77206,0.23809 -1.01016,0 -0.23809,-0.2381 0.2381,-0.77206 0,-1.01016 -0.23809,-0.23809 -0.70898,0.15059 -1.01015,0 -0.42592,-0.21295 -0.58423,-0.79719 -1.01015,-1.01015 -0.30117,-0.15058 -0.77206,0.2381 -1.01015,0 -0.2381,-0.23809 0.23809,-0.77206 0,-1.01015 -0.2381,-0.2381 -0.77206,0.23809 -1.01016,0 -0.23809,-0.2381 0.2381,-0.77206 0,-1.01015 -0.23809,-0.2381 -0.70898,0.15058 -1.01015,0 -4.204011,-2.10201 1.07989,0.0697 -1.010151,-2.02031 -0.238095,-0.23809 -0.772057,0.2381 -1.010152,0 -0.238095,-0.23809 0.238095,-0.77206 0,-1.01015 -0.238095,-0.2381 -0.772057,0.23809 -1.010153,0 -0.238095,-0.2381 0.150585,-0.70898 0,-1.01015 -0.212959,-0.42592 -0.797193,-0.58424 -1.010152,-1.01016 -0.150585,-0.30117 0.238095,-0.77205 0,-1.01015 -0.238095,-0.23809 -0.772057,0.2381 -1.010153,0 -0.238095,-0.23809 0.150585,-0.70898 0,-1.01015 -0.212959,-0.42592 -0.797193,-0.58424 -1.010152,-1.01015 -0.150585,-0.30117 0.150584,-0.70899 0,-1.01016 -0.212959,-0.42591 -0.797194,-0.58423 -1.010153,-1.01015 -0.150584,-0.30117 0.150585,-0.70898 0,-1.01015 -0.212959,-0.42592 -0.797194,-0.58424 -1.010152,-1.01015 -0.150585,-0.30117 0.238095,-0.77206 0,-1.01016 -0.238096,-0.23809 -0.772058,0.2381 -1.010153,0 -0.47619,-0.47619 0.301169,-1.41796 0,-2.0203 -0.212959,-0.42592 -0.797194,-0.58424 -1.010152,-1.01015 -0.30117,-0.60234 0.47619,-1.54412 0,-2.02031 -0.238096,-0.23809 -0.772058,0.2381 -1.010153,0 -0.47619,-0.47619 0.47619,-1.54411 0,-2.0203 -0.238095,-0.2381 -0.772057,0.23809 -1.010153,0 -0.47619,-0.47619 0.30117,-1.41797 0,-2.02031 -0.212958,-0.42592 -0.797193,-0.58423 -1.010152,-1.01015 -0.150585,-0.30117 0.150585,-0.70899 0,-1.01015 -0.212959,-0.42592 -0.797194,-0.58424 -1.010153,-1.01016 -0.150584,-0.30117 0.238096,-0.77205 0,-1.01015 -0.238095,-0.23809 -0.772057,0.2381 -1.010152,0 -0.238095,-0.23809 0.150584,-0.70898 0,-1.01015 -0.212959,-0.42592 -0.797194,-0.58424 -1.010153,-1.01015 -0.150584,-0.30117 0.238096,-0.77206 0,-1.01016 -0.238095,-0.23809 -0.772057,0.2381 -1.010152,0 -0.238096,-0.23809 0.238095,-0.77205 0,-1.01015 -0.238096,-0.23809 -0.772058,0.2381 -1.010153,0 -0.238095,-0.23809 0.150585,-0.70898 0,-1.01015 -0.425918,-0.85184 -1.594387,-1.16847 -2.020305,-2.02031 -0.150585,-0.30117 0.238095,-0.77205 0,-1.01015 -0.238095,-0.2381 -0.772057,0.2381 -1.010152,0 -0.238096,-0.2381 0.238095,-0.77206 0,-1.01015 -0.238096,-0.2381 -0.772058,0.23809 -1.010153,0 -0.47619,-0.47619 0.47619,-1.54412 0,-2.02031 -0.238095,-0.23809 -0.708983,0.15059 -1.010153,0 -0.425917,-0.21296 -0.584234,-0.79719 -1.010152,-1.01015 -0.301169,-0.15058 -0.772057,0.2381 -1.010153,0 -0.238095,-0.2381 0.238096,-0.77206 0,-1.01015 -0.238095,-0.2381 -0.772057,0.23809 -1.010152,0 -0.238095,-0.2381 0.238095,-0.77206 0,-1.01016 -0.238095,-0.23809 -0.772057,0.2381 -1.010153,0 -0.238095,-0.23809 0.238096,-0.77205 0,-1.01015 -0.47619,-0.47619 -1.544114,0.47619 -2.020305,0 -0.238095,-0.23809 0.238095,-0.77205 0,-1.01015 -0.47619,-0.47619 -1.544114,0.47619 -2.020305,0 -0.238095,-0.2381 0.238095,-0.77206 0,-1.01015 -0.238095,-0.2381 -0.708983,0.15058 -1.010152,0 -0.425918,-0.21296 -0.584235,-0.7972 -1.010153,-1.01016 -0.400517,-0.20025 -2.823946,0.20652 -3.030458,0 -0.238095,-0.23809 0.238096,-0.77205 0,-1.01015 -0.238095,-0.23809 -0.673435,0 -1.010152,0 -0.336718,0 -0.673435,0 -1.010153,0 -2.69374,0 -5.38748,0 -8.08122,0 -0.336718,0 -0.772057,-0.23809 -1.010153,0 -0.238095,0.2381 0.238096,0.77206 0,1.01015 -0.238095,0.2381 -0.772057,-0.23809 -1.010152,0 -0.238095,0.2381 0.238095,0.77206 0,1.01016 -0.238095,0.23809 -0.708983,-0.15059 -1.010153,0 -0.425917,0.21296 -0.584235,0.79719 -1.010152,1.01015 -0.30117,0.15058 -0.772058,-0.2381 -1.010153,0 -0.238095,0.2381 0.238095,0.77206 0,1.01015 -0.238095,0.2381 -0.772057,-0.23809 -1.010152,0 -0.238096,0.2381 0.238095,0.77206 0,1.01015 -0.238096,0.2381 -0.772058,-0.23809 -1.010153,0 -0.238095,0.2381 0.150585,0.70899 0,1.01016 -0.212959,0.42592 -0.797194,0.58423 -1.010152,1.01015 -0.150585,0.30117 0.150584,0.70898 0,1.01015 -0.212959,0.42592 -0.797194,0.58424 -1.010153,1.01016 -0.301169,0.60233 0.47619,1.54411 0,2.0203 -0.238095,0.2381 -0.772057,-0.2381 -1.010153,0 -0.2764,0.2764 0.273998,3.49262 0,4.04061 -0.212958,0.42592 -0.797193,0.58424 -1.010152,1.01015 -0.182653,0.36531 0,4.34816 0,5.05077 0,3.70389 0,7.40778 0,11.11167 0,2.69374 0,5.38748 0,8.08122 0,0.33672 0,0.67344 0,1.01016 0,0.33671 -0.238095,0.77205 0,1.01015 0.238095,0.23809 0.772057,-0.2381 1.010152,0 0.238096,0.23809 0,0.67343 0,1.01015 0,0.7026 -0.182652,4.68546 0,5.05076 0.212959,0.42592 0.797194,0.58424 1.010153,1.01016 0.301169,0.60234 -0.301169,1.41796 0,2.0203 0.212959,0.42592 0.797194,0.58424 1.010153,1.01015 0.404061,0.80813 -0.404061,2.22234 0,3.03046 0.212958,0.42592 0.797193,0.58424 1.010152,1.01015 0.301169,0.60234 -0.301169,1.41797 0,2.02031 0.425918,0.85184 1.594387,1.16847 2.020305,2.0203 0.301169,0.60234 -0.301169,1.41797 0,2.02031 0.212959,0.42592 0.797194,0.58423 1.010153,1.01015 0.150584,0.30117 -0.150585,0.70899 0,1.01016 0.212959,0.42591 0.797193,0.58423 1.010152,1.01015 0.30117,0.60234 -0.47619,1.54411 0,2.0203 0.238096,0.2381 0.772058,-0.23809 1.010153,0 0.47619,0.47619 -0.301169,1.41797 0,2.02031 0.212959,0.42592 0.797194,0.58423 1.010152,1.01015 0.150585,0.30117 -0.238095,0.77206 0,1.01015 0.238096,0.2381 0.772058,-0.23809 1.010153,0 0.238095,0.2381 -0.150585,0.70899 0,1.01016 0.212959,0.42591 0.797194,0.58423 1.010152,1.01015 0.150585,0.30117 -0.238095,0.77206 0,1.01015 0.238096,0.2381 0.772058,-0.23809 1.010153,0 0.47619,0.47619 -0.47619,1.54412 0,2.02031 0.238095,0.23809 0.772057,-0.2381 1.010153,0 0.238095,0.23809 -0.238096,0.77205 0,1.01015 0.238095,0.23809 0.772057,-0.2381 1.010152,0 0.238095,0.23809 -0.150585,0.70898 0,1.01015 0.134103,0.26821 2.762251,2.89636 3.030458,3.03046 0.301169,0.15058 0.772057,-0.2381 1.010152,0 0.238096,0.23809 -0.238095,0.77206 0,1.01015 0.238096,0.2381 0.772058,-0.23809 1.010153,0 0.238095,0.2381 -0.150585,0.70898 0,1.01015 0.212959,0.42592 0.673435,0.67344 1.010152,1.01016 0.336718,0.33671 0.584235,0.79719 1.010153,1.01015 0.301169,0.15058 0.772057,-0.2381 1.010152,0 0.238096,0.23809 -0.238095,0.77206 0,1.01015 0.238096,0.2381 0.772058,-0.23809 1.010153,0 0.238095,0.2381 -0.238095,0.77206 0,1.01015 0.238095,0.2381 0.708983,-0.15058 1.010153,0 0.425917,0.21296 0.584234,0.7972 1.010152,1.01016 0.301169,0.15058 0.772057,-0.2381 1.010153,0 0.238095,0.23809 -0.238096,0.77205 0,1.01015 0.47619,0.47619 1.544114,-0.47619 2.020305,0 0.238095,0.23809 -0.238096,0.77206 0,1.01015 0.47619,0.47619 1.544114,-0.47619 2.020305,0 0.238095,0.2381 -0.238095,0.77206 0,1.01015 0.47619,0.47619 1.544114,-0.47619 2.020305,0 0.238095,0.2381 -0.238095,0.77206 0,1.01016 0.47619,0.47619 1.417966,-0.30117 2.020305,0 0.425918,0.21296 0.584235,0.79719 1.010153,1.01015 0.602338,0.30117 1.544114,-0.47619 2.020305,0 0.238095,0.23809 -0.238096,0.77206 0,1.01015 0.206512,0.20651 2.62994,-0.20026 3.030457,0 0.425918,0.21296 0.584235,0.7972 1.010153,1.01015 0.307424,0.15372 2.575528,0 3.030457,0 2.020306,0 4.040611,0 6.060916,0 5.724197,0 11.448393,0 17.172593,0 0.24499,0 2.99797,0.0325 3.03046,0 0.23809,-0.23809 -0.2381,-0.77205 0,-1.01015 0.50507,-0.50507 2.52538,0.50508 3.03046,0 0.23809,-0.23809 -0.2381,-0.77206 0,-1.01015 0.47619,-0.47619 1.41796,0.30117 2.0203,0 0.42592,-0.21296 0.58424,-0.79719 1.01015,-1.01015 0.60234,-0.30117 1.54412,0.47619 2.02031,0 0.23809,-0.2381 -0.2381,-0.77206 0,-1.01016 0.47619,-0.47619 1.41796,0.30117 2.0203,0 0.42592,-0.21296 0.58424,-0.79719 1.01016,-1.01015 0.30116,-0.15058 0.70898,0.15059 1.01015,0 0.42592,-0.21296 0.58423,-0.79719 1.01015,-1.01015 0.30117,-0.15059 0.70898,0.15058 1.01015,0 0.42592,-0.21296 0.58424,-0.79719 1.01016,-1.01015 0.30117,-0.15059 0.77205,0.23809 1.01015,0 0.23809,-0.2381 -0.2381,-0.77206 0,-1.01016 0.23809,-0.23809 0.70898,0.15059 1.01015,0 0.42592,-0.21296 0.58424,-0.79719 1.01015,-1.01015 0.30117,-0.15058 0.70899,0.15059 1.01016,0 0.42591,-0.21296 0.58423,-0.79719 1.01015,-1.01015 0.30117,-0.15059 0.70898,0.15058 1.01015,0 1.21218,-0.60609 1.81828,-2.42437 3.03046,-3.03046 0.30117,-0.15058 0.77206,0.2381 1.01015,0 0.2381,-0.23809 -0.23809,-0.77206 0,-1.01015 0.2381,-0.2381 0.77206,0.23809 1.01015,0 0.2381,-0.2381 -0.23809,-0.77206 0,-1.01015 0.2381,-0.2381 0.77206,0.23809 1.01016,0 0.23809,-0.2381 -0.2381,-0.77206 0,-1.01016 0.23809,-0.23809 0.77205,0.2381 1.01015,0 0.23809,-0.23809 -0.15059,-0.70898 0,-1.01015 0.21296,-0.42592 0.79719,-0.58423 1.01015,-1.01015 0.15059,-0.30117 -0.23809,-0.77206 0,-1.01015 0.2381,-0.2381 0.77206,0.23809 1.01015,0 0.2381,-0.2381 -0.15058,-0.70899 0,-1.01016 0.21296,-0.42591 0.7972,-0.58423 1.01016,-1.01015 0.15058,-0.30117 -0.2381,-0.77206 0,-1.01015 0.23809,-0.2381 0.77205,0.23809 1.01015,0 0.23809,-0.2381 -0.15059,-0.70899 0,-1.01015 0.21296,-0.42592 0.79719,-0.58424 1.01015,-1.01016 0.30117,-0.60234 -0.47619,-1.54411 0,-2.0203 0.2381,-0.2381 0.77206,0.23809 1.01015,0 0.47619,-0.47619 -0.47619,-1.54412 0,-2.02031 0.2381,-0.23809 0.77206,0.2381 1.01016,0 0.23809,-0.23809 -0.2381,-0.77205 0,-1.01015 0.23809,-0.2381 0.77205,0.2381 1.01015,0 0.47619,-0.47619 -0.47619,-1.54411 0,-2.0203 0.23809,-0.2381 0.77206,0.23809 1.01015,0 0.47619,-0.4762 -0.47619,-1.54412 0,-2.02031 0.2381,-0.2381 0.77206,0.2381 1.01015,0 0.2381,-0.2381 -0.15058,-0.70898 0,-1.01015 0.21296,-0.42592 0.7972,-0.58424 1.01016,-1.01016 0.15058,-0.30116 -0.15059,-0.70898 0,-1.01015 0.21296,-0.42592 0.79719,-0.58423 1.01015,-1.01015 0.15058,-0.30117 -0.15059,-0.70898 0,-1.01015 0.21296,-0.42592 0.79719,-0.58424 1.01015,-1.01016 0.15059,-0.30116 -0.15058,-0.70898 0,-1.01015 0.21296,-0.42592 0.7972,-0.58423 1.01015,-1.01015 0.15059,-0.30117 -0.15058,-0.70898 0,-1.01015 0.21296,-0.42592 0.7972,-0.58424 1.01016,-1.01016 0.15058,-0.30116 -0.2381,-0.77205 0,-1.01015 0.23809,-0.23809 0.77205,0.2381 1.01015,0 0.47619,-0.47619 -0.47619,-1.54411 0,-2.0203 0.23809,-0.2381 0.77206,0.23809 1.01015,0 0.2381,-0.2381 -0.23809,-0.77206 0,-1.01016 0.2381,-0.23809 0.77206,0.2381 1.01015,0 0.2381,-0.23809 -0.23809,-0.77205 0,-1.01015 0.2381,-0.23809 0.77206,0.2381 1.01016,0 0.23809,-0.23809 -0.2381,-0.77206 0,-1.01015 0.23809,-0.2381 0.77205,0.23809 1.01015,0 0.2381,-0.2381 -0.2381,-0.77206 0,-1.01015 0.2381,-0.2381 0.77206,0.23809 1.01015,0 0.2381,-0.2381 -0.23809,-0.77206 0,-1.01016 0.2381,-0.23809 0.77206,0.2381 1.01015,0 0.2381,-0.23809 -0.23809,-0.77205 0,-1.01015 0.2381,-0.23809 0.77206,0.2381 1.01016,0 0.23809,-0.23809 -0.2381,-0.77206 0,-1.01015 0.23809,-0.2381 0.77205,0.23809 1.01015,0 0.2381,-0.2381 -0.2381,-0.77206 0,-1.01015 0.2381,-0.2381 0.77206,0.23809 1.01015,0 0.2381,-0.2381 -0.23809,-0.77206 0,-1.01016 0.47619,-0.47619 1.54412,0.47619 2.02031,0 0.23809,-0.23809 -0.2381,-0.77205 0,-1.01015 0.23809,-0.23809 0.77205,0.2381 1.01015,0 0.2381,-0.23809 -0.2381,-0.77206 0,-1.01015 0.2381,-0.2381 0.77206,0.23809 1.01015,0 0.2381,-0.2381 -0.23809,-0.77206 0,-1.01015 0.47619,-0.47619 1.41797,0.30117 2.02031,0 0.42592,-0.21296 0.58423,-0.7972 1.01015,-1.01016 0.30117,-0.15058 0.77206,0.2381 1.01015,0 0.2381,-0.23809 -0.23809,-0.77205 0,-1.01015 0.47619,-0.47619 1.41797,0.30117 2.02031,0 0.42592,-0.21296 0.58423,-0.79719 1.01015,-1.01015 0.30117,-0.15059 0.77206,0.23809 1.01015,0 0.2381,-0.2381 -0.23809,-0.77206 0,-1.01015 0.50508,-0.50508 2.52538,0.50507 3.03046,0 0.2381,-0.2381 -0.23809,-0.77206 0,-1.01016 0.31279,-0.31279 4.73797,0.31279 5.05076,0 0.2381,-0.23809 -0.23809,-0.77205 0,-1.01015 0.47619,-0.47619 1.54412,0.47619 2.02031,0 0.0458,-0.0458 0,-4.57448 0,-5.05076 0,-0.33672 0.23809,-0.77206 0,-1.01015 -0.2381,-0.2381 -0.77206,0.23809 -1.01015,0 -0.2381,-0.2381 0,-0.67344 0,-1.01016 0,-0.33671 -0.0733,-0.68151 0,-1.01015 0.29605,-1.32751 1.29382,-2.58243 1.10147,-3.92888 -0.17846,-1.24925 -1.22222,-2.24696 -2.11163,-3.14219 -0.23731,-0.23887 -1.19796,-0.27947 -1.01015,0 0.82352,1.22544 2.08119,2.09479 3.12178,3.14219"
         style="fill:#cccccc;fill-rule:evenodd;stroke:#000000;stroke-width:8;stroke-linecap:butt;stroke-linejoin:round;stroke-opacity:1;fill-opacity:1;stroke-miterlimit:4;stroke-dasharray:none" />
    </g>
    <rect
       style="fill:#000000;fill-opacity:1;stroke:none;stroke-width:8;stroke-linecap:round;stroke-linejoin:round;stroke-miterlimit:4;stroke-dasharray:none;stroke-opacity:1"
       id="rect6517"
       width="560"
       height="30.000006"
       x="110"
       y="542.36224"
       ry="6.31379e-06" />
    <path
       style="fill:#000000;fill-opacity:1;stroke:#000000;stroke-width:8;stroke-linecap:round;stroke-linejoin:round;stroke-miterlimit:4;stroke-dasharray:none;stroke-opacity:1"
       id="path4944"
       sodipodi:type="arc"
       sodipodi:cx="114.74619"
       sodipodi:cy="571.30133"
       sodipodi:rx="20"
       sodipodi:ry="25"
       sodipodi:start="1.8157068"
       sodipodi:end="5.8968182"
       d="m 109.8968,595.55531 a 20,25 0 0 1 -15.138716,-25.11592 20,25 0 0 1 16.487406,-23.75212 20,25 0 0 1 22.02639,15.19342 l -18.52569,9.42064 z" />
    <path
       style="fill:url(#linearGradient5001);fill-opacity:1;stroke:#000000;stroke-width:8.55772591;stroke-linecap:round;stroke-linejoin:round;stroke-miterlimit:4;stroke-dasharray:none;stroke-opacity:1"
       d="m 223.7055,553.21942 c 0.1401,3.74985 0.30712,7.41852 0.29954,10.86287 -5.45672,64.67444 49.15499,99.45055 103.28185,96.76885 56.02893,-2.77594 112.32557,-23.68288 105.44714,-94.70784 0.27113,-10.29316 -1.59717,-6.16887 -0.0903,-12.92388 z"
       id="rect4902"
       inkscape:connector-curvature="0"
       sodipodi:nodetypes="ccsccc" />
    <path
       sodipodi:nodetypes="ccsccc"
       inkscape:connector-curvature="0"
       id="path5003"
       d="m 456.04059,556.24988 c 0.1401,3.74985 0.30712,7.41852 0.29954,10.86287 -5.45672,64.67444 49.15499,99.45055 103.28185,96.76885 56.02893,-2.77594 112.32557,-23.68288 105.44714,-94.70784 0.27113,-10.29316 -1.59717,-6.16887 -0.0903,-12.92388 z"
       style="fill:url(#linearGradient6499);fill-opacity:1.0;stroke:#000000;stroke-width:8.55772591;stroke-linecap:round;stroke-linejoin:round;stroke-miterlimit:4;stroke-dasharray:none;stroke-opacity:1" />
    <rect
       style="fill:#000000;fill-opacity:1;stroke:none;stroke-width:8;stroke-linecap:round;stroke-linejoin:round;stroke-miterlimit:4;stroke-dasharray:none;stroke-opacity:1"
       id="rect6539"
       width="7.8467245"
       height="29.795698"
       x="572.73059"
       y="545.00623"
       ry="3.7244623"
       transform="matrix(0.97170542,0.23619605,-0.21936415,0.97564305,0,0)" />
    <path
       style="fill:none;fill-rule:evenodd;stroke:#000000;stroke-width:8;stroke-linecap:round;stroke-linejoin:round;stroke-miterlimit:4;stroke-dasharray:none;stroke-opacity:1"
       d="m 456.78571,694.86225 c -0.11905,0.2381 -0.23809,0.47619 -0.35714,0.71429 -0.11905,0 -0.27294,-0.0842 -0.35714,0 -0.0842,0.0842 0.0842,0.27294 0,0.35714 -0.0842,0.0842 -0.25067,-0.0532 -0.35715,0 -0.15058,0.0753 -0.20656,0.28184 -0.35714,0.35714 -0.10648,0.0532 -0.27294,-0.0842 -0.35714,0 -0.0842,0.0842 0.0842,0.27294 0,0.35714 -0.16836,0.16836 -0.54593,-0.16836 -0.71429,0 -0.0842,0.0842 0.0842,0.27295 0,0.35715 -0.16836,0.16836 -0.54593,-0.16836 -0.71428,0 -0.0842,0.0842 0.0842,0.27294 0,0.35714 -0.0842,0.0842 -0.27295,-0.0842 -0.35715,0 -0.0842,0.0842 0.0842,0.27294 0,0.35714 -0.16836,0.16836 -0.50132,-0.10648 -0.71428,0 -0.15059,0.0753 -0.20656,0.28185 -0.35715,0.35715 -0.10648,0.0532 -0.27294,-0.0842 -0.35714,0 -0.0842,0.0842 0.0842,0.27294 0,0.35714 -0.16836,0.16836 -0.50133,-0.10648 -0.71429,0 -0.15058,0.0753 -0.23809,0.23809 -0.35714,0.35714 -0.11905,0 -0.25066,-0.0532 -0.35714,0 -0.15059,0.0753 -0.20656,0.28184 -0.35714,0.35714 -0.28572,0.14286 -0.78572,-0.14285 -1.07143,0 -0.15059,0.0753 -0.20656,0.28185 -0.35715,0.35715 -0.21295,0.10648 -0.50132,-0.10648 -0.71428,0 -0.15059,0.0753 -0.20656,0.28184 -0.35714,0.35714 -0.10869,0.0543 -0.91059,0 -1.07143,0 -0.95238,0 -1.90476,0 -2.85715,0 -0.13115,0 -1.41417,0.0144 -1.42857,0 -0.0842,-0.0842 0.0842,-0.27294 0,-0.35714 -0.16836,-0.16836 -0.50132,0.10648 -0.71428,0 -0.15059,-0.0753 -0.20656,-0.28185 -0.35715,-0.35715 -0.21295,-0.10648 -0.54592,0.16836 -0.71428,0 -0.0842,-0.0842 0.0842,-0.27294 0,-0.35714 -0.0842,-0.0842 -0.25066,0.0532 -0.35714,0 -0.30117,-0.15058 -0.41312,-0.5637 -0.71429,-0.71428 -0.10648,-0.0532 -0.27294,0.0842 -0.35714,0 -0.0842,-0.0842 0.0842,-0.27295 0,-0.35715 -0.0842,-0.0842 -0.25067,0.0532 -0.35715,0 -0.30116,-0.15058 -0.41311,-0.5637 -0.71428,-0.71428 -0.10648,-0.0532 -0.27294,0.0842 -0.35714,0 -0.0842,-0.0842 0.0842,-0.27295 0,-0.35715 -0.0842,-0.0842 -0.27295,0.0842 -0.35715,0 -0.0842,-0.0842 0.0532,-0.25066 0,-0.35714 -0.0753,-0.15058 -0.28184,-0.20656 -0.35714,-0.35714 -0.0532,-0.10648 0.0842,-0.27294 0,-0.35714 -0.0842,-0.0842 -0.27294,0.0842 -0.35714,0 -0.0842,-0.0842 0.0532,-0.25067 0,-0.35715 -0.0753,-0.15058 -0.28185,-0.20656 -0.35715,-0.35714 -0.0532,-0.10648 0.0532,-0.25066 0,-0.35714 -0.0753,-0.15059 -0.28184,-0.20656 -0.35714,-0.35715 -0.10648,-0.21296 0.16836,-0.54592 0,-0.71428 -0.0842,-0.0842 -0.27294,0.0842 -0.35714,0 -0.0162,-0.0162 0,-1.61732 0,-1.78572 0,-0.71428 0,-1.42857 0,-2.14285 0,-0.11905 -0.0842,-0.27295 0,-0.35715 0.0842,-0.0842 0.27294,0.0842 0.35714,0 0.11059,-0.11058 -0.11059,-1.67512 0,-1.78571 0.0842,-0.0842 0.27294,0.0842 0.35714,0 0.16836,-0.16836 -0.16835,-0.54593 0,-0.71429 0.0842,-0.0842 0.27295,0.0842 0.35715,0 0.0842,-0.0842 0,-0.23809 0,-0.35714 0,-0.7336 -0.0376,-0.2442 0.35714,-1.42857 -2.23043,-0.40295 0.86919,1.63081 0.35714,2.14286 -0.0842,0.0842 -0.27296,-0.0842 -0.35714,0 -0.16836,0.16836 0.16836,0.54592 0,0.71428 -0.0842,0.0842 -0.27296,-0.0842 -0.35714,0 -0.16836,0.16836 0.16836,0.54593 0,0.71429 -0.0842,0.0842 -0.27297,-0.0842 -0.35715,0 -0.0842,0.0842 0.0532,0.25066 0,0.35714 -0.0753,0.15059 -0.23809,0.2381 -0.35714,0.35714 -0.11905,0.11905 -0.20656,0.28185 -0.35714,0.35715 -0.10648,0.0532 -0.27296,-0.0842 -0.35714,0 -0.0842,0.0842 0.0842,0.27296 0,0.35714 -0.0842,0.0842 -0.27297,-0.0842 -0.35715,0 -0.16836,0.16836 0.16836,0.54593 0,0.71429 -0.0842,0.0842 -0.25066,-0.0532 -0.35714,0 -0.15058,0.0753 -0.23809,0.23809 -0.35714,0.35714 -0.11905,0.11905 -0.28185,0.20656 -0.35715,0.35714 -0.0532,0.10648 0.0842,0.27296 0,0.35714 -0.0842,0.0842 -0.27296,-0.0842 -0.35714,0 -0.0842,0.0842 0.0842,0.27297 0,0.35715 -0.0842,0.0842 -0.27296,-0.0842 -0.35714,0 -0.0842,0.0842 0.0842,0.27296 0,0.35714 -0.73894,0.73894 0.0289,-1.1292 -0.71429,0.35714 -0.0532,0.10648 0.0842,0.27297 0,0.35715 -0.0842,0.0842 -0.27296,-0.0842 -0.35714,0 -0.0842,0.0842 0.0842,0.27296 0,0.35714 -0.16836,0.16836 -0.50133,-0.10648 -0.71429,0 -0.15058,0.0753 -0.20655,0.28185 -0.35714,0.35714 -0.21296,0.10648 -0.50132,-0.10648 -0.71428,0 -0.15059,0.0753 -0.20656,0.28185 -0.35715,0.35714 -0.22447,0.11224 -1.2041,-0.11223 -1.42857,0 -0.15058,0.0753 -0.20656,0.28185 -0.35714,0.35715 -0.12916,0.0646 -1.53731,0 -1.78572,0 -0.0866,0 -1.05994,0.0115 -1.07142,0 -0.0842,-0.0842 0.0842,-0.27297 0,-0.35715 -0.17858,-0.17857 -0.89286,0.17858 -1.07143,0 -0.0842,-0.0842 0.0842,-0.27296 0,-0.35714 -0.23851,-0.23851 -0.47578,0.23851 -0.71429,0 -0.0842,-0.0842 0.0842,-0.27296 0,-0.35714 -0.16836,-0.16836 -0.50132,0.10648 -0.71428,0 -0.15059,-0.0753 -0.20656,-0.28185 -0.35715,-0.35714 -0.10648,-0.0532 -0.27296,0.0842 -0.35714,0 -0.0842,-0.0842 0.0842,-0.27297 0,-0.35715 -0.0842,-0.0842 -0.27296,0.0842 -0.35714,0 -0.0842,-0.0842 0.0842,-0.27296 0,-0.35714 -0.73894,-0.73894 0.0289,1.1292 -0.71429,-0.35714 -0.0532,-0.10648 0.0842,-0.27297 0,-0.35715 -0.0842,-0.0842 -0.27296,0.0842 -0.35714,0 -0.0842,-0.0842 0.0842,-0.27296 0,-0.35714 -0.0842,-0.0842 -0.27296,0.0842 -0.35714,0 -0.0842,-0.0842 0.0842,-0.27296 0,-0.35714 -0.73894,-0.73894 0.0289,1.1292 -0.71429,-0.35714 -0.0532,-0.10648 0.0842,-0.27297 0,-0.35715 -0.0842,-0.0842 -0.27296,0.0842 -0.35714,0 -0.0842,-0.0842 0.0842,-0.27296 0,-0.35714 -0.0842,-0.0842 -0.27297,0.0842 -0.35715,0 -0.0842,-0.0842 0.0842,-0.27296 0,-0.35714 -0.0842,-0.0842 -0.27296,0.0842 -0.35714,0 -0.0842,-0.0842 0.0842,-0.27297 0,-0.35715 -0.0842,-0.0842 -0.27296,0.0842 -0.35714,0 -0.0842,-0.0842 0.0842,-0.27296 0,-0.35714 -0.0842,-0.0842 -0.27296,0.0842 -0.35714,0 -0.0842,-0.0842 0.0842,-0.27296 0,-0.35714 -0.0842,-0.0842 -0.27297,0.0842 -0.35715,0 -0.0842,-0.0842 0.0532,-0.25067 0,-0.35714 -0.0753,-0.15059 -0.28185,-0.20656 -0.35714,-0.35715 -0.0532,-0.10648 0.0842,-0.27296 0,-0.35714 -0.0842,-0.0842 -0.27296,0.0842 -0.35714,0 -0.16836,-0.16836 0.16836,-0.54593 0,-0.71429 -0.0842,-0.0842 -0.27297,0.0842 -0.35715,0 -0.0144,-0.0144 0,-1.29741 0,-1.42857 0,-0.11905 0,-0.23809 0,-0.35714 0,-0.11905 -0.11904,-0.35714 0,-0.35714 0.2662,0 0.47619,0.23809 0.71429,0.35714"
       id="path6547"
       inkscape:connector-curvature="0" />
  </g>
</svg>
