<?xml version="1.0" encoding="UTF-8" standalone="no"?>
<svg
   xmlns:dc="http://purl.org/dc/elements/1.1/"
   xmlns:cc="http://creativecommons.org/ns#"
   xmlns:rdf="http://www.w3.org/1999/02/22-rdf-syntax-ns#"
   xmlns:svg="http://www.w3.org/2000/svg"
   xmlns="http://www.w3.org/2000/svg"
   version="1.1"
   id="svg4225"
   viewBox="0 0 899.99997 899.99996"
   height="900"
   width="900">
  <defs
     id="defs4227">
    <linearGradient
       id="linearGradient4995">
      <stop
         id="stop6487"
         offset="0"
         style="stop-color:#000000;stop-opacity:0.94117647;" />
      <stop
         style="stop-color:#f7f7f7;stop-opacity:0.90980392;"
         offset="0.24615385"
         id="stop6513" />
      <stop
         id="stop6515"
         offset="0.46650887"
         style="stop-color:#000000;stop-opacity:0.89411765;" />
      <stop
         style="stop-color:#000000;stop-opacity:0.88235301;"
         offset="1"
         id="stop6511" />
    </linearGradient>
  </defs>
  <metadata
     id="metadata4230">
    <rdf:RDF>
      <cc:Work
         rdf:about="">
        <dc:format>image/svg+xml</dc:format>
        <dc:type
           rdf:resource="http://purl.org/dc/dcmitype/StillImage" />
        <dc:title></dc:title>
      </cc:Work>
    </rdf:RDF>
  </metadata>
  <g
     transform="translate(0,-152.36225)"
     id="layer1">
    <path
       d="m 777.3101,713.70213 c -3.00501,33.03851 -6.633,65.8781 -10.65235,97.58789 15.84592,-1.69684 35.72413,-24.04023 38.18974,-43.06836 2.61629,-20.19098 -10.3131,-40.71513 -27.53739,-54.51953 z M 367.08827,726.5509 c -14.8952,9.77244 -32.25838,39.1394 -31.79241,55.21875 0.52645,18.16632 22.46842,29.70016 40.51312,36.59961 -3.1881,-30.17066 -6.1856,-60.9006 -8.72071,-91.81836 z m 59.69432,-283.7548 c 116.28018,-42.56112 307.12076,-16.83677 298.39908,-11.22346 l 47.90758,-79.66121 c 33.63518,128.43049 7.20496,386.54845 -21.2913,553.26356 l -70.22181,-1.32204 C 580.60378,823.31015 524.32322,887.7836 485.84856,902.31785 l -101.08874,0.44958 C 364.81244,729.52346 341.25615,519.894 375.2721,362.2886 Z M 235.71875,759.14152 c -1.48693,0.0273 -2.96494,0.18796 -4.41992,0.5 -11.07987,2.37617 -26.79243,13.16748 -23.94141,24.13476 3.85957,14.84698 33.34552,1.92863 44.21875,12.75 14.19295,14.12527 5.91627,40.91093 16.91992,57.64063 6.99503,10.63508 16.79855,22.49642 29.38672,24.38672 18.19177,2.73176 34.10172,-13.82112 50.94531,-21.2168 7.42392,-3.25968 18.86309,-4.57504 28.7754,-6.69922 -0.91064,-8.16511 -1.81887,-16.32399 -2.7129,-24.59375 -9.68876,1.10673 -20.47773,4.43488 -27.90039,6.99805 -26.98944,9.31991 -28.93245,27.76472 -44.57421,22.20703 -11.2821,-4.00866 -12.41636,-12.88711 -14.8379,-32.71289 -2.61278,-21.39172 -9.5563,-37.51252 -22.9414,-50.08399 -7.59267,-7.13114 -18.50949,-13.50164 -28.91797,-13.31054 z"
       style="fill:#b3b3b3;fill-opacity:1;stroke:#000000;stroke-width:6;stroke-linecap:round;stroke-linejoin:round;stroke-miterlimit:4;stroke-dasharray:none;stroke-opacity:1"
       id="path4360" />
  </g>
</svg>
