<?xml version="1.0" encoding="UTF-8" standalone="no"?>
<!-- Created with Inkscape (http://www.inkscape.org/) -->

<svg
   xmlns:dc="http://purl.org/dc/elements/1.1/"
   xmlns:cc="http://creativecommons.org/ns#"
   xmlns:rdf="http://www.w3.org/1999/02/22-rdf-syntax-ns#"
   xmlns:svg="http://www.w3.org/2000/svg"
   xmlns="http://www.w3.org/2000/svg"
   xmlns:sodipodi="http://sodipodi.sourceforge.net/DTD/sodipodi-0.dtd"
   xmlns:inkscape="http://www.inkscape.org/namespaces/inkscape"
   width="400"
   height="400"
   viewBox="0 0 400 400.00001"
   id="svg2"
   version="1.1"
   inkscape:version="0.91 r13725"
   sodipodi:docname="shades.svg">
  <defs
     id="defs4" />
  <sodipodi:namedview
     id="base"
     pagecolor="#ffffff"
     bordercolor="#666666"
     borderopacity="1.0"
     inkscape:pageopacity="0.0"
     inkscape:pageshadow="2"
     inkscape:zoom="1.5361895"
     inkscape:cx="95.522924"
     inkscape:cy="276.00877"
     inkscape:document-units="px"
     inkscape:current-layer="layer1"
     showgrid="true"
     units="px"
     inkscape:window-width="1920"
     inkscape:window-height="1035"
     inkscape:window-x="0"
     inkscape:window-y="1"
     inkscape:window-maximized="1">
    <inkscape:grid
       type="xygrid"
       id="grid4684" />
  </sodipodi:namedview>
  <metadata
     id="metadata7">
    <rdf:RDF>
      <cc:Work
         rdf:about="">
        <dc:format>image/svg+xml</dc:format>
        <dc:type
           rdf:resource="http://purl.org/dc/dcmitype/StillImage" />
        <dc:title></dc:title>
      </cc:Work>
    </rdf:RDF>
  </metadata>
  <g
     inkscape:label="Layer 1"
     inkscape:groupmode="layer"
     id="layer1"
     transform="translate(0,-652.36216)">
    <g
       id="g4857"
       transform="translate(53.394707,-1.8411968)">
      <g
         id="g4814">
        <g
           id="g4793"
           transform="translate(52.076909,-3.2548068)">
          <path
             sodipodi:nodetypes="scccsssssccssssscccsaaaasss"
             inkscape:connector-curvature="0"
             id="path4689"
             transform="translate(-52.076909,655.61697)"
             d="m 122.18555,114.11523 c -5.54684,-0.0595 -11.38885,0.15472 -19.43164,1.81641 l -12.62891,2.44141 0.324219,12.55859 c 0,0 5.545147,0.0103 7.482422,2.60352 3.006369,4.0243 1.023871,7.9146 1.707031,15.02148 2.276008,23.6772 10.159598,28.63254 22.369138,30.05664 6.39388,0.74577 19.44548,1.94528 28.36328,-1.2207 8.05947,-2.86125 15.53138,-8.41073 20.58985,-15.30664 5.34742,-7.28984 9.20926,-21.79689 9.39062,-28.98984 C 185,131 185,131 188.24155,132.98103 c 0.18136,7.19295 3.58291,21.81507 8.93033,29.10491 5.05846,6.89591 12.53037,12.44539 20.58984,15.30664 8.9178,3.16598 21.9694,1.96647 28.36328,1.2207 12.20955,-1.4241 20.09508,-6.37944 22.37109,-30.05664 0.68316,-7.10688 -1.29934,-10.99718 1.70703,-15.02148 1.93728,-2.59325 7.48047,-2.60352 7.48047,-2.60352 l 0.32618,-12.55859 -12.62891,-2.44141 c -12.86847,-2.6587 -20.10562,-1.61027 -29.50781,-1.66797 -3.48845,-0.0214 -7.48048,0.0976 -11.19532,0.48828 -6.92544,0.72827 -13.78681,2.02979 -20.60383,3.45117 -6.80741,1.41938 -13.28515,5.19836 -20.23765,5.06329 -6.70646,-0.13029 -12.75647,-4.24132 -19.31704,-5.63866 -6.93041,-1.47611 -12.63403,-2.64618 -21.06218,-2.8758 -4.08528,-0.1113 -7.70687,-0.5097 -11.19531,-0.48828 -3.52582,0.0216 -6.74807,-0.11272 -10.07617,-0.14844 z"
             style="fill:#000000;fill-opacity:1;stroke:none;stroke-width:8;stroke-linecap:square;stroke-linejoin:round;stroke-miterlimit:4;stroke-dasharray:none;stroke-opacity:1" />
          <path
             sodipodi:nodetypes="ccsscccc"
             inkscape:connector-curvature="0"
             id="path4694"
             d="m 76.917969,774.72852 c -8.597798,0.14254 -21.142398,0.60165 -24.273438,10.4414 -2.7918,12.99576 -2.659703,27.92062 4.888672,38.88672 6.303617,9.15775 19.913409,7.36076 30.048987,7.00531 16.1072,-0.56488 29.94768,-13.11023 34.2264,-28.45648 1.64415,-6.60778 3.32868,-9.96905 0.59318,-16.51875 -6.52294,-7.63018 -17.13012,-10.03833 -26.063119,-11.05148 -6.407462,-0.26097 -12.950734,-0.37751 -19.420682,-0.30672 z"
             style="fill:#333333;fill-opacity:1;stroke:none;stroke-width:8;stroke-linecap:square;stroke-linejoin:round;stroke-miterlimit:4;stroke-dasharray:none;stroke-opacity:1" />
          <path
             d="m 51.997835,777.99066 a 3.4764421,1.4421878 0 0 1 -3.458664,1.44217 3.4764421,1.4421878 0 0 1 -3.494038,-1.42742 3.4764421,1.4421878 0 0 1 3.422928,-1.45677 3.4764421,1.4421878 0 0 1 3.529047,1.41252"
             sodipodi:open="true"
             sodipodi:end="6.26273"
             sodipodi:start="0"
             sodipodi:ry="1.4421878"
             sodipodi:rx="3.4764421"
             sodipodi:cy="777.99066"
             sodipodi:cx="48.521393"
             sodipodi:type="arc"
             id="path4707"
             style="fill:#b3b3b3;fill-opacity:1;stroke:none;stroke-width:8;stroke-linecap:square;stroke-linejoin:round;stroke-miterlimit:4;stroke-dasharray:none;stroke-opacity:1" />
        </g>
      </g>
      <g
         id="g4806"
         transform="matrix(-1,0,0,1,316.05716,-3.2548068)">
        <path
           sodipodi:nodetypes="ccsscccc"
           inkscape:connector-curvature="0"
           id="path4810"
           d="m 76.917969,774.72852 c -8.597798,0.14254 -21.142398,0.60165 -24.273438,10.4414 -2.7918,12.99576 -2.659703,27.92062 4.888672,38.88672 6.303617,9.15775 19.913409,7.36076 30.048987,7.00531 16.1072,-0.56488 29.94768,-13.11023 34.2264,-28.45648 1.64415,-6.60778 3.32868,-9.96905 0.59318,-16.51875 -6.52294,-7.63018 -17.13012,-10.03833 -26.063119,-11.05148 -6.407462,-0.26097 -12.950734,-0.37751 -19.420682,-0.30672 z"
           style="fill:#333333;fill-opacity:1;stroke:none;stroke-width:8;stroke-linecap:square;stroke-linejoin:round;stroke-miterlimit:4;stroke-dasharray:none;stroke-opacity:1" />
        <path
           d="m 51.997835,777.99066 a 3.4764421,1.4421878 0 0 1 -3.458664,1.44217 3.4764421,1.4421878 0 0 1 -3.494038,-1.42742 3.4764421,1.4421878 0 0 1 3.422928,-1.45677 3.4764421,1.4421878 0 0 1 3.529047,1.41252"
           sodipodi:open="true"
           sodipodi:end="6.26273"
           sodipodi:start="0"
           sodipodi:ry="1.4421878"
           sodipodi:rx="3.4764421"
           sodipodi:cy="777.99066"
           sodipodi:cx="48.521393"
           sodipodi:type="arc"
           id="path4812"
           style="fill:#b3b3b3;fill-opacity:1;stroke:none;stroke-width:8;stroke-linecap:square;stroke-linejoin:round;stroke-miterlimit:4;stroke-dasharray:none;stroke-opacity:1" />
      </g>
    </g>
    <path
       style="fill:#ff0000;fill-opacity:1;stroke:none;stroke-width:8;stroke-linecap:square;stroke-linejoin:round;stroke-miterlimit:4;stroke-dasharray:none;stroke-opacity:1"
       d="m 81.042506,776.66245 c 33.906014,-10.57091 63.209534,-7.97428 63.209534,-7.97428 l 0,12.76659 c -12.5963,0 -19.25204,-0.0926 -32.17436,1.87151 -7.05946,1.07299 -17.431755,-3.71646 -23.377123,-3.27356 -4.045781,0.30139 -7.24194,1.77711 -9.911561,4.16864 -1.179462,1.0566 -1.417121,2.84338 -2.310428,4.15087 -0.445823,0.65253 -0.919589,1.30269 -1.510689,1.82724 -0.567762,0.50384 -1.195931,0.98933 -1.915143,1.23212 -1.263011,0.42636 -2.653848,0.34955 -3.986491,0.31731 -1.805256,-0.0437 -3.965814,0.44101 -5.373172,-0.69045 -1.126035,-0.90529 -1.97532,-2.72914 -1.463022,-4.08008 2.535837,-6.68707 15.118988,-9.16439 18.812455,-10.31591 z"
       id="rect4855"
       inkscape:connector-curvature="0"
       sodipodi:nodetypes="sccssaaaaaaas" />
  </g>
</svg>
